<?xml version="1.0" encoding="utf-8"?>
<!-- Generator: Adobe Illustrator 23.0.1, SVG Export Plug-In . SVG Version: 6.00 Build 0)  -->
<svg version="1.1" id="Calque_1" xmlns="http://www.w3.org/2000/svg" xmlns:xlink="http://www.w3.org/1999/xlink" x="0px" y="0px"
	 viewBox="0 0 320.2 420.28" style="enable-background:new 0 0 320.2 420.28;" xml:space="preserve">
<path d="M974.78-243.79c3.99-3.39-1.33-5.14-1.78-7.76c2.93,0.11,4.17,0.24,5.43,2.12c0-0.02,0-0.05,0-0.07
	c-0.1-2.26,0.06-4.58,0.43-6.91c-1.05-1.33-2.22-2.61-3.56-3.79c-2.1-1.85-4.13-4.75-4.38-7.33c-0.57-5.85-4.69-9.79-7.46-14.29
	c-4.08-6.63-9.25-12.66-14.22-18.75c-1.31-1.61-3.46-3.43-5.38-3.6c-6.36-0.58-10.34-7.71-17.57-5.64c-0.49,0.14-1.42-1.2-2.16-1.83
	c-0.67-0.57-1.33-1.55-2.06-1.61c-8.47-0.65-16.96-1.16-25.7-1.73c-3.97-2.41-8.15-6.38-13.08-7.61c-7.8-1.95-15.59-4.81-23.65-5.08
	c-4.12-0.14-9.35-2.02-12.82,2.49c-0.35,0.46-1.29,0.87-1.84,0.76c-7.9-1.58-15.35,0.7-22.83,2.47c-2.53,0.6-4.83,2.29-7.36,2.68
	c-2.32,0.36-4.83-0.5-7.25-0.52c-1.04-0.01-2.09,0.74-3.98,1.47c1.9,1.15,2.97,1.8,4.83,2.93c-2.5,0.56-5.38,0.48-5.8,1.41
	c-2.36,5.3-12.32,2.37-11.92,10.32c0,0.07-0.45,0.14-0.68,0.25c-4.41,2.09-9.44,3.27-10.94,8.98c-0.38,1.44-3.32,2.25-5.22,3.44
	c3.84,4.15,5.43-2.48,8.9-0.99c-0.93,2.4-1.74,4.48-2.76,7.09c2.7-1.12,4.75-1.96,6.82-2.82c1.62,2.91-3.11,6.3,2.35,8.1
	c1.68-3,4.6-4.21,8.35-3.74c2.72,0.34,5.35-1.48,8.3,1.31c1.54,1.46,5.91-0.03,8.96,0.23c2.02,0.17,3.98,1.09,6.99,1.98
	c-3.59,2.3-6.28,4.01-9.26,5.92c0.89,1.06,1.64,1.95,2.42,2.89c2.9-1.71,5.54-3.28,9.21-5.44c-0.33,3.03-0.54,4.91-0.79,7.2
	c-1.47-1.04-2.21-1.56-2.69-1.89c-1.65,3.18-3.21,6.18-4.56,8.76c-8.97,1.72-16.27-0.79-22.86-5.18c-1.35,1.46-2.33,2.53-3.74,4.07
	v-6.81c-3.36,4.29-6.87,5.53-10.76,5.75c-1.83,0.1-3.9-0.8-5.51-0.27c-6.2,2.03-12.52,3.98-18.29,6.89
	c-4.49,2.26-8.23,5.9-12.29,8.94c-2.1,1.57-4.43,2.95-6.22,4.8c-2.37,2.45-3.93,5.73-6.55,7.82c-3.28,2.62-4,6.84-3.6,9.33
	c0.79,4.89-0.96,5.9-5.09,6.55c-0.96,0.15-1.63,1.96-2.59,3.21c1.89,0.63,3.24,1.09,5.4,1.81c-1.29,5.82-2.56,11.54-3.98,17.93
	c2.16-0.93,3.46-1.49,5.03-2.17c-0.89,4.16-1.64,7.62-2.38,11.09c2.86-1.18,5.1-4.8,5.97-4.52c5.8,1.88,5.8-2.55,7.5-5.38
	c0.48-0.8,2.22-1.81,2.72-1.55c3.16,1.67,4.64-0.83,6.3-2.27c1.67-1.45,3.07-2.91,6.16-2.64c-0.91,2.46-1.61,4.37-2.45,6.64
	c1.62,0.14,3.03,0.27,3.85,0.34c1.39-4.5,2.62-8.51,4.19-13.59c1.25,2.35,1.8,3.37,2.64,4.95c5.23-5.87,9.17-12.67,16.75-16.55
	c0.55,3.95-1.4,5.83-4.1,7.42c-2.84,1.67-4.84,3.8-3.34,7.7c1.98-1.15,3.57-2.07,6.19-3.59c-1.11,4.94-2.84,7.75-6.58,9.41
	c-0.8,0.35-1.01,1.91-1.67,3.28c2.07-0.5,3.51-0.85,6.72-1.63c-2.67,4.17-4.22,7.17-6.34,9.71c-1.7,2.04-2.66,3.93-1.79,6.42
	c1.54-1.61,3.03-3.29,4.66-4.82c1.83-1.71,3.8-3.29,5.71-4.93c1.32,3.7,4.52,5.32,9.76,6c-3.08,2.14-4.87,3.38-6.65,4.62
	c3.4,0.03,6.51-0.91,9.69-1.41c4.43-0.7,9.3-0.43,13.3-1.49c4.15-1.1,7.04,0.42,10.19,1.29c1.22,0.34,1.33,1.63,3.05,0.17
	c1.72-1.45,4.37-1.87,6.55-2.71c0.16,1.24,0.3,2.34,0.45,3.44c1.13-0.15,2.55,0.05,3.31-0.54c1.25-0.96,2.07-2.44,3.65-4.41
	c0.78,2.38,1.31,4,1.94,5.93c1.7-0.38,3.43-0.76,6.26-1.38c-2.31,2.82-3.94,4.8-5.86,7.14c1.32,1.51,2.6,2.97,4.27,4.88
	c1.1-2.91,1.78-4.73,2.47-6.55c1.02,2.89,2.63,5.11,0.01,8.03c-1.85,2.06-1.5,5.93-2.13,8.99c0.45,0.16,0.91,0.33,1.36,0.49
	c1.33-2.08,2.67-4.16,4.07-6.35c0.82,0.14,1.59,0.5,2.2,0.33c3.81-1.04,8.72-1.17,11.08-3.57c3.1-3.17,7.48,2.82,9.17-2.21
	c7.1,0.84,11.3-3.25,15.26-8.02c1.17-1.41,3.38-3.16,4.84-2.96c2.17,0.3,3.15-0.1,4.1-1.71c2.83-4.85,7.35-5.4,12.21-3.84
	c2.92,0.94,4.46,0.27,5.59-2.24c0.24-0.53,0.74-0.96,1.23-1.57c1.8,1.24,3.35,2.31,4.74,3.27c2.75-0.81,4.48-4.35,7.53-1.56
	c1.33-3.04,6.32,1.87,6.85-2.9c1.38,0.18,2.89,0.09,4.13,0.6c2.93,1.21,5.7,3.72,8.61,3.84c0.9,0.04,1.69,0.18,2.42,0.4
	c0.55-0.62,1.1-1.22,1.67-1.79c1.27-1.27,2.65-2.46,4.1-3.58c-1.18-1.55-2.36-3.09-3.57-4.67c2.67-0.85,4.94-1.45,7.28,0.94
	c0.24,0.24,0.45,0.48,0.67,0.73c2.05-1.23,4.19-2.33,6.41-3.25c-0.4-0.72-0.79-1.45-1.18-2.2c2.95-3.99,6.73-5.38,10.69-6.46
	c2.31-0.63,4.51-0.62,6.33-0.1c-0.24-1.82-0.41-3.64-0.5-5.46c-0.2-4.37,0.56-8.97,2.01-13.44c-0.71-1.39-1.38-2.83-2.02-4.28
	c1.2,0.28,2.24,0.67,3.17,1.13c0.68-1.7,1.45-3.37,2.31-4.98c-0.9-1.04-1.79-2.08-2.6-3.19
	C975.49-241.73,974.51-243.57,974.78-243.79z M779.83-194.82c-0.66,0.48-1.36,1.08-2.12,1.19c-0.57,0.08-1.23-0.37-1.89-0.66
	c0.5-0.44,0.95-0.97,1.53-1.25c0.57-0.27,1.29-0.37,1.93-0.32C779.5-195.84,779.89-194.87,779.83-194.82z M777.44-227.17
	c0.34-0.72,0.6-1.48,1.03-2.15c0.43-0.68,1.02-1.28,1.99-2.45C781.74-228.19,779.22-227.94,777.44-227.17z M785.6-234.26
	c-0.58-0.98-1.16-1.96-1.67-2.98c-0.02-0.03,2.47-3.07,2.49-3.05c0.67,0.97,1.22,1.85,1.83,2.84
	C787.8-237.23,786.05-234.47,785.6-234.26z M792.08-243.28c-0.39-0.34-1.08-2.41-1.47-2.75c1.54-4.39,5.32-6.79,9.45-8.73
	c0.52-0.25,1.78,0.96,2.58,1.44C798.74-250.33,795.56-245.94,792.08-243.28z M802.73-256.29c2.69-0.44,4.53-0.75,6.37-1.05
	c0.09,0.55,0.18,1.11,0.26,1.68C807.57-254.84,805.96-252.29,802.73-256.29z M931.46-195.43c4.65-3.13,6.47-1.64,7.62,2.1
	C937-193.9,934.92-194.47,931.46-195.43z"/>
<path d="M20.02,316.31c0.45,0.07,0.89,0.14,1.34,0.2c3.63-5.21,7.26-10.42,10.93-15.7c4.41,4.36,4.81,4.35,4.9,8.99
	c0.15,8.32,3.6,15.28,8.44,21.85c2.88,3.92,6.53,7.6,8.22,11.97c2.74,7.11,4.1,14.72,6.19,22.07c0.68-0.03,1.36-0.05,2.03-0.05
	c6.08,0,11.83,1.25,17.17,3.48c1.34-2.13,2.88-4.14,4.56-6.02c-1.91-1.11-3.49-2.48-4.91-4.43c1.38-0.21,2.59-0.4,3.72-0.57
	c-0.67-1.26-1.27-2.55-1.77-3.85c-0.39-0.2-0.71-0.35-0.92-0.39c-0.43-1.19-0.4-2.04-0.09-2.71c-0.69-2.47-1.11-5.01-1.23-7.64
	c-0.79-5.91-0.54-12.5,0.97-18.78c-0.82,1.77-1.66,3.54-2.52,5.3c-0.69,1.42-2.28,2.43-3.46,3.63c-3.15-2.64-6.86-4.98-7.36-9.39
	c-0.35-3.17-0.07-6.41-0.07-10.46c1.56,1.91,2.68,3.28,3.91,4.78c1.87-2.17,3.54-4.1,5.12-5.92c-0.88-3.08-8.32-1.08-5.28-6.75
	c-1.3,0.55-2.6,1.1-4.04,1.71c-0.54-7.67-0.54-7.67,8.32-9.8c-0.95,2.85-1.73,5.19-2.51,7.52c0.9-0.25,2.41-0.91,2.59-0.67
	c1.79,2.45,3.6,1.6,5.77,0.52c2.13-1.05,4.5-1.65,7.1-1.84c0.01,0.01,0.02,0.03,0.03,0.04c-2.75,3.87-10.99,2.54-9.41,10.31
	c2.55-1.52,3.16-6.73,8.36-3.43c1.36-1.82,2.89-3.51,4.64-4.98c-1.25-3.98-2.13-8.07-2.58-12.23c-4.27-0.05-7.98-0.75-9.85-5.56
	c-0.49-1.27-1.77-3.7-4.57-2.18c-0.38,0.21-2.2-0.92-2.32-1.61c-0.33-1.75-0.48-3.72,0.01-5.4c2.52-8.64,5.21-17.23,7.95-25.81
	c1.24-3.89,2.75-7.71,4.49-12.57c3.9,6.07,6.97,10.85,10.04,15.63c3.22-1.88,4.61-3.66,3.95-6.9c-1.32-6.4-3.74-12.3-7.47-17.73
	c-0.66-0.97-1.27-1.97-2.79-4.34c4.87,2.8,8.16,4.69,11.69,6.72c1.3-5.77,1.34-10.65-2.37-14.14c1.24-4.05,2.1-7.54,3.39-10.88
	c1.11-2.85,2.17-6.02,4.24-8.18c3.7-3.86,8.15-7.07,12.61-10.84c-4.62-6.31-10.76,1.4-16.1-1.15c-0.27-0.59-0.56-1.24-0.87-1.92
	c3.3-1.59,4.02-3.72,3.74-6.94c2.17-3.32,2.32-6.39,0.76-10.87c-0.81,2.55-1.55,4.89-2.26,7.11c-2.45,3.48-3.9,4.02-4.52,6.21
	c-0.51-1.55-1.3-2.84-4.64-1.3c1.91,9.37-3.96,16.85-7.74,24.93c-0.32,0.68-2.58,0.53-4.07,0.79c3.71-10.45,7.11-20.03,10.59-29.82
	c-2.05-0.17-3.12-0.25-5.45-0.45c5.63-4.03,5.25-12.5,14.26-12.3c-0.16-1.45-0.33-3-0.58-5.21c-11.82,1.64-14.11,10.44-17.21,18.83
	c0.1-3.5,0.14-7.34,0.1-10.92c0.04,0.31,0.08,0.62,0.13,0.95c7.29-9.08,8.43-14.63,4.54-19.92c-0.94,0.65-1.73,1.24-2.41,1.82
	c-1.09-8.88-6.32-18.65-15.14-26.07c-5.23,15.76,1.24,28.78,8.82,41.55c-2.76,5.63-4.32,12.73,0.04,16.56
	c-0.46,2.31-0.93,4.61-1.39,6.92c-2.48-7.13-6.72-13.5-5.61-21.21c0.31-2.11-0.88-4.71-2.12-6.64c-1.23-1.91-3.57-2.13-4.76,0.24
	c-0.77,1.54-0.84,3.47-0.94,5.24c-0.08,1.54,0.24,3.1,0.41,4.97c-5.47-2.21-5.47-2.21-8.84-0.2c1.6,2.39,2.99,4.93,4.84,7.12
	c2.49,2.95,4.82,6.95,8.14,8.14c7.43,2.65,6.63,8.19,7.84,14.36c-12.39-12.42-20.35-15.11-26.35-9.41c1.32,4.26,7.9,4.01,8.28,9.59
	c0.29,4.14,2.48,8.16,3.97,12.7c-2.46,1-5.48,1.66-7.76,3.29c-2.32,1.66-3.91,4.27-6.75,7.53c-0.05-5.59,0.67-9.89-3.53-12.73
	c-3.11-2.1-1.04-8.11-7.24-8.54c1.95,7.96-1.96,15.6-0.01,23.4c0.29,1.16-0.59,2.85-1.42,3.97c-5.16,7-2.4,14.15-0.12,21.52
	c1.4-3.59,2.8-7.19,4.21-10.78c1.56,2.11,2.68,4.58,1.95,6.36c-1.42,3.46-4.92,6.33-5.64,9.81c-0.78,3.78,0.68,7.97,1.05,11.99
	c0.11,1.18,0.14,2.53-0.35,3.56c-0.24,0.51-0.7,0.93-1.22,1.33c-0.42-5-1.88-9.65-5.31-13.59c2.02-15.34-4.16-25.27-15.74-28.45
	c-0.26-1.35-0.75-2.57-1.4-3.7c-0.49,1.29-1.03,2.56-1.62,3.8c0.65,0.74,1.26,1.47,1.78,2.19c0.57,4.24,0.83,8.5,2.53,12.13
	c2.4,5.12,5.52,9.93,8.92,15.23c-0.14,2.01-0.27,4.23-0.49,6.39c-0.7-2.03-2.51-3.97-6.51-3.01c0.96,2.57,1.86,5.23,2.97,8.52
	c-6.93-3.5-13.01-4.45-20.96-0.1c1.77,0.8,2.69,1.6,3.59,1.57c4.49-0.15,6.75,2.25,8.35,5.89c0.42,0.97,1.85,1.52,2.81,2.28
	c2.75,2.18,5.5,4.36,8.25,6.54c-0.19,0.4-0.38,0.8-0.57,1.2c-2.72-0.71-5.44-1.41-8.12-2.11c-2.52,1.99-5.82,3.85-8.02,6.54
	c-2.31,2.82-3.56,6.43-5.28,9.69c0.43,0.43,0.86,0.85,1.28,1.28c6.42-1.36,13.08-1.96,19.02-8.13
	C20.8,305.11,20.41,310.71,20.02,316.31z M89.51,206.67c1.27-0.69,2.55-1.39,4.14-2.25c0.82,3.88,1.42,6.7,2.09,9.87
	c-0.52-0.18-0.98-0.33-1.39-0.47c-1.21-1.5-2.37-2.03-3.65-2.07c-0.53-0.51-1.13-1.16-1.89-2.02
	C89.17,208.77,89.4,207.68,89.51,206.67z M66.63,180.75c-2.24-1.63-1.87-3.85-0.18-7.68c1.9,3,2.98,4.69,4.5,7.09
	C69.02,180.46,67.32,181.25,66.63,180.75z M61.78,331.91c-1.32-3.36-2.06-5.25-2.8-7.14c-0.49-0.03-0.98-0.07-1.47-0.1
	c-0.54,2.29-1.08,4.58-1.62,6.87c-4.13-2.42-11.61-12.31-12.67-16.73c-1.74-7.28-1.46-13.51,0.93-17.23
	c4.41,1.12,8.91,2.26,14.41,3.66c0,5.2,0.39,10.47-0.11,15.66C57.98,321.82,63.68,325.03,61.78,331.91z M74.81,205.72
	c-2.01,2.48-4.02,4.96-6.21,7.67c-5.34-2.84-2.34-7.61-3.33-11.47C71.12,201.96,71.12,201.96,74.81,205.72z M43,214.48
	c1.71,6.32,3.73,11.4,1,16.86C42.8,226.15,38.41,221.18,43,214.48z M42.32,253.78c1.16-1.07,2.56-2.35,4-2.56
	c7.39-1.1,11.44-5.9,15.51-12.1c-6.22-1.03-11.33,0.1-17.25,4.5c1.84-6.05,2.21-10.81,4.6-14.3c3.36-4.92,9.3-5.96,15.34-5.47
	c2.36,0.19,4.89,0.88,7.06,0.33c2.97-0.76,1.6,4.85,4.92,2.64c0.07,1.14,0.35,2.32,0.17,3.42c-1.47,8.89-2.59,17.85-4.7,26.6
	c-1.38,5.72-4.12,11.16-6.42,16.65c-0.73,1.74-2.61,3.17-2.92,4.91c-0.91,5.09-3.82,6.66-9.02,7.48c-3.66,0.58-6.83,3.99-10.23,6.12
	c-0.96,0.6-1.98,1.1-2.97,1.65c-0.38-0.42-0.77-0.84-1.15-1.26c4.71-5.34,9.42-10.67,14.13-16.01c-0.31-0.39-0.63-0.77-0.94-1.15
	c-1.66,0.38-3.32,0.76-5.82,1.33c3.12-7.27,10.91-12.14,8.85-21.75c-5.64,4.98-10.77,9.51-16.05,14.17
	C40.08,263.94,37.36,258.27,42.32,253.78z M38.28,283.7c0.67-1.67,1.47-3.29,2.43-5.43c1.3,4.14,1.3,4.14-3.16,8.67
	C37.88,285.4,37.96,284.5,38.28,283.7z"/>
<path d="M138.53,342.45c-1.25,1.4-2.5,2.79-3.71,4.23c0.32,0.04,0.64,0.1,0.96,0.15C136.63,345.3,137.55,343.84,138.53,342.45z"/>
<path d="M104.8,353.69c-0.22-0.19-0.44-0.38-0.67-0.58c0.02-0.13,0.04-0.25,0.06-0.38c1.29-0.23,2.28-0.42,3.27-0.59
	c0.39-0.21,0.78-0.41,1.18-0.61c-0.24-1.33-0.44-2.41-0.63-3.47c3.89-0.84,4.82-3.39,4.7-7.16c-2.37,0.3-4.34,1-6.11,0.69
	c-4.4-0.79-4.31,1.95-4.21,4.58c0.03,0.81,0.46,1.61,0.87,2.41c-0.08,0.19-0.16,0.39-0.23,0.58c-0.4-0.21-0.82-0.42-1.26-0.64
	c-0.7,2.29-0.65,5.28-2.14,6.39c-1.7,1.26-1.81,2.69-1.73,4.11C99.99,357.04,102.31,355.25,104.8,353.69z"/>
<path d="M1254.51-77.05c0.28-0.23,0.6-0.47,0.98-0.72c0,0,0,0,0,0.01C1255.14-77.54,1254.82-77.3,1254.51-77.05z"/>
<path d="M1275.78,151.08c0.25,0.25,0.49,0.5,0.7,0.72C1276.25,151.56,1276.02,151.32,1275.78,151.08z"/>
</svg>
