<?xml version="1.0" encoding="utf-8"?>
<!-- Generator: Adobe Illustrator 23.0.1, SVG Export Plug-In . SVG Version: 6.00 Build 0)  -->
<svg version="1.1" id="Calque_1" xmlns="http://www.w3.org/2000/svg" xmlns:xlink="http://www.w3.org/1999/xlink" x="0px" y="0px"
	 viewBox="0 0 320.2 420.28" style="enable-background:new 0 0 320.2 420.28;" xml:space="preserve">
<path d="M974.78-243.79c3.99-3.39-1.33-5.14-1.78-7.76c2.93,0.11,4.17,0.24,5.43,2.12c0-0.02,0-0.05,0-0.07
	c-0.1-2.26,0.06-4.58,0.43-6.91c-1.05-1.33-2.22-2.61-3.56-3.79c-2.1-1.85-4.13-4.75-4.38-7.33c-0.57-5.85-4.69-9.79-7.46-14.29
	c-4.08-6.63-9.25-12.66-14.22-18.75c-1.31-1.61-3.46-3.43-5.38-3.6c-6.36-0.58-10.34-7.71-17.57-5.64c-0.49,0.14-1.42-1.2-2.16-1.83
	c-0.67-0.57-1.33-1.55-2.06-1.61c-8.47-0.65-16.96-1.16-25.7-1.73c-3.97-2.41-8.15-6.38-13.08-7.61c-7.8-1.95-15.59-4.81-23.65-5.08
	c-4.12-0.14-9.35-2.02-12.82,2.49c-0.35,0.46-1.29,0.87-1.84,0.76c-7.9-1.58-15.35,0.7-22.83,2.47c-2.53,0.6-4.83,2.29-7.36,2.68
	c-2.32,0.36-4.83-0.5-7.25-0.52c-1.04-0.01-2.09,0.74-3.98,1.47c1.9,1.15,2.97,1.8,4.83,2.93c-2.5,0.56-5.38,0.48-5.8,1.41
	c-2.36,5.3-12.32,2.37-11.92,10.32c0,0.07-0.45,0.14-0.68,0.25c-4.41,2.09-9.44,3.27-10.94,8.98c-0.38,1.44-3.32,2.25-5.22,3.44
	c3.84,4.15,5.43-2.48,8.9-0.99c-0.93,2.4-1.74,4.48-2.76,7.09c2.7-1.12,4.75-1.96,6.82-2.82c1.62,2.91-3.11,6.3,2.35,8.1
	c1.68-3,4.6-4.21,8.35-3.74c2.72,0.34,5.35-1.48,8.3,1.31c1.54,1.46,5.91-0.03,8.96,0.23c2.02,0.17,3.98,1.09,6.99,1.98
	c-3.59,2.3-6.28,4.01-9.26,5.92c0.89,1.06,1.64,1.95,2.42,2.89c2.9-1.71,5.54-3.28,9.21-5.44c-0.33,3.03-0.54,4.91-0.79,7.2
	c-1.47-1.04-2.21-1.56-2.69-1.89c-1.65,3.18-3.21,6.18-4.56,8.76c-8.97,1.72-16.27-0.79-22.86-5.18c-1.35,1.46-2.33,2.53-3.74,4.07
	v-6.81c-3.36,4.29-6.87,5.53-10.76,5.75c-1.83,0.1-3.9-0.8-5.51-0.27c-6.2,2.03-12.52,3.98-18.29,6.89
	c-4.49,2.26-8.23,5.9-12.29,8.94c-2.1,1.57-4.43,2.95-6.22,4.8c-2.37,2.45-3.93,5.73-6.55,7.82c-3.28,2.62-4,6.84-3.6,9.33
	c0.79,4.89-0.96,5.9-5.09,6.55c-0.96,0.15-1.63,1.96-2.59,3.21c1.89,0.63,3.24,1.09,5.4,1.81c-1.29,5.82-2.56,11.54-3.98,17.93
	c2.16-0.93,3.46-1.49,5.03-2.17c-0.89,4.16-1.64,7.62-2.38,11.09c2.86-1.18,5.1-4.8,5.97-4.52c5.8,1.88,5.8-2.55,7.5-5.38
	c0.48-0.8,2.22-1.81,2.72-1.55c3.16,1.67,4.64-0.83,6.3-2.27c1.67-1.45,3.07-2.91,6.16-2.64c-0.91,2.46-1.61,4.37-2.45,6.64
	c1.62,0.14,3.03,0.27,3.85,0.34c1.39-4.5,2.62-8.51,4.19-13.59c1.25,2.35,1.8,3.37,2.64,4.95c5.23-5.87,9.17-12.67,16.75-16.55
	c0.55,3.95-1.4,5.83-4.1,7.42c-2.84,1.67-4.84,3.8-3.34,7.7c1.98-1.15,3.57-2.07,6.19-3.59c-1.11,4.94-2.84,7.75-6.58,9.41
	c-0.8,0.35-1.01,1.91-1.67,3.28c2.07-0.5,3.51-0.85,6.72-1.63c-2.67,4.17-4.22,7.17-6.34,9.71c-1.7,2.04-2.66,3.93-1.79,6.42
	c1.54-1.61,3.03-3.29,4.66-4.82c1.83-1.71,3.8-3.29,5.71-4.93c1.32,3.7,4.52,5.32,9.76,6c-3.08,2.14-4.87,3.38-6.65,4.62
	c3.4,0.03,6.51-0.91,9.69-1.41c4.43-0.7,9.3-0.43,13.3-1.49c4.15-1.1,7.04,0.42,10.19,1.29c1.22,0.34,1.33,1.63,3.05,0.17
	c1.72-1.45,4.37-1.87,6.55-2.71c0.16,1.24,0.3,2.34,0.45,3.44c1.13-0.15,2.55,0.05,3.31-0.54c1.25-0.96,2.07-2.44,3.65-4.41
	c0.78,2.38,1.31,4,1.94,5.93c1.7-0.38,3.43-0.76,6.26-1.38c-2.31,2.82-3.94,4.8-5.86,7.14c1.32,1.51,2.6,2.97,4.27,4.88
	c1.1-2.91,1.78-4.73,2.47-6.55c1.02,2.89,2.63,5.11,0.01,8.03c-1.85,2.06-1.5,5.93-2.13,8.99c0.45,0.16,0.91,0.33,1.36,0.49
	c1.33-2.08,2.67-4.16,4.07-6.35c0.82,0.14,1.59,0.5,2.2,0.33c3.81-1.04,8.72-1.17,11.08-3.57c3.1-3.17,7.48,2.82,9.17-2.21
	c7.1,0.84,11.3-3.25,15.26-8.02c1.17-1.41,3.38-3.16,4.84-2.96c2.17,0.3,3.15-0.1,4.1-1.71c2.83-4.85,7.35-5.4,12.21-3.84
	c2.92,0.94,4.46,0.27,5.59-2.24c0.24-0.53,0.74-0.96,1.23-1.57c1.8,1.24,3.35,2.31,4.74,3.27c2.75-0.81,4.48-4.35,7.53-1.56
	c1.33-3.04,6.32,1.87,6.85-2.9c1.38,0.18,2.89,0.09,4.13,0.6c2.93,1.21,5.7,3.72,8.61,3.84c0.9,0.04,1.69,0.18,2.42,0.4
	c0.55-0.62,1.1-1.22,1.67-1.79c1.27-1.27,2.65-2.46,4.1-3.58c-1.18-1.55-2.36-3.09-3.57-4.67c2.67-0.85,4.94-1.45,7.28,0.94
	c0.24,0.24,0.45,0.48,0.67,0.73c2.05-1.23,4.19-2.33,6.41-3.25c-0.4-0.72-0.79-1.45-1.18-2.2c2.95-3.99,6.73-5.38,10.69-6.46
	c2.31-0.63,4.51-0.62,6.33-0.1c-0.24-1.82-0.41-3.64-0.5-5.46c-0.2-4.37,0.56-8.97,2.01-13.44c-0.71-1.39-1.38-2.83-2.02-4.28
	c1.2,0.28,2.24,0.67,3.17,1.13c0.68-1.7,1.45-3.37,2.31-4.98c-0.9-1.04-1.79-2.08-2.6-3.19
	C975.49-241.73,974.51-243.57,974.78-243.79z M779.83-194.82c-0.66,0.48-1.36,1.08-2.12,1.19c-0.57,0.08-1.23-0.37-1.89-0.66
	c0.5-0.44,0.95-0.97,1.53-1.25c0.57-0.27,1.29-0.37,1.93-0.32C779.5-195.84,779.89-194.87,779.83-194.82z M777.44-227.17
	c0.34-0.72,0.6-1.48,1.03-2.15c0.43-0.68,1.02-1.28,1.99-2.45C781.74-228.19,779.22-227.94,777.44-227.17z M785.6-234.26
	c-0.58-0.98-1.16-1.96-1.67-2.98c-0.02-0.03,2.47-3.07,2.49-3.05c0.67,0.97,1.22,1.85,1.83,2.84
	C787.8-237.23,786.05-234.47,785.6-234.26z M792.08-243.28c-0.39-0.34-1.08-2.41-1.47-2.75c1.54-4.39,5.32-6.79,9.45-8.73
	c0.52-0.25,1.78,0.96,2.58,1.44C798.74-250.33,795.56-245.94,792.08-243.28z M802.73-256.29c2.69-0.44,4.53-0.75,6.37-1.05
	c0.09,0.55,0.18,1.11,0.26,1.68C807.57-254.84,805.96-252.29,802.73-256.29z M931.46-195.43c4.65-3.13,6.47-1.64,7.62,2.1
	C937-193.9,934.92-194.47,931.46-195.43z"/>
<path d="M70.08,318.58c1.87-2.17,3.54-4.1,5.12-5.92c-0.24-0.83-0.96-1.29-1.82-1.64c-1.33,2.22-2.83,4.3-4.42,6.19
	C69.33,317.67,69.7,318.12,70.08,318.58z"/>
<path d="M271.22,0c-4.9,4-12.05,0.29-15.07,6.9c-1.81-0.84-3.26-1.51-3.58-1.66c-1.84,2.16-3.29,3.83-4.69,5.51
	c-2.48,2.17-4.8,3.81-7.5,4.94V5.2c-2.59,1.81-4.48,2.46-5.11,3.7c-2.22,4.36-4.02,8.92-6.35,14.26c-1.79-4.15,0.79-8.08-2.3-10.96
	c-5.91,4.53-9.24,10.02-10.89,16.77c-0.28,1.16-0.68,2.26-1.17,3.29c-3.62,4.3-7.62,7.08-11.42,3.95c-1.95-1.6-2.95-7.24-4.52-8.59
	c5.96-3.2,11.91-5.71,14.27-12.63c-6.82-1.21-12.69,2.92-16.44,11.47c-1.31-0.28-2.5,0.39-3.23,2.91c-0.59,2.04,1.21,2.06,1.34,3.25
	c0.43,3.78,0.74,7.26,1.25,10.71c-0.65,1.7-1.34,3.18-1.69,4.08c1.54,4.41,2.73,7.81,4.06,11.61c-3.15-0.56-5.48-0.97-7.56-1.33
	c0.45-2.41,1.49-4.48,1.03-6.16c-1.94-7.04-3.8-13.99-1.12-21.23c0.58-1.57,1.05-3.17,1.57-4.76c1.96-6.03,0.91-8.68-5.75-13.11
	c-0.63,5.07-1.41,9.72-1.71,14.4c-0.22,3.37,0.39,6.41-1.44,9.98c-2.8,5.46-4.25,11.77-5.08,17.87c-0.57,4.16-2.07,6.95-5.23,9.22
	c-5.73-3.89-8.43-8.01-5.6-14.85c1.84-4.46-1.58-9.75-6.01-12.12c-0.95,2.91-1.91,5.82-2.86,8.74c-0.92,2.81-1.83,5.61-2.82,8.66
	c-4.36-3.56-6.32,2.57-10.2,2.76c-4.71,0.23-8.02,2.72-9.06,8.01c7.42,0.37,15.19-1.63,19.72,4.42c3.34-1.33,6.57-3.09,10.05-3.86
	c3.5-0.77,8.54,2.65,8.32,5.74c-0.34,4.71-1.42,9.43-2.87,13.95c-0.42,1.32-3.2,2.8-4.85,2.74c-7.31-0.23-10.94,4.53-14.75,9.17
	c-1.07,1.31-1.94,2.77-3.38,4.85c-0.69-7.29,0.54-12.56,6.81-15.62c0.18-0.09,0.24-0.41,0.36-0.63c-0.03,0-0.05,0-0.08-0.01
	c2.91-4.41,7.14-8.24,7.54-15.5c-4.1,1.97-7.96,2.78-9.99,5.07c-1.3,1.48-2.21,3.29-3.54,5.05c-1.74,0.06-3.42,0.44-4.8,1.22v-13.2
	c-7.87,6.87-10.14,15.47-7.26,23.48c-0.6,1.39-0.76,2.74,0.03,3.98c0.42,0.67,1.84,1.03,2.81,1.5c0.68,0.98,1.45,1.95,2.29,2.89
	c-0.41,2.92-0.79,5.7-1.17,8.48c4.96,0.68,4.96,0.68,3.92,6.06c-2.91-1.57-5.63-3.05-8.38-4.53c3.35-5.15,3.35-5.15,0.86-9.25
	c-1.38,1.14-2.72,2.25-4.89,4.05c-1.67-5.67-3.07-10.4-4.51-15.28c-4,0.09-5.9-3.07-7.94-6.09c-3.46-5.16-8.99-5.49-14.64-6.49
	c3.23,13.62,14.41,20.64,22.74,28.91c-0.42,4.83-3.85,3.45-6.21,3.98c0.14,0.19,0.41,0.39,0.39,0.56c-0.02,0.19-0.28,0.4-0.49,0.51
	c-1.9,1.02-3.31,0.89-5.3-0.53c-5.62-4.02-11.88-5.16-18.98-2.03c0.29,1.33,0.14,3.38,0.92,3.78c5.14,2.68,10.45,5.08,15.77,7.43
	c2.82,1.25,5.78,2.22,8.69,3.32c-0.47,1-0.51,1.29-0.63,1.33c-5.04,1.34-9.81,2.78-7.71,9.54c0.28,0.92-0.57,2.28-1.15,3.3
	c-2.5,4.34-1.73,8.39,0.67,12.76c4.73-4.49,8.98-8.71,13.48-12.66c0.27-0.24,0.61-0.41,0.98-0.54c1.08,2.81,2.33,5.67,4.47,7.42
	c0.28,0.81,0.57,1.62,0.82,2.44c3.06,10.03,3.61,20.27,3.54,30.7c-0.04,6.06,0.98,12.5,3.23,18.14c6.35,15.89,4.31,30.6-4.42,45.09
	c-1.29-0.75-2.31-1.34-3.36-1.96c-3.56,4.14-3.62,9.22-4.29,14.41c-0.75-0.69-1.36-2.38-2.96-2.48c-3.93-0.27-5.82-13.59-5.82-13.59
	c3.36-11.95,3.21-23.98,1.39-37.92c-2.11,2.96-3.37,4.57-4.45,6.28c-4.84,7.71-5.25,16.1-3.59,24.62c0.62,3.2,2.18,6.28,3.63,9.27
	c0.11,0.22,0.43,0.35,0.84,0.44c0.18,5.27,0.86,10.32,3.03,14.18c-3.18-1.07-6.53-1.65-10.24-2.02c-0.42,1.1-0.89,2.19-1.39,3.27
	c1.51,2.77,2.81,5.19,4.46,7.35c4.13,5.42,4.29,7.19-0.28,12.35c-1.37,1.54-2.85,2.99-4.61,4.83c-1.08-5.66-5.01-8.27-8.97-10.93
	c-1.11,1.1-2.3,2.14-3.54,3.12c0.03,5.42,0.15,10.85,0.18,16.27c0.01,2.05-0.24,4.1-0.34,5.72c-3.03-0.41-5.02-0.91-7-0.89
	c-3.71,0.04-7.12-0.15-9.42-2.69c-0.28,5.24-1.78,10.67-4.1,15.72c1.26,0.48,2.59-0.16,4.08-0.9c2.13-1.05,4.5-1.65,7.1-1.84
	c0.01,0.01,0.02,0.03,0.03,0.04c-2.75,3.87-10.99,2.54-9.41,10.31c2.55-1.52,3.16-6.75,8.39-3.42c-2.97,6.5-5.91,13.18-9.1,19.74
	c-0.69,1.42-2.28,2.43-3.46,3.63c-3.15-2.64-6.86-4.98-7.36-9.39c-0.14-1.29-0.18-2.59-0.17-3.96c-1.56,1.5-3.24,2.89-5.03,4.16
	c0.94,2.07,1.59,4.4,0.75,7.45c-1.12-2.86-1.82-4.65-2.46-6.28c-0.77,0.5-1.56,0.97-2.37,1.42c-0.35,1.5-0.71,2.99-1.06,4.49
	c-0.88-0.52-1.91-1.38-3-2.45c-2.35,1.05-4.77,1.92-7.24,2.58c2.88,3.91,6.52,7.59,8.2,11.95c2.75,7.13,4.11,14.75,6.2,22.12
	c1.55,5.48,3.09,10.98,5.04,16.34c3.23,8.87,8.84,16.79,14.88,23.74c3.82,4.39,6.29,9.48,8.89,14.46c0.84-0.67,1.7-1.33,2.58-1.96
	c-5.1-7.59-7.47-16.91-7.88-25.97c-0.42-9.38,3.54-19.86,9.36-27.73c0.31-0.84,0.64-1.67,0.99-2.5c-2.12-6.34-0.59-12.39,4.33-17.99
	c1.86-2.11,2.88-4.93,4.16-7.47c1.52-3.02-0.47-4.3-4.14-6.22c-0.14,0.25-0.28,0.5-0.42,0.75c0.05-0.71,0.13-1.45,0.33-2.23
	c1.53-5.75,4.91-11.3,7.38-16.65c1.34-2.9,2.39-5.24,2.87-7.16c4.2,2.33,7.91,4.39,12.23,6.78c-0.83,5.28-6.67,11.59-0.88,18.44
	c2.39-1.94,4.55-3.78,6.8-5.51c2.49-1.92,5.06-3.75,7.24-5.36c2.67,2.38,4.52,5.16,7.08,6.06c3.21,1.13,5.38,2.75,6.56,5.17
	c-0.76,1.38-1.61,2.68-2.51,3.94c0.15,0.03,0.31,0.05,0.46,0.09c4.54-3.96,10.01-7.06,15.83-9.04c0.38-2.19,0.95-4.38,1.68-6.53
	c-0.54-3.56,3.24-7.81-1.78-11.34c-1.13,6.49,1.43,13.29-5.34,17.78c-3.14-8.25-3.35-16.48-2.15-26.17c1.1,2.39,1.71,3.72,2.33,5.06
	c2.07-0.62,4.23-1.26,6.59-1.97c-0.29-2-0.58-3.95-0.87-5.89c-0.01-0.01-0.01-0.02-0.02-0.04c3.53-1.43,7.25-2.66,9.12-6.25
	c-2.07-4.61-6.53-4.37-11.87-5.11c3.97-3.88,6.31-8.06,7.82-12.48c-0.09-0.09-0.19-0.17-0.29-0.25c-3.02-2.77-5.45-6-7.39-9.51
	c-0.9,2.12-1.6,4.33-2.09,6.53c-1.12,5.03-1.61,10.27-1.59,15.42c0.01,4.51-1.93,7.23-5.94,9.01c-0.87,0.38-2.22,0.6-2.5,1.24
	c-2.87,6.45-9.29,5-14.75,6.85c1.65-4.99,3.08-9.32,4.89-14.8c4.67-1.84,10.53-4.14,17.42-6.85c-2-1.47-3.38-3.33-4.95-3.49
	c-6.4-0.67-8.14-6.42-9.04-10.02c-1.81-7.22-0.13-14.72,5.41-20.85c2.14-2.36,4.5-4.15,7.1-5.42c-0.01-0.21-0.03-0.42-0.04-0.63
	c-0.16-3.49,0.3-7.14,1.23-10.74c-1.43-5.41,0.77-10.16,2.47-15.05c1.01-2.9,1.85-5.96,2.07-8.99c0.8-10.77,1.16-21.58,2.02-32.35
	c0.24-3.02,1.26-6.12,2.57-8.91c4.29-9.12,6.18-19.2,12.13-27.66c0.8-1.14,0.73-2.79,1.34-4.09c1.52-3.27,2.59-7.07,8.05-5.08
	c1.33,0.49,3.37-0.8,5.36-1.35c-1.21-6.91,5.76-6.36,9.32-9.01c3.39,2.12,2.41,4,0.23,5.83c0.62,0.62,1.19,1.27,1.77,1.91
	c2-1.62,4.16-3.07,6.44-4.35c0.24-0.37,0.48-0.75,0.73-1.12c1.36-3.14,3.04-6.13,4.94-8.86c-3.37-0.43-5.66-2.04-7.42-4.77
	c2.72-1.25,6.55-1.02,6.1-5.63c-1.11-0.17-2.28-0.52-3.42-0.46c-1.22,0.06-2.42,0.52-3.63,0.81c-0.13-0.42-0.25-0.84-0.38-1.26
	c2.9-0.92,5.81-1.84,8.7-2.76c1.59,2.02,2.87,3.65,4.19,5.32c2.57-0.93,4.85-1.76,7.84-2.85c0.55-0.36,1.11-0.71,1.67-1.04
	c-2.56-1.76-4.31-3.01-6.11-4.15c-2.01-1.27-4.1-2.42-5.64-3.32c-5.53,3.13-11.05,6.25-16.57,9.38c0.9-2.23,1.82-4.43,2.66-6.45
	c-4.01-0.7-2.79-2.94-1.88-5.51c2.94,1.24,5.13,2.03,7.43-0.92c3.91-5.02,10.14-7.69,16.08-8.27c6.88-0.67,12.31-3.83,18.72-5.49
	c-2.63-3.91-2.63-3.91-7.57-5.03c0.09-1.09,0.19-2.18,0.34-3.96c-4.66,3.08-8.87,5.66-12.83,8.54c-4.91,3.57-4.83,3.68-10.54,0.69
	c0.62-4.31,1.24-8.55,1.89-13.1c3.88-1.26,8.03-2.6,13.07-4.24c0.53-1.89,1.25-4.48,1.98-7.08c-0.38-0.17-0.76-0.33-1.14-0.5
	c-1.18,1.41-2.36,2.83-3.5,4.2c-1.91-0.61-3.53-1.38-5.22-1.61c-4.63-0.62-4.64-0.52-6.49-5.79c1.76,1.3,2.99,2.21,4.58,3.38
	c1.09-1.52,1.97-2.75,3.11-4.34c-2.79-1.32-5.09-2.4-8.29-3.91c0.86-0.83,1.88-1.43,3.24-2.32c2-1.07,3.83-2.09,5.44-3.36
	c0.92-0.73,1.77-1.54,2.64-2.42c1.62-0.97,3.11-1.38,4.7-1.75c-0.41,1.98-0.78,3.75-1.21,5.81c2.19-1.78,3.54-2.87,5.43-4.4
	c1.25,4.4,1.92,8.12,3.39,11.53c1.83,4.26,6.51,7.17,6.42,12.71c1.9-2.86,2.64-5.9,4.25-8.42c1.7-2.66,4.22-4.84,6.27-7.1
	c-2.03-3.87-3.76-0.14-5.7-0.21c-1.98-3.16-3.96-6.33-6.48-10.36c7.88,0.23,14.33-1.02,19.89-5.56c-2.99-3.09-6.33-3.95-9.91-3.38
	c-3.29,0.52-6.47,1.63-9.38,2.4v-2.45c2.3-1.95,5.04-2.37,7.5-3.87c5.76,0.13,11.92-1.7,16.5-5.52C267.43,8.83,272.35,6.77,271.22,0
	z M86.59,346.17c-0.53,3.69,0.15,6.79-0.45,10.92c-1.28-0.24-5.14-3.03-6.22-3.24C78.05,348.67,84.66,349.67,86.59,346.17z
	 M78.89,358.66c2.42-0.37,4.31-0.66,6.19-0.95c1.39,2.27,2.8,4.56,4.88,7.96C84.89,364.05,81.59,362.39,78.89,358.66z
	 M102.61,303.31c-1.77,1.02-3.82,1.68-2.15,4.26c0.21,0.32,0.22,1.02,0,1.31c-6.88,9.09-8.85,19.89-11.61,31.43
	c-3.23-1.77-5.62-3.07-8.27-4.52c0.43-0.72,0.79-2.1,1.42-2.23c8.04-1.65,7.44-8.52,9.38-13.89c1.17-3.25,2.97-6.34,3.68-9.67
	c0.19-0.9,3.89-3.74-0.75-4.26c0.77-1.41,1.19-3.58,2.37-4.07c1.78-0.73,3.78-0.95,6.3-1.29c0.35,0.75,0.49,1.5,0.47,2.25
	C103.17,302.91,102.91,303.14,102.61,303.31z M106.91,295.89c-0.55-0.15-1.11-0.3-1.66-0.46c0.97-2.01,1.94-4.03,2.92-6.05
	C107.75,291.55,107.33,293.72,106.91,295.89z M104.27,289.31v-9.85c4.54,2.2,3.2,6.4,3.91,9.84
	C106.66,289.31,105.14,289.31,104.27,289.31z M166.56,291.89c-2.06,1.98-3.49,3.35-4.93,4.72
	C159.38,292.26,159.64,291.96,166.56,291.89z M147.48,306.98c0.24-2.43,0.48-4.93,0.72-7.45c2.14,3.58,1.84,11.91-0.56,16.06
	c3.8,4.04,4.75,5.49,3.68,8.79c-1.29,1.15-1.83,1.54-3.97,0.8c-3.11-3.06-6.22-6.12-9.57-9.42
	C140.47,308.25,140.47,308.25,147.48,306.98z M133.62,266.08c-0.59-2.67-1.18-5.33-2.1-9.5
	C138.74,259.47,134.98,263.03,133.62,266.08z M183.98,49.71c1.07,6.36,1.21,12.62-2.5,18.47C181.56,61.95,180.88,55.63,183.98,49.71
	z M158.83,102.08c2.62-1.26,5.37-2.27,8.11-3.41c-0.53,11.9-2.25,14.67-13.02,16.74c-1.25-2.98-3.63-6.02-3.48-8.94
	C150.67,102,155.91,103.47,158.83,102.08z M123.62,118.32c3.52-2.47,6.38-4.49,9.28-6.52c1.29,1.95,2.44,3.69,3.03,4.58
	C132.69,114.62,129.5,121.19,123.62,118.32z M139.99,144.69l-0.36,0.06c-0.06-2.12-1.85-2.2-2.65-3.55c-0.97-1.64-1.12-2.91-2-4.54
	c-0.6-1.1-1.04-2.1-1.45-2.95c0.45-1.11,0.93-2.2,1.62-3.16c1.82-2.5,4.09-4.7,6.62-7.54c1.3,2.34,2.44,4.4,3.26,5.88
	C143.24,134.51,141.61,139.6,139.99,144.69z M149.9,195.64c-4.12-3.28-5.06-6.66-5.18-10.72c-0.15-5.23-0.64-10.53-1.78-15.63
	c-1.78-7.99,0.22-15.72,1-23.52c0.37-3.74,2.11-7.34,2.96-11.06c0.95-4.12,3.44-6.67,7.6-7.82c2.1-0.58,4.2-1.15,6.88-1.89
	C159.15,148.88,154.84,172.04,149.9,195.64z M176.84,122.37c-3.19,8.5-7.4,16.69-13.5,22.49c1.48-7.9,2.8-14.32,3.84-20.79
	c0.34-2.12,1.32-3.06,3.22-4.14c2.22-1.26,3.86-3.47,5.74-5.3C177.58,117.06,178,119.28,176.84,122.37z M202.27,75.57
	c-2.07-0.47-4.82-2.01-6.08-1.26c-5.98,3.56-9.96,8.85-11.64,16.04c2.22-0.97,4.43-1.93,7.06-3.08c0,1.58,0.55,3.27-0.09,4.29
	c-5.62,9.1-4.17,20.21-9.93,29.51c-0.21-4.56-0.42-9.13-0.63-13.69c-0.29-0.02-0.57-0.03-0.86-0.05c-0.17,1.49-0.32,2.99-0.51,4.48
	c-0.27,2.04-1.41,3-3.61,2.55c-1.65-1.55-3.28-3.07-5.03-4.71c0-2.63-0.43-5.79,0.13-8.77c0.46-2.46,1.94-4.8,3.33-6.98
	c0.32-0.5,1.96-0.22,3.07-0.25c0.2-0.67,0.59-1.4,0.38-1.89c-3.58-8.12,0.76-15,3.65-22.11c0.16-0.4-0.01-0.93-0.03-1.4v-0.03
	c4.34-3.27,8.44-0.99,12.49,0.71c2.62,1.1,5,3.22,8.7,0.36c0.47,2.35,0.86,4.3,1.31,6.57C202.95,75.69,202.6,75.65,202.27,75.57z"/>
<path d="M138.53,342.45c-1.25,1.4-2.5,2.79-3.71,4.23c0.32,0.04,0.64,0.1,0.96,0.15C136.63,345.3,137.55,343.84,138.53,342.45z"/>
<path d="M104.8,353.69c-0.22-0.19-0.44-0.38-0.67-0.58c0.02-0.13,0.04-0.25,0.06-0.38c1.29-0.23,2.28-0.42,3.27-0.59
	c0.39-0.21,0.78-0.41,1.18-0.61c-0.24-1.33-0.44-2.41-0.63-3.47c3.89-0.84,4.82-3.39,4.7-7.16c-2.37,0.3-4.34,1-6.11,0.69
	c-4.4-0.79-4.31,1.95-4.21,4.58c0.03,0.81,0.46,1.61,0.87,2.41c-0.08,0.19-0.16,0.39-0.23,0.58c-0.4-0.21-0.82-0.42-1.26-0.64
	c-0.7,2.29-0.65,5.28-2.14,6.39c-1.7,1.26-1.81,2.69-1.73,4.11C99.99,357.04,102.31,355.25,104.8,353.69z"/>
<path d="M1254.51-77.05c0.28-0.23,0.6-0.47,0.98-0.72c0,0,0,0,0,0.01C1255.14-77.54,1254.82-77.3,1254.51-77.05z"/>
<path d="M1275.78,151.08c0.25,0.25,0.49,0.5,0.7,0.72C1276.25,151.56,1276.02,151.32,1275.78,151.08z"/>
</svg>
