<?xml version="1.0" encoding="utf-8"?>
<!-- Generator: Adobe Illustrator 23.0.1, SVG Export Plug-In . SVG Version: 6.00 Build 0)  -->
<svg version="1.1" id="Calque_1" xmlns="http://www.w3.org/2000/svg" xmlns:xlink="http://www.w3.org/1999/xlink" x="0px" y="0px"
	 viewBox="0 0 320.2 420.28" style="enable-background:new 0 0 320.2 420.28;" xml:space="preserve">
<path d="M974.78-243.79c3.99-3.39-1.33-5.14-1.78-7.76c2.93,0.11,4.17,0.24,5.43,2.12c0-0.02,0-0.05,0-0.07
	c-0.1-2.26,0.06-4.58,0.43-6.91c-1.05-1.33-2.22-2.61-3.56-3.79c-2.1-1.85-4.13-4.75-4.38-7.33c-0.57-5.85-4.69-9.79-7.46-14.29
	c-4.08-6.63-9.25-12.66-14.22-18.75c-1.31-1.61-3.46-3.43-5.38-3.6c-6.36-0.58-10.34-7.71-17.57-5.64c-0.49,0.14-1.42-1.2-2.16-1.83
	c-0.67-0.57-1.33-1.55-2.06-1.61c-8.47-0.65-16.96-1.16-25.7-1.73c-3.97-2.41-8.15-6.38-13.08-7.61c-7.8-1.95-15.59-4.81-23.65-5.08
	c-4.12-0.14-9.35-2.02-12.82,2.49c-0.35,0.46-1.29,0.87-1.84,0.76c-7.9-1.58-15.35,0.7-22.83,2.47c-2.53,0.6-4.83,2.29-7.36,2.68
	c-2.32,0.36-4.83-0.5-7.25-0.52c-1.04-0.01-2.09,0.74-3.98,1.47c1.9,1.15,2.97,1.8,4.83,2.93c-2.5,0.56-5.38,0.48-5.8,1.41
	c-2.36,5.3-12.32,2.37-11.92,10.32c0,0.07-0.45,0.14-0.68,0.25c-4.41,2.09-9.44,3.27-10.94,8.98c-0.38,1.44-3.32,2.25-5.22,3.44
	c3.84,4.15,5.43-2.48,8.9-0.99c-0.93,2.4-1.74,4.48-2.76,7.09c2.7-1.12,4.75-1.96,6.82-2.82c1.62,2.91-3.11,6.3,2.35,8.1
	c1.68-3,4.6-4.21,8.35-3.74c2.72,0.34,5.35-1.48,8.3,1.31c1.54,1.46,5.91-0.03,8.96,0.23c2.02,0.17,3.98,1.09,6.99,1.98
	c-3.59,2.3-6.28,4.01-9.26,5.92c0.89,1.06,1.64,1.95,2.42,2.89c2.9-1.71,5.54-3.28,9.21-5.44c-0.33,3.03-0.54,4.91-0.79,7.2
	c-1.47-1.04-2.21-1.56-2.69-1.89c-1.65,3.18-3.21,6.18-4.56,8.76c-8.97,1.72-16.27-0.79-22.86-5.18c-1.35,1.46-2.33,2.53-3.74,4.07
	v-6.81c-3.36,4.29-6.87,5.53-10.76,5.75c-1.83,0.1-3.9-0.8-5.51-0.27c-6.2,2.03-12.52,3.98-18.29,6.89
	c-4.49,2.26-8.23,5.9-12.29,8.94c-2.1,1.57-4.43,2.95-6.22,4.8c-2.37,2.45-3.93,5.73-6.55,7.82c-3.28,2.62-4,6.84-3.6,9.33
	c0.79,4.89-0.96,5.9-5.09,6.55c-0.96,0.15-1.63,1.96-2.59,3.21c1.89,0.63,3.24,1.09,5.4,1.81c-1.29,5.82-2.56,11.54-3.98,17.93
	c2.16-0.93,3.46-1.49,5.03-2.17c-0.89,4.16-1.64,7.62-2.38,11.09c2.86-1.18,5.1-4.8,5.97-4.52c5.8,1.88,5.8-2.55,7.5-5.38
	c0.48-0.8,2.22-1.81,2.72-1.55c3.16,1.67,4.64-0.83,6.3-2.27c1.67-1.45,3.07-2.91,6.16-2.64c-0.91,2.46-1.61,4.37-2.45,6.64
	c1.62,0.14,3.03,0.27,3.85,0.34c1.39-4.5,2.62-8.51,4.19-13.59c1.25,2.35,1.8,3.37,2.64,4.95c5.23-5.87,9.17-12.67,16.75-16.55
	c0.55,3.95-1.4,5.83-4.1,7.42c-2.84,1.67-4.84,3.8-3.34,7.7c1.98-1.15,3.57-2.07,6.19-3.59c-1.11,4.94-2.84,7.75-6.58,9.41
	c-0.8,0.35-1.01,1.91-1.67,3.28c2.07-0.5,3.51-0.85,6.72-1.63c-2.67,4.17-4.22,7.17-6.34,9.71c-1.7,2.04-2.66,3.93-1.79,6.42
	c1.54-1.61,3.03-3.29,4.66-4.82c1.83-1.71,3.8-3.29,5.71-4.93c1.32,3.7,4.52,5.32,9.76,6c-3.08,2.14-4.87,3.38-6.65,4.62
	c3.4,0.03,6.51-0.91,9.69-1.41c4.43-0.7,9.3-0.43,13.3-1.49c4.15-1.1,7.04,0.42,10.19,1.29c1.22,0.34,1.33,1.63,3.05,0.17
	c1.72-1.45,4.37-1.87,6.55-2.71c0.16,1.24,0.3,2.34,0.45,3.44c1.13-0.15,2.55,0.05,3.31-0.54c1.25-0.96,2.07-2.44,3.65-4.41
	c0.78,2.38,1.31,4,1.94,5.93c1.7-0.38,3.43-0.76,6.26-1.38c-2.31,2.82-3.94,4.8-5.86,7.14c1.32,1.51,2.6,2.97,4.27,4.88
	c1.1-2.91,1.78-4.73,2.47-6.55c1.02,2.89,2.63,5.11,0.01,8.03c-1.85,2.06-1.5,5.93-2.13,8.99c0.45,0.16,0.91,0.33,1.36,0.49
	c1.33-2.08,2.67-4.16,4.07-6.35c0.82,0.14,1.59,0.5,2.2,0.33c3.81-1.04,8.72-1.17,11.08-3.57c3.1-3.17,7.48,2.82,9.17-2.21
	c7.1,0.84,11.3-3.25,15.26-8.02c1.17-1.41,3.38-3.16,4.84-2.96c2.17,0.3,3.15-0.1,4.1-1.71c2.83-4.85,7.35-5.4,12.21-3.84
	c2.92,0.94,4.46,0.27,5.59-2.24c0.24-0.53,0.74-0.96,1.23-1.57c1.8,1.24,3.35,2.31,4.74,3.27c2.75-0.81,4.48-4.35,7.53-1.56
	c1.33-3.04,6.32,1.87,6.85-2.9c1.38,0.18,2.89,0.09,4.13,0.6c2.93,1.21,5.7,3.72,8.61,3.84c0.9,0.04,1.69,0.18,2.42,0.4
	c0.55-0.62,1.1-1.22,1.67-1.79c1.27-1.27,2.65-2.46,4.1-3.58c-1.18-1.55-2.36-3.09-3.57-4.67c2.67-0.85,4.94-1.45,7.28,0.94
	c0.24,0.24,0.45,0.48,0.67,0.73c2.05-1.23,4.19-2.33,6.41-3.25c-0.4-0.72-0.79-1.45-1.18-2.2c2.95-3.99,6.73-5.38,10.69-6.46
	c2.31-0.63,4.51-0.62,6.33-0.1c-0.24-1.82-0.41-3.64-0.5-5.46c-0.2-4.37,0.56-8.97,2.01-13.44c-0.71-1.39-1.38-2.83-2.02-4.28
	c1.2,0.28,2.24,0.67,3.17,1.13c0.68-1.7,1.45-3.37,2.31-4.98c-0.9-1.04-1.79-2.08-2.6-3.19
	C975.49-241.73,974.51-243.57,974.78-243.79z M779.83-194.82c-0.66,0.48-1.36,1.08-2.12,1.19c-0.57,0.08-1.23-0.37-1.89-0.66
	c0.5-0.44,0.95-0.97,1.53-1.25c0.57-0.27,1.29-0.37,1.93-0.32C779.5-195.84,779.89-194.87,779.83-194.82z M777.44-227.17
	c0.34-0.72,0.6-1.48,1.03-2.15c0.43-0.68,1.02-1.28,1.99-2.45C781.74-228.19,779.22-227.94,777.44-227.17z M785.6-234.26
	c-0.58-0.98-1.16-1.96-1.67-2.98c-0.02-0.03,2.47-3.07,2.49-3.05c0.67,0.97,1.22,1.85,1.83,2.84
	C787.8-237.23,786.05-234.47,785.6-234.26z M792.08-243.28c-0.39-0.34-1.08-2.41-1.47-2.75c1.54-4.39,5.32-6.79,9.45-8.73
	c0.52-0.25,1.78,0.96,2.58,1.44C798.74-250.33,795.56-245.94,792.08-243.28z M802.73-256.29c2.69-0.44,4.53-0.75,6.37-1.05
	c0.09,0.55,0.18,1.11,0.26,1.68C807.57-254.84,805.96-252.29,802.73-256.29z M931.46-195.43c4.65-3.13,6.47-1.64,7.62,2.1
	C937-193.9,934.92-194.47,931.46-195.43z"/>
<path d="M227.72,97.81c-1.26-0.86-2.31-1.6-3.28-2.26c-1.29,1.8-2.68,3.46-4.15,4.96C222.51,99.71,224.74,98.9,227.72,97.81z"/>
<path d="M286.56,104.13c-4.71-0.73-8.33-0.75-12.73,2.72c-1.31-2.4-2.44-4.5-3.55-6.54c1.15-0.78,2.15-1.57,2.74-1.93
	c1.02-0.63,2.16-0.99,3.4-1.17c1.79,0.43,3.44,0.83,5.2,1.26c0.09-0.41,0.19-0.81,0.28-1.22c1.42,0.15,2.89,0.35,4.36,0.52
	c2.97,0.97,5.87,2.4,8.22,0.04c1.24-0.24,2.43-0.64,3.54-1.28c-1.52-0.81-3.31-1.56-5.16-2.31c-0.55-0.48-1.1-0.96-1.64-1.44
	c-0.22,0.18-0.42,0.35-0.63,0.52c-2.49-1.02-4.97-2.09-7-3.37c0.09-0.41,0.19-0.82,0.29-1.25c-0.35,0.27-0.66,0.54-0.96,0.8
	c-0.08-0.06-0.17-0.11-0.25-0.17c1.83-1.95,4.44-3.35,6.66-5.19c4.98,2.17,9.99,2.74,15.09,2.25c6.17-0.59,11.68-2.76,15.78-7.18
	c-0.25-0.58-0.49-1.15-0.74-1.73c-5.81-0.59-11.81-2.29-17.38-1.44c-4.13,0.63-8.74,1.62-12.38,4.34
	c-5.01,0.21-11.85,7.88-14.76,10.25c0.55,0.26,1.11,0.6,1.64,0.98c-0.03,0.12-0.08,0.23-0.13,0.35c-0.74-0.15-1.55-0.34-2.43-0.46
	c-0.14,1.06-0.26,2.01-0.36,2.82c-3.54,1.6-9.07,2.12-10.33,4.24c-0.56-0.37-1.1-0.96-1.59-1.88c1.83-2.56,3.99-4.96,5.43-7.71
	c3-5.75,6.53-11.7,2.6-18.25c-2.1-3.5-4.99-6.56-7.82-10.2c-2.43,6.43-2.8,6.57-0.74,11.54c1.15,2.78,0.59,4.9-0.19,7.42
	c-1.77,5.67-3.25,11.42-4.98,17.6c-1.71-0.24-4.01-0.56-6.53-0.92c-0.18-1.9-0.42-3.3-0.42-4.7c0-4.48-2.35-7.87-5.8-10.39
	c-1.09-0.79-2.92-0.64-5.01-0.76c-0.29,0.36-0.6,0.71-0.9,1.06c1.38,7.01,2.65,12.96,3.63,18.95c0.46,2.79,0.85,5.78,0.28,8.48
	c-0.88,4.1-2.62,8.03-4.07,12.23c-1.74,0.54-3.82,1.18-6.41,1.98c1.77-6.92-1.27-12.67-4.34-18.33c-1.52-2.8-3.97-2.76-5.57-0.04
	c-0.84,1.41-1.44,3.08-1.64,4.68c-0.7,5.7-1.13,11.43-1.81,17.13c-0.14,1.13-0.95,2.19-1.45,3.29c-1.44-6.63-3.9-13,0.2-19.42
	c-2.86,0.1-5.05-0.47-6.83-1.64c-1.45,0.78-2.95,1.47-4.47,2.1c-1.37,2.36-2.9,4.57-4.56,6.57c2.4,1.89,1.42,3.6-0.56,5.27
	c5.8,5.87,9.81,12.61,11.62,20.97c2.28-3.43,4.29-6.46,7.02-10.56c1.88,4.36,3.18,7.37,4.27,9.89c-3.59,3.18-6.53,5.79-9.82,8.71
	c-1.68-1.82-4.08-3.63-5.43-5.99c-4.56-8.03-6.19-9.34-15.14-8.46c-0.62,1.3-1.3,2.56-2.03,3.79c0.3,2.45,1.54,4.51,4.39,5.98
	c0.66,1.25,1.36,2.58,2.78,5.28c0.27-1.22,0.51-2.26,0.72-3.2c0.12,0.01,0.24,0.04,0.36,0.04c-0.14-1.61,1.45-3.56,2.23-5.04
	c2.35,0.48,3.1,2.86,4.81,4.66c-6.9,4.76-13.53,9.4-16.31,17.13c-0.59,1.65-1.38,3.25-2.14,4.91c-0.33,1.4-0.73,2.79-1.19,4.17
	c0.11,1.14,0.21,2.29,0.26,3.42c0.04,0.88,0.03,1.76-0.01,2.65c7.2-7,14.55-12.92,18.99-22.22c1.39,4.29,2.7,7.55,3.44,10.92
	c0.45,2.07,0.6,4.5-0.09,6.45c-3.11,8.77-5.66,17.89-10.17,25.98c-4.35,7.8-8.92,16.28-16.8,21.28c-7.92,5.02-17.17,7.74-27.26,6.14
	c-0.31-1.11-0.47-2.19-0.51-3.25c-3.91,2.96-8.37,5.33-13.06,6.97c-1.1,2.52-2.39,5.03-3.9,7.53c-1.04-0.6-1.9-1.1-2.74-1.6
	c-1.13,2.26-2.42,4.42-3.84,6.43c-0.55,2.44-0.73,5.01-1.07,7.61c-0.75-0.69-1.36-2.38-2.96-2.48c-0.05,0-0.1-0.02-0.16-0.03
	c-0.2,0.21-0.39,0.42-0.59,0.63c-1.34,1.34-2.8,2.6-4.33,3.77c-1.02,3.76-2.18,7.47-3.54,11.12c-0.18,0.49-0.37,0.98-0.56,1.48
	c0.51,2.02-0.29,3.77-2.53,6.43c-1.88,4.54-3.98,8.99-6.55,13.16c0.04,0.69,0.1,1.38,0.24,2.03c-0.52,0-1.04,0.01-1.54,0.01
	c-0.03,0.04-0.05,0.09-0.08,0.13c-2.76,4.08-5.76,8-8.81,11.88c1.51-0.45,3.2-0.66,5.23-0.93c0.35,0.75,0.49,1.5,0.47,2.25
	c-0.28,0.28-0.54,0.51-0.84,0.68c-1.77,1.02-3.82,1.68-2.15,4.26c0.21,0.32,0.22,1.02,0,1.31c-6.88,9.09-8.85,19.89-11.61,31.43
	c-3.23-1.77-5.62-3.07-8.27-4.52c0.43-0.72,0.79-2.1,1.42-2.23c8.04-1.65,7.44-8.52,9.38-13.89c1.17-3.25,2.97-6.34,3.68-9.67
	c0.19-0.89,3.8-3.68-0.63-4.24c-0.79,1.15-1.57,2.31-2.3,3.5c-0.61,3.54-1.76,6.93-3.46,10.17c-1.86,5.7-5.03,10.64-9.51,14.8
	c-0.18,0.16-0.36,0.31-0.54,0.47c0.25,1.86,0.43,3.72,0.51,5.58c0.16,3.48-0.3,7.1-1.21,10.69c0.16,1.56,0.24,3.14,0.25,4.74
	l-1.64,12.23c-1.91,6.83-5.18,12.87-9.79,18.12c3.31,7.28,8.11,13.87,13.23,19.77c3.82,4.39,6.29,9.48,8.89,14.46
	c0.84-0.67,1.7-1.33,2.58-1.96c-5.1-7.59-7.47-16.91-7.88-25.97c-0.45-10.06,4.13-21.37,10.65-29.39
	c-2.55-6.64-1.1-12.99,4.03-18.82c1.05-1.19,1.83-2.61,2.54-4.07c0.58-1.89,1.29-3.76,2.1-5.58c-0.22-1.6-1.98-2.66-4.62-4.04
	c-0.14,0.25-0.28,0.5-0.42,0.75c0.05-0.71,0.13-1.45,0.33-2.23c1.53-5.75,4.91-11.3,7.38-16.65c1.34-2.9,2.39-5.24,2.87-7.16
	c2.12,1.18,4.12,2.29,6.14,3.41c2.44-6.19,6.15-11.96,10.43-16.24c0.79-0.79,1.63-1.55,2.5-2.28c0.92-1.93,1.95-3.8,3.08-5.58
	c0.71-1.92,1.56-3.79,2.5-5.61c1.67-4.87,4.14-9.56,7.11-13.56c-1.2-6.72,0.62-13.57,5.75-19.24c4.81-5.31,10.69-7.83,18.02-7.82
	c2.38,0,5.03-0.6,7.1-1.71c10.21-5.47,20.54-10.59,33.18-13.23c0.1,2.55,0.83,5.1,0.16,7.24c-1.65,5.2-4.29,10.12-5.87,15.34
	c-0.34,1.11-0.49,2.21-0.47,3.29c1.43,0.46,2.84,0.99,4.22,1.59c0.01-0.12,0.01-0.25,0.02-0.38c8.92-3.02,11.18-11.22,16.01-17.55
	c5.48,2.63,10.66,5.1,16.84,8.07c-0.26-3.03,0.53-6.57-0.95-8.22c-2.74-3.05-4.75-7.22-9.73-8.2c-2.22-0.44-4.17-2.11-6.25-3.22
	c2.38-3.07-3.23-7.54,1.59-10.02c3.56,0.65,7.79,0.21,9.82,2.03c5.02,4.5,11.4,6.19,17.28,8.44c3.21,1.23,2.87,4.07,5.05,5.07
	c5.31,2.45,5.36,2.36,3.82,7.74c2.2,1.71,4.53,3.53,7.35,5.73c1.22-3.31,2.62-5.49,2.76-7.75c0.72-11.41,3.84-12.03-8.09-19.93
	c-6.63-4.38-14-4.81-21.6-5.63c1.29-1.77,2.54-3.48,3.98-5.45c10.14,2.64,20.03,2.2,30.04-1.34c-2.95-9.15-11.61-6.27-17.82-8.21
	c3.33-5.24,4.42-6.72,5.68-6.91c4.47-0.66,3.54-5.78,6.74-7.42c3.17-1.63,6.42-3.13,10.49-5.11c-1.83-1.38-3.37-2.55-4.98-3.77
	c-0.29-3.5-0.59-7.14-0.93-11.3c-7.28,4-7.53,12.47-14.3,15.54c-0.14,0.06-0.19,0.46-0.16,0.68c0.64,6.08-4.22,10.49-5.37,16.08
	c-0.37,1.83-2.2,3.38-4.06,6.05c-0.96-17.19-2.57-20.8-9.69-22.49c-0.39,1.62-0.29,3.58-1.24,4.79c-5.96,7.59-5.02,16.35-5.03,24.98
	c0,0.72,0.08,1.45,0,2.17c-0.44,4.18-1.11,4.44-6.78,2.19c1.9-1.38,3.5-2.55,5.42-3.95c-0.47-1.22-0.84-2.59-1.49-3.8
	c-3.46-6.4-10.58-7.62-17.27-11.01c3.67-8.61,7.38-17.29,11.44-26.81c3.65,5.05,6.68,9.25,10.1,13.99
	c3.98-7.26,6.63-13.86,1.09-21.13c-1.91-2.51-3.26-5.48-1.28-9c1.63,0,3.41-0.32,5,0.05c8.16,1.94,16.45,3.04,24.82,3.56
	c1.06,0.07,3.03-0.51,3.1-0.99c0.18-1.2-0.06-3.07-0.91-3.67c-3.03-2.16-6.38-3.91-10.21-6.17c4.75-2.2,9.12-4.22,14.43-6.68
	c-1.42-1.91-2.39-4.59-3.86-4.88c-2.44-0.48-5.56-0.01-7.75,1.15c-2.66,1.41-4.66,3.96-6.95,6.02c0.3-2.82,1.67-4.94,2.72-7.2
	c1.33-2.87-0.31-5.33-3.75-6.79c-0.86-0.37-1.16-1.96-1.7-2.95c-1.05,0.49-2.27,1.05-3.49,1.62c-0.34-0.28-0.68-0.55-1.02-0.83
	c2.97-6.14,5.95-12.27,9.4-19.39c2.08,2.4,3.78,4.29,5.4,6.25c3.23,3.92,5.81,8.64,9.79,11.62c4.25,3.18,7.25,6.35,6.87,11.86
	c4.99-1.91,5.73-5.09,5.26-9.07c-0.31-2.61-0.06-5.28-0.06-8.3c2.35,1.13,4.03,2.68,5.39,2.45c5.16-0.85,9.71,1,14.5,2.03
	c2.75,0.59,5.79,0.36,8.63,0c1.25-0.16,2.34-1.55,4.77-3.31c-4.34-0.95-7.8-0.71-9.41-2.25
	C297.36,105.64,292.33,105.02,286.56,104.13z M86.59,346.17c-0.53,3.69,0.15,6.79-0.45,10.92c-1.28-0.24-5.14-3.03-6.22-3.24
	C78.05,348.67,84.66,349.67,86.59,346.17z M78.89,358.66c2.42-0.37,4.31-0.66,6.19-0.95c1.39,2.27,2.8,4.56,4.88,7.96
	C84.89,364.05,81.59,362.39,78.89,358.66z M106.91,295.89c-0.55-0.15-1.11-0.3-1.66-0.46c0.97-2.01,1.94-4.03,2.92-6.05
	C107.75,291.55,107.33,293.72,106.91,295.89z M133.62,266.08c-0.59-2.67-1.18-5.33-2.1-9.5
	C138.74,259.47,134.98,263.03,133.62,266.08z M206.05,220.63c2.43-1.42,4.87-2.84,7.54-4.39
	C212.98,220.91,212.65,221.14,206.05,220.63z M217.66,205.58c-5.93,6.4-12.83,11.31-22.63,13.67c3.21-6.09,5.97-11.23,8.64-16.42
	c1.68-3.26,3.24-6.59,5.04-10.25C211.43,196.53,214.44,200.9,217.66,205.58z M211.99,166.05c-1.01-4.08-1.9-7.66-2.78-11.24
	c0.5-0.18,1-0.37,1.51-0.55c0.85,1.23,1.69,2.46,2.54,3.7c1.29-1.9,2.61-3.83,3.93-5.77c0.59,0.39,1.17,0.79,1.76,1.19
	C217.22,157.53,217.84,162.71,211.99,166.05z M232.48,140.5c1.69-1.96,3.37-3.91,5.14-5.97
	C237.84,138.62,237.84,138.62,232.48,140.5z M242.95,123.01c1.07,3.84-2.28,6.97-4.18,7.29c-4.95,0.85-5.81,4.47-7.79,7.48
	c-1.54,2.35-3.05,4.73-4.57,7.09c-0.64-0.35-1.27-0.7-1.91-1.06c2.15-5.22,4.06-10.55,6.58-15.59c0.73-1.45,3.14-2.29,4.95-3.05
	C238.17,124.27,240.49,123.76,242.95,123.01z"/>
<path d="M99.16,355.3c-1.24,1.16-1.33,2.44-1.26,3.71c0.49-0.46,1-0.91,1.51-1.35C99.31,356.87,99.23,356.09,99.16,355.3z"/>
<path d="M1254.51-77.05c0.28-0.23,0.6-0.47,0.98-0.72c0,0,0,0,0,0.01C1255.14-77.54,1254.82-77.3,1254.51-77.05z"/>
<path d="M1275.78,151.08c0.25,0.25,0.49,0.5,0.7,0.72C1276.25,151.56,1276.02,151.32,1275.78,151.08z"/>
</svg>
