<?xml version="1.0" encoding="utf-8"?>
<!-- Generator: Adobe Illustrator 23.0.1, SVG Export Plug-In . SVG Version: 6.00 Build 0)  -->
<svg version="1.1" id="Calque_1" xmlns="http://www.w3.org/2000/svg" xmlns:xlink="http://www.w3.org/1999/xlink" x="0px" y="0px"
	 viewBox="0 0 168 246" style="enable-background:new 0 0 168 246;" xml:space="preserve">
<path d="M-183,39.9c0.9,0.3,1.7,0.7,2.6,1c0.3-0.2,0.6-0.3,1-0.4C-180.6,40.3-181.8,40.1-183,39.9z"/>
<path d="M-661.1,858.7c0,0,0.2,0,0.4,0.1C-660.9,858.7-661.1,858.7-661.1,858.7z"/>
<path d="M-659.8,858.9c0.2,0,0.4,0.1,0.5,0.1C-659.5,859-659.6,859-659.8,858.9z"/>
<path d="M-176.3,1117.8c0.1-0.1,0.2-0.1,0.3-0.2C-176.1,1117.6-176.2,1117.7-176.3,1117.8z"/>
<path d="M-233.7,1296.6c0.1,0,0.3,0.1,0.6,0.2C-233.4,1296.7-233.6,1296.6-233.7,1296.6z"/>
<path d="M834.8-170.8c0.3-0.2,0.6-0.5,1-0.7c0,0,0,0,0,0C835.5-171.3,835.2-171,834.8-170.8z"/>
<path d="M856.1,57.4c0.3,0.3,0.5,0.5,0.7,0.7C856.6,57.8,856.4,57.6,856.1,57.4z"/>
</svg>
