<?xml version="1.0" encoding="utf-8"?>
<!-- Generator: Adobe Illustrator 23.0.1, SVG Export Plug-In . SVG Version: 6.00 Build 0)  -->
<svg version="1.1" id="Calque_1" xmlns="http://www.w3.org/2000/svg" xmlns:xlink="http://www.w3.org/1999/xlink" x="0px" y="0px"
	 viewBox="0 0 119.74 132.69" style="enable-background:new 0 0 119.74 132.69;" xml:space="preserve">
<style type="text/css">
	.st0{fill:#FFFFFF;stroke:#000000;stroke-miterlimit:10;}
</style>
<path class="st0" d="M100,126.92c0.19-2.33,0.61-4.69,1.23-7.03c-2.72,1.28-5.56,2.32-8.46,3.08c0.03,0.39,0.05,0.78,0.07,1.17
	c0.37,2.28,0.61,4.58,0.71,6.86c0,0.06,0,0.12,0,0.17c1.64-0.55,3.31-1.03,4.99-1.4c-0.34-1.53-0.69-3.05-1.03-4.55
	c0.35-0.16,0.69-0.31,1.04-0.47C99.04,125.47,99.51,126.19,100,126.92z"/>
<path d="M98.58,123.73c0.5,0.76,1,1.51,1.51,2.28c0.44-4.1,1.57-8.27,3.24-12.24c-0.15-4.7-0.4-9.37,0.03-12.28
	c-0.51-0.14-1.02-0.28-1.54-0.42c-1.1,2.62-2.21,5.23-3.31,7.85c-0.96-4.72-1.88-9.62-1.76-11.65c0.14-2.33,1.79-5.57,3.77-6.6
	c5.41-2.81,8.43-7.38,11.34-12.06c1.34-2.15,3-5.3,2.27-7.21c-1.45-3.8-3.65-8.35-6.98-10.24c-5.22-2.95-11.6-4.05-17.56-5.71
	c-3.64-1.02-5.55,1.01-6.6,4.14c-2.89,8.63-1.63,17.18,1.79,25.2c1.32,3.1,5.45,5.11,8.27,7.6c0.49,3.75-0.3,10.86-0.17,16.07
	c-1.39-1.68-2.63-3.18-3.76-4.55c-0.45,0.05-0.88,0.1-1.31,0.15c1.89,3.86,3.22,8.02,4.05,12.26c1.74,0.17,3.32,0.33,5.2,0.53
	c-2.11,4.43-5.35,7.98-2.41,12.95c0.2,0.34,0.35,0.59,0.45,0.77c-0.13-0.22-0.29-0.5-0.45-0.77c0.18,0.31,0.34,0.59,0.49,0.85
	c1.2-0.36,2.42-0.67,3.64-0.93c-0.42-1.87-0.83-3.7-1.24-5.52C97.89,124.04,98.23,123.89,98.58,123.73z"/>
<path d="M-183.46,39.38c0.86,0.32,1.72,0.65,2.57,0.97c0.32-0.15,0.64-0.3,0.97-0.44C-181.1,39.75-182.28,39.57-183.46,39.38z"/>
<path d="M-661.64,858.15c0.04,0.01,0.17,0.03,0.4,0.08C-661.44,858.19-661.59,858.16-661.64,858.15z"/>
<path d="M-660.34,858.42c0.21,0.04,0.38,0.08,0.49,0.1C-659.97,858.5-660.14,858.46-660.34,858.42z"/>
<path d="M-176.8,1117.27c0.08-0.06,0.17-0.12,0.28-0.19C-176.62,1117.14-176.71,1117.21-176.8,1117.27z"/>
<path d="M-234.22,1296.09c0.1,0.04,0.28,0.1,0.56,0.2C-233.88,1296.21-234.09,1296.14-234.22,1296.09z"/>
<path d="M834.35-171.26c0.28-0.23,0.6-0.47,0.98-0.72c0,0,0,0,0,0.01C834.98-171.75,834.66-171.51,834.35-171.26z"/>
<path d="M855.62,56.87c0.25,0.25,0.49,0.5,0.7,0.72C856.09,57.35,855.86,57.11,855.62,56.87z"/>
</svg>
