<?xml version="1.0" encoding="utf-8"?>
<!-- Generator: Adobe Illustrator 23.0.1, SVG Export Plug-In . SVG Version: 6.00 Build 0)  -->
<svg version="1.1" id="Calque_1" xmlns="http://www.w3.org/2000/svg" xmlns:xlink="http://www.w3.org/1999/xlink" x="0px" y="0px"
	 viewBox="0 0 119.74 132.69" style="enable-background:new 0 0 119.74 132.69;" xml:space="preserve">
<style type="text/css">
	.st0{fill:#FFFFFF;stroke:#000000;stroke-miterlimit:10;}
</style>
<path class="st0" d="M88.31,131.38c-2.27-2.08-4.21-4.42-5.87-6.95c-0.3,0.01-0.61,0.02-0.91,0.02c-2.23,0-4.42-0.18-6.56-0.51
	c5.29,2.02,10.19,5.01,14.63,8.73c0.04-0.02,0.08-0.03,0.12-0.05C89.25,132.22,88.77,131.81,88.31,131.38z"/>
<path d="M88.31,131.38c-2.02-1.85-3.77-3.92-5.3-6.13c0,0.3-0.01,0.59-0.01,0.91c0.21,0.68,0.42,1.37,0.62,2.05c0,0,0,0-0.01,0
	c-0.25-0.81-0.49-1.61-0.74-2.42c-4.79-4.17-8.5-8.94-9.21-15.36c-1.57-1.65-3.23-3.23-4.67-4.98c-1.78-2.18-3.36-4.51-5.03-6.77
	c-0.16,0.07-0.31,0.14-0.47,0.22c-0.4-1.9-1.21-3.57-2.75-4.31c-0.35-1.09-1.33-1.76-2.23-2.44c0.56,0.1,1.11,0.1,1.75,0.02
	c0.62,0.37,1.24,0.77,1.86,1.18c-1.31-1.63-2.46-3.35-3.48-5.16c-2.3-1.44-4.51-3.05-6.61-4.84c0.04,0.06,0.08,0.12,0.13,0.17
	c-2.98-0.3-5.91-0.28-8.12,0.03c-0.21-0.18-0.38-0.28-0.55-0.28c-4.94-0.16-7.04-3.31-9.45-6.94c-2.76-4.17-6.33-8.01-10.23-11.25
	c-2.41-2-6.29-3.98-9.12-3.56c-4.9,0.74-9.48,4.14-10.9,8.74c-1.72,5.58-6.66,11.3-1.51,17.65c0.52,0.64-0.44,2.26-0.45,3.42
	c-0.06,4.67,2.79,7.66,7.89,8.4c10.71,1.56,20.99-3.61,27.21-13.96h8.13c1.07,0.42,2.14,0.86,3.19,1.32c0.64,3,4.49,2.23,5.71,4.26
	c0.95,1.59,2.45,2.87,4.05,4.21c1.33,3.16,2.97,7.84,5.58,9.07c-3.95,0.3-7.48,0.57-12.32,0.93c3.82,5.09,10.95,5.75,12,11.72
	c0.08,0.45,1.77,0.63,2.7,0.96c3.41,1.25,6.7,2.63,9.53,4.68c-0.37-0.03-0.72-0.05-1.02-0.09c-1.43-0.17-2.92-0.32-4.44-0.45
	c7.19,1.84,13.77,5.45,19.56,10.3c0.04-0.02,0.08-0.03,0.12-0.05C89.25,132.22,88.78,131.81,88.31,131.38z"/>
<path d="M76.77,111.49c-0.98-0.76-1.95-1.54-2.89-2.37c0.06,0.56,0.1,1.12,0.1,1.7c1.09,0.33,2.05,0.69,2.91,1.09
	C76.84,111.77,76.81,111.63,76.77,111.49z"/>
<path d="M-183.46,39.38c0.86,0.32,1.72,0.65,2.57,0.97c0.32-0.15,0.64-0.3,0.97-0.44C-181.1,39.75-182.28,39.57-183.46,39.38z"/>
<path d="M-661.64,858.15c0.04,0.01,0.17,0.03,0.4,0.08C-661.44,858.19-661.59,858.16-661.64,858.15z"/>
<path d="M-660.34,858.42c0.21,0.04,0.38,0.08,0.49,0.1C-659.97,858.5-660.14,858.46-660.34,858.42z"/>
<path d="M-176.8,1117.27c0.08-0.06,0.17-0.12,0.28-0.19C-176.62,1117.14-176.71,1117.21-176.8,1117.27z"/>
<path d="M-234.22,1296.09c0.1,0.04,0.28,0.1,0.56,0.2C-233.88,1296.21-234.09,1296.14-234.22,1296.09z"/>
<path d="M834.35-171.26c0.28-0.23,0.6-0.47,0.98-0.72c0,0,0,0,0,0.01C834.98-171.75,834.66-171.51,834.35-171.26z"/>
<path d="M855.62,56.87c0.25,0.25,0.49,0.5,0.7,0.72C856.09,57.35,855.86,57.11,855.62,56.87z"/>
</svg>
