<?xml version="1.0" encoding="utf-8"?>
<!-- Generator: Adobe Illustrator 23.0.1, SVG Export Plug-In . SVG Version: 6.00 Build 0)  -->
<svg version="1.1" id="Calque_1" xmlns="http://www.w3.org/2000/svg" xmlns:xlink="http://www.w3.org/1999/xlink" x="0px" y="0px"
	 viewBox="0 0 168 246" style="enable-background:new 0 0 168 246;" xml:space="preserve">
<style type="text/css">
	.st0{fill:#FFFFFF;stroke:#000000;stroke-miterlimit:10;}
</style>
<path class="st0" d="M85.8,124.8c-1.3,0.1-2.5,0.2-3.8,0.2c-0.8,0-1.5,0-2.2-0.1c0.1,0.5,0.2,1.1,0.2,1.6c3.6,1.8,6.9,4.1,10.1,6.7
	c0.3-0.1,0.7-0.3,1-0.4C89,130.3,87.2,127.7,85.8,124.8z"/>
<path d="M80.6,105.5c-0.5,0.1-0.9,0.1-1.4,0.2c0-1.1-0.1-2.1-0.4-2.9c-0.4-1.9-1.7-4.7-2.9-6.9c0.3-0.1,0.7-0.3,1-0.4
	c-2.8-13.6-3-27.8-10.6-42.3c-2.8,6.2-1.9,10.7-0.8,15.3c0.3,1.4,0.8,2.7,1.3,4c-1.6-2.9-3.1-5.9-4.3-8.1c-1-1.8-2.7-4.8-3.9-6.1
	c-1.2-1.3-2.9-2.3-4.4-3.3c-0.3-0.8-0.6-1.6-1.1-2.4c-3.1-5.8-8.8-11-7.3-18.5c0-0.2-0.7-0.5-1.4-1c-0.9,0.7-2.4,1.2-2.7,2.1
	c-1.8,6.2-6.8,6.5-12.1,6.5c-4,0-5.6-1.9-3.7-5.2c1-1.9,3.3-3.2,5.1-4.6c0.4-0.3,1.2,0.1,2.4,0.2c-1.1,2.1-1.9,3.8-2.9,5.6
	c4.4,1.7,5.9-1.1,7.9-3.5c-1.2-1.2-2.3-2.4-3.6-3.7c1-1,1.8-1.9,2.7-2.8c3.1,0.9,5.4,4.7,9.4,1.4C48,21.5,46,14,43.3,6.7
	c-3.9-1.6-7.7-3.6-11-6.2c-4.8,3.2-9.1,7.4-13.9,7.9c-7,0.8-8.7,5.8-12.3,9.3s-3.8,7.1-0.6,11c3.2,3.9,7.2,7.3,10.8,10.9
	c7.5,7.4,16.3,7.9,26.6,4.5c2.9,4.3,5.9,8.9,9.1,13.4c0.2,0.3,0.6,0.6,0.9,0.8c1.5,3.1,3.8,5.7,5.7,8.4c2.5,4.9,5.1,11,6.7,16.1
	c0.3,1,0.5,2,0.7,2.9c0,0,0.1,0,0.1-0.1c0.3,1.4,0.6,2.6,0.7,3.7c-2.8-3.4-5.6-6.8-8.2-10c-3.2,0.8-5.6,1.3-8,1.9
	c0.7,0.9,1.3,1.8,2,2.8c-1.1-0.1-2.3-0.2-3.3-0.2c4.1,2.2,7.8,4.9,11.3,8.1c0.7,0.6,1.3,1.2,1.9,1.9c5.4,3.6,10.6,8.7,11.7,14.9
	c0.6,1,1.1,2,1.6,3.1c6.2,2.2,7.9,5.8,7.7,14.9c0.2,0.7,0.4,1.4,0.6,2c0,0,0,0,0,0c-0.3-0.8-0.5-1.6-0.7-2.4
	c-1.5-1.3-2.9-2.7-4.1-4.1c0.3,1.4,0.6,2.9,0.8,4.3c3.6,1.8,6.9,4.1,10.1,6.7c0.3-0.1,0.7-0.3,1-0.4
	C84.6,125.2,81.4,115.3,80.6,105.5z M68.3,92.8c0.5-2.6,0.9-5.2,1.4-7.7l0.1,0.1c1,2.7,2,5.4,3.2,8c0.2,0.4,0.4,0.7,0.7,1
	c0.1,1.1,0.3,2.4,0.6,3.8C71.9,96.4,69.5,95.2,68.3,92.8z"/>
<path d="M-183,39.9c0.9,0.3,1.7,0.7,2.6,1c0.3-0.2,0.6-0.3,1-0.4C-180.6,40.3-181.8,40.1-183,39.9z"/>
<path d="M-661.1,858.7c0,0,0.2,0,0.4,0.1C-660.9,858.7-661.1,858.7-661.1,858.7z"/>
<path d="M-659.8,858.9c0.2,0,0.4,0.1,0.5,0.1C-659.5,859-659.6,859-659.8,858.9z"/>
<path d="M-176.3,1117.8c0.1-0.1,0.2-0.1,0.3-0.2C-176.1,1117.6-176.2,1117.7-176.3,1117.8z"/>
<path d="M-233.7,1296.6c0.1,0,0.3,0.1,0.6,0.2C-233.4,1296.7-233.6,1296.6-233.7,1296.6z"/>
<path d="M834.8-170.8c0.3-0.2,0.6-0.5,1-0.7c0,0,0,0,0,0C835.5-171.3,835.2-171,834.8-170.8z"/>
<path d="M856.1,57.4c0.3,0.3,0.5,0.5,0.7,0.7C856.6,57.8,856.4,57.6,856.1,57.4z"/>
</svg>
