<?xml version="1.0" encoding="utf-8"?>
<!-- Generator: Adobe Illustrator 23.0.1, SVG Export Plug-In . SVG Version: 6.00 Build 0)  -->
<svg version="1.1" id="Calque_1" xmlns="http://www.w3.org/2000/svg" xmlns:xlink="http://www.w3.org/1999/xlink" x="0px" y="0px"
	 viewBox="0 0 610 611" style="enable-background:new 0 0 610 611;" xml:space="preserve">
<style type="text/css">
	.st0{fill:url(#SVGID_1_);}
	.st1{fill:none;}
</style>
<g>
	<radialGradient id="SVGID_1_" cx="305" cy="305" r="305" gradientUnits="userSpaceOnUse">
		<stop  offset="0.6746" style="stop-color:#000000;stop-opacity:0.2"/>
		<stop  offset="0.8889" style="stop-color:#FFFFFF"/>
	</radialGradient>
	<path class="st0" d="M305,0C136.55,0,0,136.55,0,305s136.55,305,305,305s305-136.55,305-305S473.45,0,305,0z M69,306
		C69,175.66,174.66,70,305,70s236,105.66,236,236S435.34,542,305,542S69,436.34,69,306z"/>
	<g>
		<path d="M225.44,540.81c-1.12-1.65-2.79-2.88-5.01-3.69c-2.18-0.8-4.25-0.93-6.22-0.4c-1.97,0.53-3.76,1.58-5.39,3.17
			c-1.72,1.64-3.27,3.65-4.64,6.03c-1.37,2.37-2.64,5.16-3.81,8.36c-0.99,2.71-1.77,5.42-2.32,8.13c-0.55,2.71-0.74,5.24-0.55,7.58
			c0.21,2.35,0.88,4.42,2,6.21c1.12,1.78,2.85,3.1,5.18,3.96c3.98,1.46,7.7,0.67,11.15-2.35c3.45-3.02,6.44-7.99,8.97-14.88
			c1.07-2.93,1.86-5.78,2.36-8.55c0.5-2.77,0.62-5.3,0.36-7.59C227.26,544.44,226.56,542.46,225.44,540.81z"/>
		<path d="M331.55,22.27c-0.88-2.19-2.12-3.98-3.71-5.36s-3.62-2.15-6.1-2.29c-4.23-0.24-7.57,1.59-9.99,5.48
			c-2.43,3.89-3.85,9.51-4.26,16.85c-0.18,3.12-0.1,6.07,0.22,8.86c0.32,2.79,0.94,5.25,1.85,7.37c0.94,2.15,2.18,3.84,3.72,5.1
			c1.55,1.25,3.51,1.94,5.87,2.08c2.32,0.13,4.34-0.34,6.07-1.42c1.73-1.08,3.14-2.61,4.24-4.59c1.17-2.07,2.07-4.44,2.69-7.11
			c0.62-2.67,1.03-5.7,1.22-9.1c0.16-2.88,0.12-5.7-0.14-8.45C332.97,26.93,332.42,24.46,331.55,22.27z"/>
		<polygon points="57.94,442.55 77.19,440.33 70.44,427.68 		"/>
		<path d="M494.92,497.67c-2.48,2.39-3.78,4.89-3.89,7.51s1.19,5.33,3.9,8.15c2.31,2.4,4.67,3.5,7.07,3.31
			c2.41-0.19,4.85-1.48,7.33-3.87l2-1.93l-14.49-15.04L494.92,497.67z"/>
		<polygon points="168.92,79.5 153.3,67.96 156.72,87.04 		"/>
		<path d="M485.62,137.22c1.8,1.94,3.7,3.28,5.72,4c2.01,0.73,4.11,0.87,6.3,0.44c2.16-0.43,4.36-1.33,6.62-2.7
			c2.26-1.37,4.63-3.2,7.1-5.5c2.43-2.24,4.4-4.55,5.92-6.91c1.52-2.36,2.52-4.7,3.01-7c0.49-2.3,0.43-4.56-0.17-6.76
			c-0.6-2.2-1.78-4.25-3.53-6.15c-0.56-0.6-1.2-1.27-1.94-2.02c-0.73-0.74-1.29-1.29-1.65-1.66L485.2,128.7
			c-0.62,0.57-1.09,1.16-1.41,1.76c-0.32,0.6-0.48,1.27-0.48,2s0.17,1.47,0.51,2.23C484.16,135.45,484.76,136.29,485.62,137.22z"/>
		<path d="M100.95,480.96c-2.49-2.93-5.05-4.59-7.7-4.97c-2.65-0.38-5.37,0.62-8.18,3c-2.86,2.43-4.49,4.8-4.9,7.13
			c-0.41,2.33,0.64,4.97,3.14,7.92l1.89,2.23l16.7-14.17L100.95,480.96z"/>
		<path d="M590.92,311.46c-3.91-2.41-9.53-3.81-16.86-4.19c-3.12-0.16-6.07-0.08-8.86,0.26s-5.25,0.96-7.36,1.89
			c-2.14,0.95-3.83,2.19-5.08,3.75c-1.25,1.55-1.93,3.51-2.05,5.88c-0.12,2.32,0.36,4.34,1.45,6.06c1.08,1.72,2.62,3.13,4.61,4.22
			c2.08,1.17,4.45,2.05,7.12,2.66s5.71,1,9.11,1.18c2.88,0.15,5.7,0.09,8.45-0.18c2.75-0.27,5.22-0.84,7.41-1.71
			c2.18-0.9,3.97-2.14,5.34-3.73c1.38-1.6,2.13-3.63,2.26-6.11C596.67,317.2,594.82,313.87,590.92,311.46z"/>
		<path d="M517.44,438.51c-0.84-0.3-1.82-0.15-2.92,0.44c-1.1,0.59-2.08,1.55-2.94,2.86c-1.53,2.33-1.98,4.75-1.36,7.24
			s2.35,4.67,5.2,6.53c2.91,1.9,5.7,2.49,8.38,1.78s5.08-2.69,7.19-5.92c0.24-0.37,0.55-0.88,0.93-1.51
			c0.37-0.64,0.65-1.11,0.82-1.42L517.44,438.51z"/>
		<path d="M534.66,451.94c-2.08,3.18-2.87,6.01-2.37,8.49c0.49,2.48,2.01,4.54,4.54,6.2c2.31,1.51,4.55,2.04,6.69,1.58
			c2.15-0.46,4.07-1.99,5.78-4.6c0.24-0.37,0.55-0.87,0.91-1.49c0.36-0.62,0.67-1.15,0.94-1.59l-15.48-10.12L534.66,451.94z"/>
	</g>
	<path d="M305,1C136.55,1,0,137.55,0,306s136.55,305,305,305s305-136.55,305-305S473.45,1,305,1z M576.38,200.52
		c1.76,1.05,3.41,2.59,4.97,4.61c1.56,2.03,2.79,4.39,3.68,7.08c0.87,2.63,1.32,5.21,1.34,7.74c0.02,2.53-0.11,4.58-0.41,6.14
		l2.68,1.37l0.96,2.9l-16.07,5.61l-0.95-2.87c1.52-1.24,3.04-2.62,4.56-4.12s2.72-2.95,3.59-4.35c0.93-1.52,1.55-3.12,1.85-4.8
		s0.13-3.47-0.5-5.39c-0.79-2.4-2.13-4.14-3.99-5.22c-1.86-1.07-3.8-1.28-5.8-0.62c-1.89,0.63-3.22,1.8-3.99,3.52
		c-0.77,1.72-1.14,4.14-1.13,7.24c-0.01,1.83-0.01,3.69,0,5.59c0.01,1.9-0.02,3.6-0.09,5.1c-0.18,3.64-1.09,6.66-2.73,9.07
		s-4.08,4.15-7.34,5.22c-2.05,0.68-4.19,0.86-6.42,0.53c-2.23-0.32-4.25-1.09-6.06-2.29c-1.99-1.32-3.75-3.02-5.29-5.1
		s-2.81-4.69-3.84-7.8c-0.96-2.89-1.49-5.71-1.59-8.45c-0.11-2.74,0.04-5.14,0.45-7.2l-3.1-1.53l-0.94-2.84l16.98-6.1l0.95,2.87
		c-1.41,1.18-2.86,2.58-4.33,4.17c-1.47,1.6-2.71,3.29-3.7,5.08c-1.04,1.85-1.76,3.77-2.14,5.76c-0.38,1.99-0.2,4.11,0.54,6.36
		c1,3.03,2.51,5.1,4.52,6.22c2.01,1.12,4.15,1.31,6.4,0.57c1.85-0.61,3.17-1.81,3.98-3.59s1.19-4.26,1.16-7.44
		c-0.02-2.07-0.03-3.97-0.03-5.71s0.03-3.39,0.11-4.94c0.22-3.6,1.25-6.57,3.1-8.9c1.85-2.33,4.23-3.97,7.15-4.94
		c1.85-0.61,3.76-0.8,5.73-0.56C572.6,198.77,574.52,199.43,576.38,200.52z M547.42,145.87c-0.06-0.67-0.26-1.54-0.61-2.61
		c-0.34-1.07-0.63-1.87-0.85-2.39l2.38-1.36l22.01,38.36l-11.04,6.33l-1.33-2.32c1.3-1.53,2.38-3.5,3.23-5.91
		c0.85-2.41,1.02-4.41,0.51-6.01c-0.21-0.69-0.61-1.59-1.2-2.69c-0.59-1.11-1.09-2.01-1.5-2.73l-3.6-6.28l-16.68,9.57l2.55,4.45
		c0.64,1.12,1.36,2.06,2.15,2.82c0.79,0.76,1.78,1.31,2.96,1.63c0.74,0.2,1.83,0.2,3.28,0c1.45-0.2,2.66-0.48,3.61-0.84l1.33,2.32
		l-18.05,10.36l-1.33-2.32c0.78-0.61,1.68-1.54,2.68-2.78s1.62-2.22,1.86-2.95c0.35-1.09,0.39-2.17,0.14-3.24
		c-0.25-1.07-0.72-2.21-1.41-3.41l-2.55-4.45l-12.47,7.16c-1.3,0.75-2.28,1.43-2.93,2.07c-0.65,0.63-1.03,1.33-1.13,2.09
		c-0.1,0.73,0.05,1.57,0.44,2.53c0.39,0.95,1.02,2.19,1.89,3.72c0.41,0.71,0.91,1.56,1.5,2.54c0.59,0.98,1.15,1.82,1.69,2.52
		c0.59,0.8,1.2,1.51,1.83,2.13c0.63,0.63,1.24,1.01,1.84,1.15c1.56,0.4,3.71,0.63,6.45,0.68c2.74,0.05,4.73-0.03,5.97-0.22
		l1.28,2.23l-13.95,6.91l-23.29-40.59l2.38-1.36c0.37,0.55,0.89,1.27,1.57,2.18s1.22,1.52,1.62,1.83c0.77,0.59,1.48,0.87,2.13,0.85
		c0.65-0.02,1.36-0.25,2.13-0.7l30.52-17.51c0.73-0.42,1.27-0.88,1.62-1.38C547.4,147.74,547.52,146.95,547.42,145.87z M467.4,118.2
		c0.53,0.53,1.21,1.18,2.07,1.92c0.85,0.75,1.46,1.2,1.84,1.37c0.83,0.38,1.58,0.49,2.24,0.32s1.3-0.53,1.92-1.11l25.96-24.02
		c0.58-0.54,1.01-1.14,1.28-1.8c0.27-0.66,0.24-1.45-0.07-2.38c-0.31-0.92-0.76-1.8-1.33-2.63c-0.57-0.83-1.03-1.45-1.36-1.88
		l2.01-1.86l18.03,19.48c1.93,2.08,3.72,4.56,5.38,7.42c1.66,2.87,2.79,6.07,3.38,9.61c0.61,3.59,0.33,7.2-0.83,10.83
		c-1.16,3.63-3.5,7.07-7.03,10.34c-3.1,2.87-6.36,4.75-9.8,5.64c-3.43,0.9-6.82,1-10.16,0.33c-3.37-0.71-6.63-2.05-9.77-4.01
		c-3.14-1.96-6.04-4.38-8.7-7.25l-17.07-18.45L467.4,118.2z M393.95,67.93c2.26-1,4.81-2.15,7.66-3.42
		c2.85-1.28,5.86-2.65,9.02-4.12c-0.61-3.86-1.26-7.63-1.94-11.32c-0.69-3.69-1.26-6.82-1.73-9.41c-0.23-1.29-0.64-2.66-1.2-4.1
		c-0.57-1.44-1.31-2.63-2.23-3.57c-0.45-0.49-0.98-0.97-1.59-1.44c-0.61-0.47-1.38-0.96-2.31-1.46l1.14-2.5l27.73,12.65l-1.14,2.49
		c-2.19-0.9-3.88-1.43-5.05-1.61c-1.17-0.17-1.89,0.04-2.16,0.64c-0.14,0.3-0.21,0.72-0.21,1.27c-0.01,0.55,0.07,1.45,0.22,2.7
		c0.12,1.09,0.35,2.69,0.68,4.83c0.33,2.13,0.7,4.55,1.12,7.26c6.21-2.96,10.16-4.93,11.86-5.92c1.7-0.99,2.67-1.75,2.91-2.28
		c0.28-0.62,0.2-1.22-0.26-1.8c-0.45-0.58-1.73-1.48-3.82-2.69l1.14-2.5l17.69,8.07l-1.14,2.5c-0.82-0.35-1.52-0.58-2.1-0.69
		s-1.28-0.18-2.08-0.22c-1.59-0.01-3.04,0.22-4.33,0.69c-1.29,0.47-2.74,1.04-4.34,1.73c-2.38,1.03-4.66,2.05-6.86,3.05
		c-2.2,1-4.88,2.22-8.07,3.66c0.81,5.05,1.54,9.31,2.18,12.77c0.64,3.46,1.26,6.71,1.85,9.76c0.19,1.27,0.57,2.63,1.13,4.09
		s1.29,2.64,2.18,3.56c0.42,0.43,0.93,0.87,1.51,1.35c0.58,0.47,1.4,0.99,2.46,1.55l-1.14,2.5l-27.67-12.62l1.14-2.5
		c2.71,1.06,4.53,1.61,5.44,1.65c0.91,0.04,1.48-0.19,1.71-0.71c0.13-0.28,0.19-0.78,0.19-1.52c0-0.73-0.07-1.61-0.2-2.62
		c-0.17-1.6-0.45-3.63-0.84-6.08c-0.39-2.46-0.8-4.99-1.23-7.61c-6.84,3.14-11.25,5.29-13.23,6.44c-1.98,1.16-3.1,2.01-3.35,2.57
		c-0.14,0.3-0.2,0.57-0.2,0.82c0,0.25,0.16,0.56,0.48,0.93c0.22,0.31,0.66,0.7,1.32,1.18c0.66,0.48,1.46,0.99,2.42,1.53l-1.14,2.5
		l-17.63-8.04l1.14-2.5c0.95,0.35,1.72,0.59,2.33,0.71c0.6,0.12,1.22,0.19,1.86,0.19c1.5-0.01,2.93-0.24,4.3-0.69
		S392.39,68.63,393.95,67.93z M351.01,63.14c0.63,0.11,1.55,0.26,2.76,0.47c1.22,0.21,2.08,0.27,2.58,0.2
		c0.93-0.13,1.61-0.44,2.06-0.92c0.44-0.48,0.77-1.15,0.99-2.02l8.49-34.33c0.19-0.77,0.21-1.49,0.06-2.16
		c-0.15-0.66-0.61-1.29-1.39-1.86c-0.49-0.36-1.24-0.8-2.25-1.3c-1.01-0.5-1.89-0.9-2.64-1.18l0.66-2.66l26.86,6.64l-0.66,2.66
		c-0.7-0.1-1.58-0.21-2.63-0.34c-1.05-0.13-1.96-0.17-2.72-0.11c-0.96,0.08-1.67,0.39-2.12,0.94c-0.45,0.55-0.77,1.23-0.97,2.02
		l-8.48,34.3c-0.2,0.82-0.22,1.56-0.06,2.21c0.16,0.66,0.63,1.27,1.41,1.85c0.43,0.32,1.17,0.72,2.22,1.18
		c1.05,0.47,1.95,0.82,2.69,1.05l-0.66,2.66l-26.86-6.64L351.01,63.14z M293.42,36.51c0.23-4.07,1.14-7.72,2.72-10.96
		c1.58-3.23,3.65-5.96,6.22-8.19c2.54-2.18,5.5-3.8,8.88-4.87c3.38-1.06,6.95-1.49,10.69-1.28c3.72,0.21,7.18,1.02,10.38,2.42
		c3.2,1.4,5.92,3.26,8.19,5.57c2.33,2.39,4.13,5.21,5.38,8.47c1.26,3.26,1.77,6.93,1.54,11c-0.21,3.63-1.01,7.04-2.41,10.25
		c-1.4,3.21-3.32,5.93-5.74,8.16c-2.55,2.32-5.49,4.07-8.82,5.26c-3.33,1.18-7.24,1.65-11.73,1.4c-3.63-0.21-7.02-1-10.18-2.37
		c-3.16-1.38-5.91-3.27-8.24-5.68c-2.31-2.36-4.09-5.17-5.33-8.44C293.71,44,293.2,40.42,293.42,36.51z M251.92,16.89l0.46,2.63
		c-2.44,0.73-4.08,1.34-4.91,1.83c-0.83,0.49-1.2,0.99-1.11,1.5c0.04,0.25,0.13,0.52,0.26,0.79c0.13,0.27,0.32,0.64,0.56,1.1
		c1.09,1.9,3,4.99,5.74,9.25c2.74,4.27,6.83,10.79,12.27,19.56c1.34-6.15,2.43-11.34,3.29-15.57c0.86-4.24,1.61-7.98,2.26-11.23
		c0.32-1.58,0.56-3.04,0.72-4.39c0.16-1.35,0.18-2.34,0.07-2.99c-0.13-0.74-0.77-1.26-1.91-1.58s-3.17-0.34-6.08-0.07l-0.48-2.77
		l19.92-3.45l0.48,2.77c-0.75,0.2-1.45,0.47-2.11,0.79c-0.66,0.33-1.32,0.78-1.98,1.34c-0.89,0.75-1.55,1.5-1.98,2.25
		c-0.43,0.75-0.81,1.75-1.14,3c-0.44,1.72-1.04,4.22-1.8,7.5c-0.76,3.28-1.64,7.02-2.62,11.21c-0.87,3.77-1.8,7.89-2.8,12.37
		c-1,4.48-1.95,8.77-2.85,12.88l-6.96,1.21c-4.61-7.36-9.29-14.84-14.06-22.43c-4.77-7.59-8.11-12.87-10.02-15.82
		c-0.73-1.06-1.4-1.85-1.99-2.35c-0.6-0.5-1.5-0.97-2.69-1.41c-0.86-0.3-1.61-0.49-2.24-0.56c-0.63-0.07-1.45-0.09-2.47-0.05
		l-0.47-2.7L251.92,16.89z M105.54,90.1l1.9,1.98c-0.49,0.57-1.06,1.25-1.71,2.05c-0.65,0.8-1.16,1.54-1.54,2.23
		c-0.45,0.85-0.56,1.62-0.34,2.29c0.23,0.68,0.62,1.31,1.19,1.9l22.68,23.7c1.07,1.12,1.99,1.93,2.76,2.42s1.52,0.69,2.25,0.57
		c0.75-0.1,1.56-0.48,2.44-1.14s2.01-1.65,3.4-2.98c1.35-1.3,2.59-2.64,3.72-4.02c1.12-1.38,1.71-2.61,1.75-3.69
		c0.04-1.69-0.24-3.75-0.83-6.19c-0.59-2.43-1.24-4.56-1.95-6.38l1.85-1.77l8.21,9.7c0.42-0.34,0.86-0.71,1.32-1.14
		c0.72-0.68,1.23-1.32,1.52-1.91c0.52-0.98,0.85-2,0.99-3.05c0.14-1.05,0.1-2.17-0.11-3.36c-1.15-7.03-2.3-14.08-3.45-21.13
		c-1.15-7.06-2.42-14.85-3.79-23.36l5.98-3.7c9.85,7.2,17.6,12.9,23.26,17.12c5.66,4.22,10.41,7.68,14.23,10.38
		c0.63,0.44,1.29,0.78,1.99,1.02c0.7,0.24,1.56,0.35,2.56,0.34c0.76-0.03,1.55-0.19,2.39-0.48c0.84-0.3,1.57-0.61,2.19-0.94
		l1.44,2.33l-23.12,14.28l-1.44-2.33c1.02-0.74,2.17-1.72,3.43-2.93c1.26-1.21,1.75-2.04,1.47-2.5c-0.1-0.16-0.22-0.33-0.38-0.51
		c-0.15-0.18-0.4-0.4-0.75-0.65l-9.05-6.56l-14.65,9.05c0.17,1.03,0.39,2.21,0.66,3.56s0.52,2.54,0.76,3.58
		c0.31,1.35,0.59,2.3,0.83,2.84c0.24,0.54,0.42,0.91,0.54,1.11c0.39,0.64,1.21,0.88,2.46,0.73s3.05-0.82,5.43-2.01l1.44,2.33
		l-16.28,10.06l0.29,0.34l-33.2,31.77l-1.9-1.98c0.54-0.62,1.16-1.36,1.85-2.23c0.69-0.87,1.11-1.48,1.27-1.82
		c0.38-0.82,0.49-1.56,0.32-2.21c-0.17-0.65-0.57-1.31-1.2-1.97l-24.33-25.42c-0.58-0.61-1.16-1.02-1.73-1.24
		c-0.57-0.22-1.36-0.15-2.38,0.21c-0.75,0.27-1.56,0.68-2.44,1.24c-0.87,0.56-1.56,1.02-2.07,1.37l-1.9-1.98L105.54,90.1z
		 M87.25,150.98l6.5,4.26l-11.67,17.82l-6.5-4.26L87.25,150.98z M34.44,189.24l12.01,4.21l-0.88,2.52c-2.01,0.02-4.2,0.49-6.58,1.42
		c-2.38,0.93-4.01,2.11-4.88,3.54c-0.39,0.61-0.8,1.5-1.25,2.67c-0.45,1.17-0.81,2.15-1.08,2.92l-2.4,6.83l18.15,6.36l1.7-4.84
		c0.43-1.22,0.67-2.37,0.73-3.47c0.06-1.1-0.17-2.2-0.71-3.3c-0.33-0.69-1.05-1.52-2.15-2.48c-1.1-0.97-2.1-1.7-3-2.19l0.88-2.52
		l19.64,6.88l-0.88,2.52c-0.98-0.19-2.26-0.26-3.85-0.21c-1.59,0.05-2.74,0.23-3.44,0.53c-1.05,0.45-1.9,1.12-2.55,2.01
		s-1.2,1.99-1.66,3.29l-1.7,4.84l13.57,4.76c1.42,0.5,2.57,0.79,3.48,0.87c0.9,0.08,1.68-0.09,2.32-0.51
		c0.61-0.41,1.16-1.07,1.63-1.98s1-2.2,1.58-3.86c0.27-0.77,0.59-1.71,0.94-2.8c0.36-1.09,0.63-2.07,0.8-2.92
		c0.21-0.97,0.35-1.89,0.42-2.78c0.06-0.88-0.05-1.6-0.33-2.15c-0.71-1.44-1.95-3.22-3.7-5.32s-3.12-3.56-4.07-4.37l0.85-2.42
		l14.35,6.04l-15.48,44.16l-2.59-0.91c0.17-0.63,0.38-1.51,0.62-2.61c0.24-1.11,0.35-1.91,0.33-2.42c-0.06-0.96-0.31-1.69-0.75-2.16
		c-0.44-0.48-1.08-0.86-1.92-1.16l-33.21-11.64c-0.8-0.28-1.5-0.39-2.1-0.33c-0.6,0.06-1.28,0.48-2.03,1.26
		c-0.47,0.48-0.99,1.2-1.58,2.17c-0.59,0.96-1,1.7-1.26,2.2l-2.59-0.91L34.44,189.24z M17.34,244.02l2.71,0.45
		c-0.05,0.71-0.09,1.59-0.14,2.65s-0.01,1.97,0.1,2.73c0.15,0.95,0.52,1.63,1.11,2.04c0.59,0.41,1.28,0.68,2.09,0.81l34.86,5.78
		c0.83,0.14,1.57,0.1,2.21-0.11c0.64-0.21,1.22-0.73,1.74-1.55c0.29-0.45,0.62-1.22,1.01-2.31c0.38-1.09,0.66-2.01,0.83-2.77
		l2.71,0.45l-4.52,27.3l-2.71-0.45c0.06-0.63,0.14-1.56,0.25-2.79c0.11-1.23,0.11-2.09,0-2.58c-0.21-0.91-0.56-1.57-1.08-1.98
		c-0.51-0.41-1.21-0.68-2.09-0.83l-34.89-5.78c-0.79-0.13-1.5-0.09-2.16,0.11c-0.65,0.2-1.23,0.71-1.75,1.53
		c-0.32,0.52-0.7,1.3-1.12,2.34c-0.42,1.05-0.75,1.96-0.97,2.73l-2.71-0.45L17.34,244.02z M14.66,341.86l-2.81,0.06l-0.42-18.77
		l33.11-28.03l-18.87,0.43c-3,0.07-5.22,0.32-6.68,0.75c-1.46,0.43-2.52,1.09-3.21,1.97c-0.52,0.69-0.96,1.71-1.32,3.05
		s-0.6,2.43-0.72,3.25l-2.74,0.06l-0.48-21.4l2.74-0.06c0.08,0.65,0.24,1.59,0.45,2.8c0.22,1.21,0.7,2.31,1.45,3.27
		c0.65,0.85,1.75,1.44,3.29,1.77c1.54,0.33,3.8,0.46,6.78,0.39l35.64-0.8l0.14,6.26L23.16,328.8l23.41-0.53
		c2.91-0.07,5.11-0.31,6.61-0.73s2.6-1.07,3.28-1.96c0.5-0.64,0.94-1.66,1.3-3.05c0.37-1.39,0.61-2.5,0.73-3.32l2.74-0.06
		l0.48,21.44l-2.74,0.06c-0.09-0.91-0.28-1.96-0.58-3.13c-0.3-1.18-0.73-2.16-1.31-2.94c-0.7-0.9-1.74-1.5-3.12-1.81
		c-1.38-0.31-3.68-0.43-6.92-0.35l-23.62,0.53c-1.17,0.03-2.27,0.23-3.31,0.62c-1.03,0.39-1.92,0.98-2.65,1.77
		c-0.78,0.84-1.38,1.8-1.82,2.87C15.22,339.28,14.89,340.5,14.66,341.86z M31.88,399.04c-2.91-1.7-5.43-4.04-7.56-7.02
		c-2.13-2.98-3.74-6.49-4.82-10.52c-0.73-2.74-1.07-5.37-1.02-7.88c0.05-2.51,0.26-4.63,0.63-6.36l-2.43-1.61l-0.79-2.95l17.51-5.02
		l0.8,2.99c-4.83,3.14-8.2,6.25-10.12,9.33s-2.39,6.46-1.41,10.13c1.16,4.35,3.97,7.19,8.41,8.54c4.44,1.35,10,1.12,16.69-0.67
		c7.09-1.9,12.33-4.55,15.72-7.94c3.39-3.39,4.51-7.22,3.37-11.48c-0.53-1.99-1.31-3.68-2.32-5.07c-1.01-1.39-2.03-2.41-3.06-3.06
		l-9.78,2.62c-0.81,0.22-1.46,0.55-1.94,0.99c-0.48,0.44-0.8,1.16-0.97,2.15c-0.13,0.76-0.17,1.68-0.1,2.76
		c0.07,1.07,0.15,1.96,0.24,2.67l-2.65,0.71l-6.7-25.03l2.65-0.71c0.26,0.68,0.5,1.29,0.74,1.8c0.24,0.52,0.6,1.15,1.09,1.89
		c0.54,0.85,1.19,1.33,1.95,1.44c0.76,0.11,1.51,0.07,2.26-0.13l5.6-1.5c1.13-0.3,2.04-0.56,2.72-0.77
		c0.69-0.21,1.53-0.47,2.54-0.79c1.96,1.9,4.14,4.9,6.53,9.01s4.08,8.01,5.07,11.73c0.93,3.49,1.28,6.9,1.03,10.24
		c-0.25,3.34-1.12,6.45-2.64,9.33c-1.49,2.87-3.62,5.39-6.39,7.55c-2.77,2.16-6.17,3.78-10.21,4.86c-3.76,1.01-7.41,1.32-10.93,0.93
		C38.05,401.83,34.82,400.77,31.88,399.04z M46.47,447.37l-3.31-6.2c7.8-9.38,13.98-16.76,18.54-22.15
		c4.56-5.39,8.31-9.91,11.25-13.55c0.48-0.6,0.86-1.24,1.14-1.93c0.29-0.68,0.45-1.53,0.5-2.54c0.02-0.75-0.09-1.56-0.33-2.41
		c-0.24-0.85-0.51-1.6-0.8-2.24l2.42-1.29l12.81,23.97l-2.42,1.29c-0.68-1.07-1.58-2.27-2.71-3.61c-1.13-1.33-1.93-1.88-2.4-1.62
		c-0.17,0.09-0.34,0.2-0.53,0.34c-0.19,0.14-0.42,0.38-0.7,0.71l-7.11,8.63l8.12,15.19c1.03-0.1,2.23-0.25,3.59-0.43
		c1.36-0.19,2.57-0.36,3.62-0.53c1.37-0.23,2.33-0.44,2.88-0.65c0.56-0.2,0.94-0.36,1.14-0.47c0.66-0.35,0.96-1.16,0.89-2.41
		c-0.07-1.25-0.63-3.1-1.67-5.54l2.42-1.29l9.65,18.04l-2.42,1.29c-0.41-0.66-0.93-1.37-1.56-2.14c-0.63-0.76-1.24-1.31-1.81-1.64
		c-0.95-0.58-1.94-0.97-2.98-1.18c-1.04-0.2-2.16-0.24-3.36-0.1c-7.09,0.71-14.19,1.42-21.31,2.12
		C62.91,445.75,55.06,446.52,46.47,447.37z M95.56,513.42l-17.81-20.99c-4.17-4.92-6.5-9.25-7-13.01c-0.5-3.76,0.86-7,4.08-9.73
		c2.15-1.82,4.37-2.94,6.66-3.37c2.3-0.43,4.59-0.27,6.87,0.46c2.37,0.76,4.65,1.98,6.85,3.67c2.2,1.68,4.39,3.81,6.57,6.39
		l2.64,3.11l10.7-9.07c0.64-0.55,1.1-1.14,1.37-1.78c0.27-0.64,0.26-1.42-0.03-2.35c-0.16-0.48-0.5-1.19-1.02-2.13
		c-0.52-0.94-0.99-1.71-1.41-2.31l2.09-1.77l17.49,20.62l-2.09,1.77c-0.49-0.47-1.15-1.1-1.98-1.87s-1.45-1.27-1.89-1.49
		c-0.88-0.45-1.62-0.62-2.22-0.49c-0.6,0.13-1.27,0.5-2,1.12L96.6,502.96c-0.63,0.53-1.08,1.1-1.35,1.7
		c-0.27,0.6-0.26,1.39,0.04,2.36c0.21,0.68,0.58,1.51,1.12,2.49c0.54,0.98,0.95,1.69,1.25,2.15L95.56,513.42z M181.67,527.33
		c-1.17,1.08-2.59,2.79-4.26,5.14l-14.33,20.14c-0.87,1.22-1.44,2.35-1.71,3.38c-0.27,1.03-0.27,2,0,2.91
		c0.34,1.13,0.85,2.07,1.53,2.82c0.68,0.74,1.41,1.43,2.19,2.08l-1.59,2.23l-18.73-13.33l9.03-33.91l-23.91,15.73
		c-0.86,0.6-1.81,1.36-2.87,2.28c-1.06,0.92-1.72,1.54-1.98,1.87l-18.01-12.81l1.59-2.24c0.64,0.4,1.33,0.78,2.08,1.14
		c0.75,0.36,1.5,0.66,2.25,0.91c0.92,0.28,1.69,0.24,2.31-0.13c0.62-0.37,1.16-0.87,1.62-1.52l20.48-28.79
		c0.49-0.69,0.78-1.35,0.88-1.99c0.09-0.64-0.11-1.39-0.61-2.27c-0.26-0.44-0.77-1.05-1.53-1.82c-0.76-0.77-1.36-1.36-1.8-1.75
		l1.59-2.23l22.03,15.67l-1.59,2.23c-0.69-0.4-1.56-0.88-2.6-1.42c-1.04-0.54-1.79-0.85-2.24-0.95c-0.91-0.22-1.69-0.18-2.35,0.09
		c-0.66,0.28-1.26,0.8-1.8,1.56l-21.6,30.37l39.39-25.78l3.61,2.57c-0.28,0.75-0.74,2.31-1.4,4.66c-0.65,2.35-1.17,4.24-1.55,5.67
		l-9.59,35.25l17.59-24.72c1.69-2.37,2.81-4.28,3.37-5.74c0.56-1.46,0.69-2.72,0.39-3.8c-0.19-0.74-0.77-1.73-1.75-2.97
		c-0.97-1.24-1.69-2.06-2.14-2.47l1.59-2.23l17.47,12.43l-1.59,2.23c-0.52-0.28-1.39-0.71-2.61-1.27c-1.22-0.57-2.35-0.85-3.39-0.84
		C184,525.71,182.84,526.25,181.67,527.33z M238.14,567.41c-1.4,3.83-3.33,7.06-5.78,9.7c-2.45,2.64-5.22,4.65-8.33,6.03
		c-3.06,1.35-6.37,2.04-9.91,2.08c-3.55,0.04-7.08-0.59-10.6-1.88c-3.5-1.28-6.58-3.06-9.23-5.32c-2.65-2.27-4.73-4.84-6.22-7.71
		c-1.54-2.96-2.44-6.18-2.69-9.67c-0.26-3.49,0.31-7.15,1.71-10.98c1.25-3.41,3.01-6.45,5.28-9.11c2.27-2.66,4.89-4.71,7.86-6.14
		c3.11-1.48,6.44-2.31,9.96-2.47c3.53-0.17,7.41,0.52,11.63,2.07c3.41,1.25,6.43,2.99,9.06,5.22c2.63,2.23,4.71,4.84,6.23,7.82
		c1.52,2.93,2.41,6.13,2.66,9.62C240.03,560.15,239.48,563.73,238.14,567.41z M294.01,575.25c-0.49,3.84-1.61,7.31-3.36,10.42
		s-3.99,5.7-6.71,7.79c-2.67,2.05-5.75,3.51-9.24,4.38c-3.49,0.87-7.13,1.07-10.92,0.59c-2.74-0.35-5.2-1-7.37-1.96
		c-2.17-0.96-3.98-1.96-5.43-2.99l-2.41,1.64l-3.03-0.38l1.98-18.11l3.07,0.39c1.04,5.74,2.62,10.06,4.73,12.96
		c2.11,2.9,4.92,4.57,8.43,5.01c4.37,0.55,7.93-0.95,10.7-4.52c2.76-3.57,4.59-8.83,5.47-15.79c0.5-3.94,0.54-7.34,0.11-10.23
		c-0.43-2.88-1.16-5.25-2.2-7.11c-1.12-1.94-2.55-3.44-4.28-4.5c-1.73-1.06-3.71-1.73-5.94-2.01c-3.25-0.41-6.26,0.1-9.03,1.55
		c-2.77,1.45-5.42,3.83-7.97,7.14l-2.77-2.19c1.26-1.92,2.63-3.61,4.11-5.06c1.48-1.45,3.14-2.66,4.96-3.61
		c2-1.05,4.15-1.79,6.47-2.23c2.31-0.44,4.98-0.47,8-0.08c3.63,0.46,6.95,1.48,9.96,3.05c3.01,1.58,5.55,3.63,7.62,6.16
		c2.02,2.48,3.5,5.42,4.41,8.81C294.29,567.76,294.5,571.38,294.01,575.25z M69,307C69,176.66,174.66,71,305,71s236,105.66,236,236
		S435.34,543,305,543S69,437.34,69,307z M324.69,572.56l-0.87-7.72l21.17-2.39l0.87,7.72L324.69,572.56z M419.18,568.81
		c-0.19,1.97-0.8,3.91-1.84,5.8c-1,1.78-2.5,3.48-4.48,5.09c-1.99,1.61-4.31,2.9-6.98,3.86c-2.6,0.94-5.17,1.45-7.7,1.54
		s-4.58,0-6.14-0.26l-1.3,2.71l-2.88,1.04l-6.02-15.92l2.85-1.02c1.28,1.49,2.69,2.97,4.23,4.45c1.54,1.48,3.02,2.64,4.44,3.48
		c1.54,0.89,3.16,1.47,4.84,1.72c1.69,0.25,3.48,0.04,5.37-0.64c2.38-0.86,4.09-2.23,5.11-4.12c1.03-1.89,1.18-3.83,0.47-5.82
		c-0.67-1.88-1.88-3.18-3.62-3.9c-1.74-0.72-4.17-1.04-7.27-0.94c-1.83,0.03-3.69,0.08-5.59,0.14c-1.9,0.06-3.6,0.07-5.1,0.04
		c-3.64-0.09-6.69-0.92-9.14-2.5c-2.45-1.58-4.25-3.98-5.41-7.2c-0.73-2.03-0.96-4.17-0.7-6.41s0.98-4.28,2.13-6.12
		c1.26-2.03,2.92-3.83,4.96-5.41s4.61-2.93,7.7-4.04c2.87-1.03,5.67-1.63,8.41-1.81c2.74-0.18,5.14-0.09,7.21,0.27l1.45-3.14
		l2.81-1.01l6.53,16.82l-2.85,1.02c-1.22-1.38-2.65-2.79-4.28-4.23c-1.64-1.43-3.36-2.62-5.17-3.57c-1.88-1-3.82-1.66-5.81-1.99
		c-2-0.33-4.11-0.09-6.34,0.71c-3,1.08-5.04,2.64-6.11,4.68s-1.21,4.18-0.4,6.41c0.66,1.83,1.89,3.13,3.69,3.89s4.29,1.08,7.46,0.97
		c2.07-0.07,3.97-0.13,5.71-0.18c1.74-0.05,3.39-0.05,4.95-0.01c3.61,0.13,6.6,1.08,8.97,2.87c2.38,1.79,4.08,4.13,5.12,7.02
		C419.13,564.93,419.36,566.84,419.18,568.81z M507.66,518.85c-4.51,4.34-8.61,6.93-12.3,7.78c-3.7,0.84-6.92-0.16-9.67-3.01
		c-2.42-2.51-3.65-5.23-3.68-8.15c-0.03-2.92,1.02-6.23,3.14-9.94c-2.58-0.38-5.58-0.81-8.99-1.3c-3.41-0.49-6.93-0.96-10.55-1.4
		c-1.16-0.16-2.65-0.27-4.47-0.36c-1.82-0.08-3.18,0.1-4.09,0.55c-0.5,0.25-1.09,0.63-1.77,1.12c-0.68,0.49-1.16,0.85-1.42,1.08
		l-1.17-1.22l0.45,0.74c-0.54,0.38-1.25,0.92-2.14,1.63c-0.89,0.7-1.48,1.26-1.79,1.66c-0.57,0.78-0.83,1.5-0.79,2.15
		c0.04,0.65,0.29,1.35,0.75,2.11l18.29,30.07c0.44,0.72,0.91,1.25,1.42,1.59c0.51,0.34,1.3,0.44,2.37,0.31
		c0.67-0.08,1.53-0.3,2.59-0.67c1.06-0.37,1.85-0.67,2.37-0.91l1.42,2.34L439.84,568l-6.61-10.87l2.28-1.39
		c1.56,1.26,3.56,2.29,5.99,3.08c2.43,0.79,4.44,0.91,6.02,0.36c0.69-0.23,1.57-0.65,2.66-1.27s1.98-1.15,2.69-1.57l6.19-3.76
		l-9.99-16.43l-4.38,2.67c-1.1,0.67-2.02,1.41-2.77,2.22c-0.74,0.81-1.26,1.81-1.55,3c-0.18,0.74-0.15,1.83,0.08,3.28
		c0.24,1.45,0.54,2.64,0.93,3.59l-2.28,1.39l-10.81-17.78l2.28-1.39c0.63,0.77,1.58,1.64,2.84,2.61c1.26,0.97,2.26,1.57,3,1.78
		c1.1,0.32,2.18,0.34,3.25,0.06c1.07-0.28,2.19-0.78,3.37-1.5l4.39-2.67l-7.47-12.29c-0.78-1.28-1.49-2.24-2.14-2.88
		c-0.65-0.64-1.35-1-2.12-1.08c-0.73-0.08-1.57,0.09-2.51,0.5c-0.94,0.41-2.17,1.07-3.67,1.98c-0.7,0.43-1.54,0.95-2.5,1.56
		c-0.97,0.62-1.79,1.2-2.47,1.75c-0.78,0.61-1.47,1.24-2.08,1.88c-0.61,0.64-0.98,1.27-1.11,1.87c-0.37,1.57-0.54,3.72-0.51,6.46
		s0.15,4.73,0.38,5.96l-2.19,1.33l-7.26-13.77l39.98-24.31l0.41,0.68l13.62-13.12c5.89,1.35,10.67,2.35,14.32,2.99
		s8.03,1.25,13.1,1.83l1.39-1.34l-10.51-10.91c-0.58-0.61-1.2-1.01-1.83-1.21c-0.63-0.2-1.41-0.14-2.33,0.19
		c-0.45,0.17-1.09,0.52-1.91,1.03c-0.82,0.51-1.5,0.98-2.04,1.4l-1.9-1.97l19.17-18.46l1.9,1.98c-0.44,0.52-1.02,1.21-1.73,2.08
		c-0.71,0.86-1.17,1.53-1.38,1.99c-0.38,0.89-0.48,1.64-0.3,2.27c0.18,0.62,0.58,1.26,1.2,1.9l24.42,25.34
		c0.59,0.61,1.17,1.02,1.74,1.25c0.58,0.23,1.37,0.15,2.37-0.23c0.75-0.3,1.57-0.73,2.45-1.28c0.88-0.56,1.56-1,2.05-1.34l1.9,1.97
		L507.66,518.85z M549.93,468.47c-3.73,5.71-7.21,9.32-10.43,10.82c-3.22,1.5-6.37,1.26-9.43-0.74c-1.41-0.92-2.47-2.02-3.17-3.29
		s-1.09-2.69-1.19-4.26c-0.1-1.44,0.02-2.99,0.37-4.67c0.34-1.68,0.84-3.4,1.48-5.16l-0.56-0.37c-1.16,1.43-2.53,2.8-4.13,4.1
		s-3.21,2.3-4.82,2.98c-1.68,0.69-3.43,1-5.25,0.94c-1.82-0.07-3.61-0.68-5.38-1.83c-2.12-1.38-3.62-3-4.5-4.85
		c-0.88-1.85-1.19-3.88-0.95-6.1c0.25-2.36,0.94-4.81,2.08-7.36c1.13-2.55,2.72-5.38,4.76-8.5L523,418.49l2.3,1.5
		c-0.34,0.65-0.75,1.47-1.24,2.47c-0.48,1-0.77,1.74-0.86,2.21c-0.18,0.92-0.12,1.67,0.19,2.25c0.31,0.58,0.84,1.12,1.61,1.62
		l29.43,19.23c0.71,0.46,1.37,0.74,1.98,0.83c0.61,0.09,1.36-0.16,2.25-0.75c0.65-0.44,1.33-1.01,2.02-1.71s1.29-1.32,1.78-1.86
		l2.3,1.5L549.93,468.47z M587.9,386.78l-35.07,1.35l22.07,18.22c0.83,0.64,1.83,1.33,3.02,2.07c1.19,0.74,1.98,1.19,2.37,1.34
		l-6.94,20.98l-2.6-0.86c0.19-0.73,0.35-1.5,0.47-2.33s0.19-1.63,0.21-2.41c0-0.96-0.27-1.69-0.8-2.17
		c-0.53-0.48-1.18-0.85-1.93-1.1l-33.54-11.1c-0.8-0.26-1.52-0.35-2.16-0.25c-0.64,0.1-1.3,0.51-1.99,1.25
		c-0.35,0.38-0.78,1.04-1.29,2c-0.51,0.95-0.89,1.7-1.15,2.23l-2.6-0.86l8.5-25.67l2.6,0.86c-0.18,0.78-0.38,1.74-0.59,2.9
		c-0.21,1.15-0.29,1.96-0.25,2.42c0.06,0.93,0.32,1.67,0.78,2.22c0.46,0.55,1.14,0.97,2.03,1.26l35.38,11.71l-36.23-30.06l1.39-4.21
		c0.8,0.04,2.42,0.03,4.86-0.04c2.44-0.07,4.4-0.13,5.88-0.18l36.51-1.21l-28.8-9.53c-2.76-0.91-4.92-1.42-6.47-1.53
		c-1.56-0.11-2.81,0.14-3.75,0.74c-0.65,0.4-1.43,1.25-2.32,2.54s-1.48,2.22-1.73,2.78l-2.6-0.86l6.74-20.36l2.6,0.86
		c-0.12,0.58-0.27,1.53-0.45,2.87c-0.18,1.33-0.12,2.5,0.2,3.49c0.33,1.1,1.18,2.04,2.56,2.85s3.43,1.66,6.17,2.56l23.46,7.77
		c1.42,0.47,2.67,0.68,3.73,0.64c1.06-0.04,1.99-0.33,2.78-0.86c0.98-0.66,1.73-1.43,2.24-2.29s0.96-1.77,1.34-2.71l2.6,0.86
		L587.9,386.78z M597.48,332c-1.39,3.2-3.23,5.94-5.53,8.21c-2.38,2.34-5.19,4.15-8.45,5.42c-3.26,1.27-6.92,1.8-11,1.59
		c-3.63-0.19-7.05-0.98-10.26-2.37c-3.21-1.39-5.94-3.29-8.19-5.71c-2.33-2.54-4.1-5.47-5.3-8.79c-1.2-3.33-1.68-7.23-1.45-11.73
		c0.19-3.63,0.97-7.03,2.33-10.19c1.36-3.17,3.24-5.92,5.64-8.26c2.35-2.32,5.15-4.11,8.41-5.37c3.26-1.26,6.84-1.79,10.75-1.59
		c4.07,0.21,7.73,1.1,10.97,2.67c3.24,1.56,5.98,3.63,8.21,6.18c2.19,2.53,3.83,5.48,4.91,8.86c1.08,3.38,1.52,6.94,1.33,10.68
		C599.66,325.33,598.87,328.79,597.48,332z"/>
	<circle class="st1" cx="305" cy="307" r="235"/>
</g>
</svg>
