<?xml version="1.0" encoding="utf-8"?>
<!-- Generator: Adobe Illustrator 23.0.1, SVG Export Plug-In . SVG Version: 6.00 Build 0)  -->
<svg version="1.1" id="Calque_1" xmlns="http://www.w3.org/2000/svg" xmlns:xlink="http://www.w3.org/1999/xlink" x="0px" y="0px"
	 viewBox="0 0 473.8 473.8" style="enable-background:new 0 0 473.8 473.8;" xml:space="preserve">
<style type="text/css">
	.st0{fill:#FFFFFF;}
</style>
<g>
	<path class="st0" d="M146.3,273.41c0.54,1.37,1.08,2.73,1.59,4.02h0l0,0c0.67,1.7,1.3,3.29,1.84,4.66c2.38-2.93,5.34-6.57,7.9-9.71
		c-3.4-2.59-6.26-4.78-8.86-6.77C148.18,266.59,147.28,270.54,146.3,273.41z"/>
	<path class="st0" d="M175.37,116.86c5.22-0.12,6.32,3.47,7.31,7.32c0.7,2.74,1.12,5.58,2.1,8.21c0.49,1.31,1.96,2.26,2.98,3.37
		c0.74-1.35,1.84-2.62,2.14-4.06c0.5-2.43,0.37-4.98,0.71-7.45c1.05-7.52,6.26-11.46,13.48-10.58c1.64,0.2,3.38-0.48,5.14-0.77
		c-2.22-7.9-9.85-13.73-17.09-13.55c-8.11,0.21-17.83,7.03-19.03,13.75C172.91,114.25,174.6,116.87,175.37,116.86z"/>
	<path class="st0" d="M213.59,231.99c-5.19-2.29-5.81-9.87-14.46-10.01c4.82,4.51,8.78,8.22,12.74,11.92
		C212.44,233.26,213.02,232.63,213.59,231.99z"/>
	<path class="st0" d="M172.2,208.46c-0.94,4.35-1.51,8.8-1.99,13.23c-0.43,4.07-0.53,8.18-0.78,12.27c0.56,0.11,1.11,0.21,1.67,0.32
		c3.29-10.1,5.66-20.37,6.36-30.95c-0.81-0.28-1.62-0.56-2.43-0.85C174.07,204.46,172.66,206.36,172.2,208.46z"/>
	<path class="st0" d="M210.01,248.37c0.09,5.85-3.51,6.19-7.97,6.11c-5.45-0.1-10.91,0.42-16.36,0.68
		c6.33,0.73,12.56,0.79,18.79,0.72C210.66,255.8,211.06,255.27,210.01,248.37z"/>
	<path class="st0" d="M259.19,203.23c0.01-1.78-2.18-3.57-3.37-5.35c-1.37,1.1-3.96,2.28-3.9,3.28c0.36,5.57,1.71,10.95,5.51,14.68
		C258.09,211.6,259.16,207.42,259.19,203.23z"/>
	<path class="st0" d="M236.9,0C106.06,0,0,106.06,0,236.9s106.06,236.9,236.9,236.9s236.9-106.06,236.9-236.9S367.73,0,236.9,0z
		 M460.15,171.81c0.98,3.27,1.61,5.37,2.18,7.27c-0.64,0.55-0.94,0.97-1.12,0.93c-3.16-0.75-6.3-1.56-9.45-2.36
		C454.28,175.91,456.78,174.17,460.15,171.81z M360.3,56.94c1.02-4.43,3.71-8.47,5.69-12.64c1.77,0.33,2.14,0.32,2.41,0.47
		c8.89,4.69,9.41,9.06,1.93,16c-0.61,0.56-1.12,1.29-1.82,1.68c-1.81,1.01-3.69,1.87-5.55,2.8
		C361.98,62.46,359.74,59.37,360.3,56.94z M289.92,27.18c0.57,0.47,1.15,0.94,1.72,1.42c-2.81,3.2-5.61,6.4-8.42,9.6
		c-0.42-0.34-0.84-0.69-1.25-1.03C284.62,33.84,287.27,30.51,289.92,27.18z M5.74,270.33c-1.48-8.48-2.11-17.11-3.14-25.67
		c0-5.33,0-10.67,0-16c0.39-2.28,0.89-4.55,1.14-6.85c0.82-7.43,1.04-14.96,2.4-22.28C21.12,118.84,65.47,60.42,139.33,24.49
		c1.78-0.87,30.11-11.55,48.89-13.69c11,0-3.02,4.28-10.64,10.89c-8.44,6.44-16.92,12.84-25.31,19.35
		c-4.72,3.66-9.88,7.01-13.79,11.42c-4.79,5.4-10.78,10.83-8.13,19.6c0.19,0.63-0.63,2.13-1.29,2.38
		c-6.13,2.3-8.18,7.77-10.83,13.01c-6.71,13.32-4.93,21.58,6.87,30.62c2.69,2.06,4.36,4.46,1.1,7.82c-6.11,6.29-6.76,13.78-4,21.8
		c0.62,1.81,1.21,3.62,1.8,5.38c-5.31,2.47-12.01,1.5-14.29,8.74c5.25-0.78,11.15-5.31,14.66-2.12c6.53,5.93,10.07,15.57,6.96-10.09
		c-0.8-6.59-1.55-12.43,2.38-17.56c2.41-3.14,6.57-4.87,9.43-7.74c1.87-1.88,4.54-5.4,3.89-6.89c-1.67-3.83-5.48-2.54-8.64-1.08
		c-0.9,0.42-1.66,1.23-2.58,1.49c-1.02,0.28-2.34,0.49-3.23,0.09c-6.31-2.87-11.1-13.72-8.17-19.99c2.36-5.04,5.96-9.51,9.09-14.17
		c4.09-6.09,10.23-8.4,17.12-10.12c4.43-1.11,8.52-3.97,12.45-6.52c2.32-1.5,3.86-4.15,6.06-5.9c7.2-5.72,12.23-14.15,21.87-16.96
		c1.72-0.5,2.66-3.86,3.87-5.95c1.09-1.89,2.06-3.85,3.08-5.78c1.98,1.33,4.33,2.32,5.86,4.05c2.67,3.01,4.84,6.47,7.22,9.74
		c0.47-0.21,0.94-0.43,1.41-0.64c-2.05-6.32-4.09-12.64-5.86-18.08c3.04-2.23,5.52-4.06,8-5.89c0.67,0,1.33,0,2,0
		c-0.34,6.09,6.03,6.12,8.94,9.17c6.99,7.32,13.88,14.54,18.91,23.37c0.99,1.74,1.92,3.51,2.96,5.22c2.02,3.28,4.15,2.95,6.11-0.02
		c1.41-2.15,2.62-4.44,4.45-7.56c0.63,2.18,0.97,3.23,1.24,4.28c1.02,4.02,1.52,8.27,3.16,12.02c2.36,5.41,6.6,5.56,10.9,1.55
		c3.56-3.32,7.71-6,11.6-8.96c0.37,0.33,0.74,0.66,1.11,0.99c-0.54,1.47-0.89,3.07-1.67,4.4c-3.4,5.82-2.53,11.89-2.45,18.31
		c0.14,10.93,5.07,15.5,15.29,16.42c4.08,0.37,8.07,2.63,12.1,2.63c9.38,0,18.76-0.83,28.14-1.38c1.12-0.07,2.23-0.41,3.34-0.67
		c2.68-0.61,5.35-1.25,9.14-2.14c2.39-6.33,9.33-0.58,13.68-3.04c3.3-6.68,6.63-13.42,10.23-20.7c3.15,0.81,2.74-2.28,2.31-4.75
		c-1.1-6.31,0-11.75,5.6-16.34c20.63,15.74,37.64,34.76,51.39,56.47c-3.67,1.5-6.75,2.81-9.87,4.02c-2.74,1.06-5.52,2.03-8.29,3
		c-4.34,1.51-8.65,3.11-13.05,4.43c-2.37,0.71-4.96,0.7-7.29,1.49c-1.22,0.41-3.04,1.98-2.92,2.77c0.2,1.34,1.49,3.12,2.74,3.58
		c2.6,0.96,5.47,1.19,8.23,1.7c3.22,0.6,6.44,1.18,9.66,1.78c0,0.54,0,1.07,0,1.61c-1.72,0.87-3.42,1.76-5.15,2.61
		c-3.53,1.72-5.71,3.69-3.45,8.16c2.99,5.92,5.65,12.03,8.08,18.21c3.43,8.74,12.27,14.92,21.61,14.87
		c4.13-0.02,8.27,0.35,12.4,0.54c0.02,0.42,0.05,0.84,0.07,1.26c-2.55,0.45-5.11,0.91-7.66,1.36c-12.45,2.2-25.28,3.16-37.27,6.85
		c-27.6,8.48-54.13,19.98-79.03,34.61c-14.43,8.48-28.28,18.14-36.96,33.51c-2.6,4.61-7.59,7.88-11.49,11.76
		c-0.49-0.27-0.97-0.55-1.46-0.82c0.09-3.59-1.82-6.99-2.69-10.69c0.62-0.69,1.25-1.37,1.93-2.03c3.45-3.37,7.26-6.4,9.83-10.55
		c2.56-4.14,4.76-9.85,3.57-14.68c-1.78-7.18-10.73-7.25-16.62-6.62c-2.91,0.31-5.83,0.84-8.71,1.54
		c16.42-10.6,8.88-36.44,0.26-51.76c-0.18-0.32-0.53-0.29-0.74-0.11c-11.59-13.55-27.4-17.35-43.73-22.13
		c0.5,4.95,1.97,9.31,1.01,13.05c-0.95,3.68-4.36,6.73-7.09,10.63c4.01-1.26,7.69-2.41,11.36-3.57c-3.72,6.41-10.75,4.95-16.18,7.1
		c-0.95-1.31-1.85-2.54-3.21-4.41c-0.74,4.81-3.5,4.11-5.64,3.01c-3.28-1.68-6.25-3.96-9.35-5.98c5.62-8.58,5.62-8.58,4.99-10.82
		c-1.05,0.98-2.09,2.06-3.23,3c-5.39,4.44-10.92,8.72-16.18,13.31c-2.85,2.48-3.87,4.01-3.14,5.55l-0.3-0.55
		c-0.42,0.22-33.13,18.02-72.22,45.53c-0.18-0.52-0.38-1.04-0.56-1.57c-0.69-2.07-3.13-3.61-4.91-5.23
		c-0.82-0.75-2.58-0.87-2.93-1.69c-2.7-6.36-6.09-12.56-7.56-19.29c-2.7-12.37,0.84-13.14,0.84-13.14s-5.68-1.16-9.28-19.11
		c-1.5-7.46-0.84-21.86,8.53-10.12c-5.52-10.87-10.18-11.27-14.42-10.86c-7.64,0.74-11.94,6.49-10.56,14.09
		c1.35,7.51,2.64,15.09,4.84,22.38c3.49,11.58,6.05,23.89,11.95,34.19c3.79,6.61,7.19,13.37,10.34,20.22
		c-6.47,4.77-13.03,9.77-19.58,14.96c-19.61,15.57-36.56,30.92-50.71,45.86C9.45,288.94,7.39,279.8,5.74,270.33z M265.33,376.51
		c-2.25-0.44-3.63-1.47-4.22-3.09c-0.11-0.81-0.22-1.63-0.33-2.44c0.01-0.16,0-0.31,0.01-0.48c0.61-6.63,1.34-13.24,1.87-19.87
		c0.25-3.11,1.75-4.35,4.69-4.95c3.33,10.01,6.53,20.54,9.42,31.38c0.18,0.66,0.35,1.32,0.52,1.98
		C273.33,378.07,269.33,377.29,265.33,376.51z M290.13,393.75c-9.17-2.24-20.44,2.79-27.08-7.84
		C272.59,386.96,281.68,389.31,290.13,393.75z M255.15,300.76c-0.08,1.87-0.14,3.74-0.17,5.62c-3.61-8.93-7.05-16.88-10.06-23.59
		c4.8-4.56,9.68-9.03,14.66-13.4c0.49-0.43,0.97-0.72,1.41-0.88c-2.34,5.46-3.66,11.35-4.5,17.24c-1.01,0.98-1.8,2.2-1.9,3.19
		C254.23,292.81,254,297.15,255.15,300.76z M262.26,268.46c0.75,0.26,1.32,1.09,1.57,2.51c0.29,1.64,0.37,3.31,0.56,4.96
		c0.49,4.13-0.45,6.97-5.2,8.12c-0.52,0.13-1.08,0.42-1.64,0.81C258.46,279.16,259.92,273.6,262.26,268.46z M256.09,303.2
		c2.4,5.94,3.91,11.92,4.72,18.09c-1.61-4.26-3.21-8.37-4.78-12.3c0-0.34-0.01-0.67,0-1.01C256.04,306.4,256.06,304.81,256.09,303.2
		z M261.45,328.77c0.05,1.23,0.08,2.47,0.09,3.72c0.05,9.49-1.17,18.95-2.04,28.42c-1.85-15.42-3.22-30.92-3.45-46.42
		C257.84,319.04,259.65,323.82,261.45,328.77z M227.25,166.27c-2.83,0.36-5.35,1.36-6.03,0.64c-1.78-1.9-2.77-4.55-4.07-6.91
		c0.44-0.25,0.89-0.5,1.33-0.75C220.98,161.26,223.48,163.26,227.25,166.27z M12.18,300.92c14.19-15.04,31.24-31.5,51-47.19
		c6.48-5.15,12.98-10.1,19.39-14.83c2.15,4.7,4.17,8.46,6.13,13.23l-0.45-0.2c-0.12,0.28-12.3,28-12.9,66.22
		c-0.35,22.45,3.31,44.08,10.87,64.29c3.99,10.66,9.08,20.93,15.23,30.77c-0.93,3.94-1.51,8.04-1.94,12.09
		C56.28,394.72,27.11,354.63,12.18,300.92z M100.35,425.89c0.55-3.76,1.24-7.49,2.08-11.15c5.3,8.29,11.36,16.27,18.16,23.91
		C113.53,434.65,106.78,430.4,100.35,425.89z M174.67,461.46c9.2-12,12.17-40.38,8.88-84.7c4.88,0.86,11.18,0.65,14.52,2.61
		c4,2.35,15.38,7.27,18.49,10.46c8.43,8.66,9.65-7.57,17.16,1.9c4.42,5.57-4.15,23.76,3.58,26.8c0.59-8.81,8.77-4.07,9.39-13.28
		c-1.13,1.37-1.6,1.94-3.1,3.76c-2.22-6.6-3.97-12.38-6.14-17.99c-0.77-1.99-2.19-4.14-3.93-5.26
		c-9.48-6.11-19.07-12.04-28.81-17.72c-2.15-1.26-5.01-1.45-7.58-1.82c-4.54-0.67-9.43-0.25-13.62-1.8
		c-0.35-0.13-0.69-0.27-1.03-0.41c-0.36-3.84-0.77-7.79-1.21-11.84l8.01,0.13c5.05-0.9,10.08-1.9,15.18-2.37
		c12.35-1.14,24.71,0.85,36.92,3.24l2.95,0.05c-3.05-13.38-5.95-26.79-9.22-40.11c-1.81-7.37-4.27-14.59-6.37-21.89
		c-0.88-3.06-1.94-3.67-5.39-2.45c-3.06,1.08-5.47,5.34-9.61,2.86c-0.09-0.06-0.46,0.34-0.85,0.64c0.54,1.06,1.08,2.13,2,3.96
		c-2.28-0.71-3.74-1.16-5.7-1.76c0.62,1.7,1.02,2.81,1.34,3.69c-2.46-0.33-4.7-0.63-7.38-0.99c-0.73-4.41-3.86-4.92-8.28-3.94
		c-3.34,0.73-7.01,1.18-10.3,0.56c-3.93-0.74-7.54-3.1-11.44-4.15c-0.27-0.07-0.53-0.13-0.78-0.19
		c-2.42-14.19-4.66-25.93-6.13-33.38c2.52-2.89,0.06-5-1.43-7.07c-0.21-1.03-0.34-1.61-0.35-1.66l-0.49,0.1
		c1.55-2.72,2.98-5.23,4.41-7.73c-0.38-0.5-0.76-0.99-1.15-1.49c-2.02,1.11-4.35,1.89-6,3.41c-3.25,2.99-6.41,6.18-9.08,9.68
		c-2.01,2.64-4.31,5.65-2.7,10.44c2.31-2.76,3.98-4.74,5.6-6.67c1.48,2.23,3.1,4.65,4.72,7.08c0.81-4.19-3.04-7.88,1.34-11.97
		c1.26,2.84,2.24,5.05,3.31,7.46c0.35-0.25,0.66-0.5,0.94-0.74c1.45,7.39,3.6,18.7,5.91,32.33c-3.55-0.49-4.4,1.3-3.51,5.76
		c2.09,10.39,2.23,20.76,0.06,31.21c-3.67,17.68-5.14,35.32,3.1,53.15c0.51-3.15,0.92-5.72,1.49-9.23c2.71,2.12,4.53,3.81,6.59,5.11
		c0.94,0.6,2.14,1,3.47,1.3c2.77,37.27,0.72,71.27-9.89,84.49c-2.66-0.54-4.32-0.87-6.99-1.4c-2.58-1.09-5.15-2.23-7.75-3.26
		c-4.13-1.63-8.15-3.34-12.12-5.1c-7.46-21.21-13.48-55.86-15.25-111.72l-0.75,0.02c1.76,55.31,7.7,89.91,15.12,111.31
		c-7.45-3.33-13.06-6.06-19.94-9.85c-15.84-19.39-21.95-30-21.95-30c1.63-5.94,5.34-10.7,8.62-15.65
		c5.04-7.61,5.62-18.07,6.46-26.84c1.1-11.58,1.53-23.22,1.85-34.84c0.02-0.64-0.98-0.64-1,0c-0.34,12.13-0.77,24.28-2,36.35
		c-0.62,6.14-1.34,12.43-3.2,18.35c-1.67,5.32-5.31,8.67-7.94,13.38c-1.73,3.08-2.51,4.91-3.45,8.45
		c-20.99-34.18-26.3-66.59-25.91-92.01c0.54-35.4,11.07-61.73,12.62-65.42c4.34,10.61,8.35,21.34,12.5,32.04
		c0.6,1.56,0.94,3.9,0.2,5.2c-6.14,10.8-1.65,19.86,4.33,28.71c1.56,2.3,3.4,4.43,5.04,6.67c6.6-1.59,14.96-2.22,22.74,1.24
		c0,0,6.11,3.38,8.52,9.8c0,0,0.48,1.29,0,3.38c0,0-1.71-2.5-4.59-2.35c0.12,0.15,0.24,0.29,0.33,0.43c-1,0.26-1.97,0.52-3.91,1.03
		c5.25,4.86,9.84,9.11,14.44,13.37c0.39-0.31,0.78-0.63,1.17-0.94c-0.13-1.28-0.19-2.57-0.41-3.83c-1.47-8.34-3.49-16.62-4.34-25.02
		c-1.04-10.24-1.5-20.57-1.45-30.86c0.02-4.21,0.62-8.42,1.25-12.63c-29.93-6.81-43.93,12.65-38.59,5.31
		c3.75-5.15,7.8-7.57,9.96-8.58c-1.08-0.9-1.83-2.3-2.32-4.13c-0.64-2.39-0.75-4.91-1.31-7.33c-0.7-3.05-0.97-6.45-2.56-8.99
		c-5.44-8.69-10.23-16.62-13.73-26.25c39.14-27.56,71.93-46.4,72.35-46.62l-0.03-0.05c0.56,0.91,1.71,1.85,3.49,3.02
		c0.65,0.43,1.44,1.17,1.53,1.85c0.72,5.76,4.77,7.39,10.78,8.23c-0.21-2.82-0.2-5.48-0.64-8.07c-0.46-2.67-1.35-5.27-2.29-8.76
		c3.85,1.01,6.66,2.12,9.54,2.42c5.34,0.55,10.49,3.1,16.17-0.36c2.98-1.81,7.84-3.15,10.19,2.76c1.12,2.83,3.7,2.57,5.22-0.3
		c1.23-2.34,1.95-4.99,3.42-7.15c1.49-2.19,3.47-5.25,5.53-5.51c2.05-0.26,4.76,2.21,6.65,4.04c1.48,1.44,2.05,3.77,3.18,5.61
		c0.97,1.59,2.15,3.04,3.42,4.81c0.37-0.64,11.41-9.38,13.94-11.02c0,0,0,0,0,0c9,15.98,17.31,44.35-4.38,52.65
		c-0.84,0.27-1.68,0.54-2.5,0.84c-0.6,0.21-0.36,1.14,0.27,0.96c0.92-0.26,1.77-0.56,2.6-0.87c4.79-1.53,9.82-2.63,14.79-3
		c3.89-0.29,8.89-0.37,12.01,2.36c3.96,3.46,2.28,9.68,0.58,13.85c-1.91,4.71-5.24,8.18-8.9,11.58c-1.42,1.32-2.79,2.65-4.1,4.04
		c-0.38-2.36-0.24-4.85,1.2-7.59c-4.97,3.22-9.94,6.43-15.18,9.82c2.47,2.07,4.1,3.44,7.01,5.87c-5.29,1.08-8.94,2.16-12.65,2.49
		c-3.85,0.35-6.96,2-10.02,3.87c-2.67-5.61-4.54-9.29-5.21-10.6c6.85-3.52,13.72-7.02,20.55-10.57c1.46-0.76,3.81-1.5,4.05-2.61
		c1.17-5.34,5.85-7.39,9.04-10.83c0.84-0.9,0.39-3,0.53-4.55c-1.39,0.48-2.97,0.68-4.14,1.49c-2.64,1.82-5.02,4.02-7.62,5.9
		c-3.89,2.81-7.82,5.56-11.84,8.18c-3.85,2.5-7.59,5.53-11.83,7.03c-11.34,4.01-20.97,9.74-26.18,21.18
		c-1.29,2.84-0.02,5.69,2.95,6.12c1.42,0.2,2.84,0.47,4.26,0.7c4.72-8.17,5.69-19.8,18.43-21.16c0.01,0.01,0.02,0.03,0.03,0.05
		l-0.28,0.14c0.05,0.1,1.08,2.08,2.83,5.64c-4.12,0.22-4.32,0.96-4.5,5.88c2-1.83,3.45-3.15,5.1-4.66c0.57,1.16,1.19,2.46,1.88,3.89
		c-0.75,0.47-1.5,0.93-2.27,1.38c-5.57,3.23-6.43,4.87-2.79,9.69c2.24,2.97,3.84,6.43,5.63,9.73c0.73,1.34,1.19,2.82,1.77,4.23
		c0.49-0.04,0.97-0.09,1.46-0.13c0.44-3.03,0.85-6.06,1.33-9.08c0.17-1.11,0.14-2.53,0.64-3.36c3.49,7.76,7.54,17.19,11.77,27.87
		c0.1,10.81,0.9,21.64,1.89,32.33c0.64,6.99,1.41,13.97,2.26,20.93c-0.66,8.81-0.77,17.64,0.98,26.51
		c1.23,6.23,0.07,12.98,5.07,18.29c0.19,0.21,0.39,0.4,0.59,0.57c1.55,9.27,3.18,18.52,4.87,27.75c1.72,9.38,3.47,17.78,5.2,27.18
		C234.06,472.91,204.53,467.54,174.67,461.46z M181.35,363.51c-8.77-4.23-15.11-13.74-11.14-25.23c1.89,5.27,3.48,9.71,5.07,14.15
		c0.42-0.11,0.84-0.22,1.26-0.33l3.65,0.06C180.61,355.95,180.99,359.73,181.35,363.51z M277.08,465.73
		c-3.41-18.26-6.92-35.5-10.06-53.8c2.46,1.36,5.07,0.7,7.61-0.16c0.45-0.15-0.27-3.92-0.52-6.01c-0.09-0.76-0.38-1.49-0.71-2.67
		c0.93,0.41,1.44,0.5,1.76,0.8c3.06,2.88,6.05,4.93,9.1,6.15c3.25,17.56,5.4,34.98,5.5,53.17
		C285.41,464.19,281.18,465.03,277.08,465.73z M469.45,250.52c-1.06,8.91-1.19,18.05-3.26,26.71c-3.75,15.66-7.44,31.53-13.42,46.4
		c-5.99,14.88-13.68,29.36-22.61,42.69c-8.93,13.33-19.4,25.96-30.88,37.16c-11.49,11.2-24.38,21.33-37.92,29.95
		c-13.29,8.45-28.14,14.45-42.37,21.41c-3.7,1.81-6.61,2.2-10.42,3.79c-5.42,1.57-10.64,2.94-15.69,4.11
		c-0.14-16.38-2.95-33.08-6.41-51.96c6.22,1.65,12.75-0.15,20.47-5.6c4.02-2.84,9.24-3.99,13.95-5.82c3.99-1.54,8.12-2.76,12-4.54
		c0.91-0.42,1.05-2.51,1.55-3.83c-1.29-0.42-2.63-1.3-3.85-1.17c-2.29,0.25-4.49,1.19-6.77,1.66c-8.92,1.84-18.03,3.2-25.93-2.58
		c-5.7-4.17-11.62-7.54-18.38-9.34c-0.27-1.03-0.52-2.04-0.8-3.08c-2.87-10.77-6.05-21.23-9.36-31.18
		c7.21-1.17,14.76-1.76,19.5-8.78c0.08-0.12,0.61,0.06,1.21,0.14c0.16,0.96,0.33,1.98,0.5,3c0.39,0.12,0.78,0.25,1.17,0.37
		c0.94-2.12,1.9-4.24,2.8-6.37c0.56-1.32,0.79-2.84,1.59-3.97c3.61-5.07,8.17-9.64,10.88-15.14c3.9-7.89,8.64-14.81,14.93-20.97
		c4.59-4.49,9.62-9.29,12.08-14.98c2.38-5.52,7.17-7.98,10.49-12.11c1.59-1.98,4.81-2.73,7.38-3.85c2.78-1.21,5.66-2.21,9.64-3.74
		c-0.1,0.03,1.02-0.21,2.05-0.64c1.71-0.73,3.84-2.69,4.97-2.21c6.92,2.95,12.11,1.16,17.45-3.84c2.23-2.08,4.81-6.21,9.29-4.22
		c8.32,3.69,15.09-0.09,19.93-5.85c4.62-5.49,7.15-12.71,10.95-18.95c1.7-2.8,4.28-5.06,6.44-7.58c1.83-2.14,3.75-4.22,5.43-6.47
		c3.17-4.26,5.63-9.23,9.44-12.78c4.34-4.03,9.83-6.83,14.84-10.14c0.23-0.15,0.64-0.02,1.92-0.02c0.97,4.97,2.2,10.07,2.94,15.25
		c1.29,9.04,2.27,18.12,3.38,27.19c0,5.33,0,10.67,0,16C470.17,246.61,469.68,248.55,469.45,250.52z"/>
	<path class="st0" d="M311.86,435.8c0.24-3.45,0.41-5.84,0.62-8.92C308.3,430.68,308.26,431.17,311.86,435.8z"/>
	<path class="st0" d="M247.98,398.8c-0.51-5.13-0.93-9.33-1.4-14.14C239.82,388.91,239.87,389.45,247.98,398.8z"/>
	<path class="st0" d="M252.77,424.88c2.83-1.79,5.7-3.61,9.4-5.95C253.13,417.68,251.13,419.34,252.77,424.88z"/>
	<path class="st0" d="M308.32,419.03c-4.66,0.4-8.01,0.69-12.15,1.04C299.88,424.7,303.9,424.42,308.32,419.03z"/>
	<path d="M368.51,62.45c0.7-0.39,1.22-1.11,1.82-1.68c7.48-6.94,6.95-11.31-1.93-16c-0.28-0.15-0.64-0.13-2.41-0.47
		c-1.98,4.17-4.66,8.21-5.69,12.64c-0.56,2.43,1.68,5.51,2.66,8.3C364.82,64.32,366.7,63.46,368.51,62.45z"/>
	<path d="M290.13,393.75c-8.45-4.45-17.54-6.8-27.08-7.84C269.69,396.54,280.96,391.52,290.13,393.75z"/>
	<path d="M462.34,179.09c-0.57-1.91-1.2-4.01-2.18-7.27c-3.37,2.35-5.88,4.1-8.38,5.85c3.15,0.8,6.29,1.6,9.45,2.36
		C461.4,180.06,461.7,179.63,462.34,179.09z"/>
	<path d="M291.64,28.6c-0.57-0.47-1.15-0.94-1.72-1.42c-2.65,3.33-5.3,6.66-7.95,9.99c0.42,0.34,0.84,0.69,1.25,1.03
		C286.03,35,288.84,31.8,291.64,28.6z"/>
	<path d="M221.22,166.91c0.68,0.72,3.2-0.28,6.03-0.64c-3.77-3.01-6.27-5.02-8.76-7.02c-0.44,0.25-0.89,0.5-1.33,0.75
		C218.46,162.36,219.44,165.01,221.22,166.91z"/>
	<polygon points="147.89,277.43 147.89,277.43 147.89,277.43 	"/>
	<path d="M121.98,276.58c-2.58,0.64-4.47,0.31-5.82-0.82c-2.16,1.01-6.21,3.43-9.96,8.58c-5.34,7.34,8.66-12.12,38.59-5.31
		c0.16-1.06,0.32-2.12,0.48-3.18C137.5,277.58,129.7,274.65,121.98,276.58z"/>
	<path d="M62.57,251.94c6.54-5.19,13.1-10.19,19.58-14.96c-3.15-6.85-6.55-13.61-10.34-20.22c-5.91-10.3-8.47-22.61-11.95-34.19
		c-2.19-7.29-3.48-14.87-4.84-22.38c-1.37-7.61,2.93-13.35,10.56-14.09c4.24-0.41,8.91-0.01,14.42,10.86
		c-9.38-11.73-10.03,2.66-8.53,10.12c3.61,17.95,9.28,19.11,9.28,19.11s-3.54,0.77-0.84,13.14c1.47,6.74,4.87,12.93,7.56,19.29
		c0.35,0.82,2.1,0.94,2.93,1.69c1.78,1.62,4.22,3.16,4.91,5.23c0.18,0.53,0.38,1.04,0.56,1.57c39.09-27.51,71.8-45.3,72.22-45.53
		l0.3,0.55c-0.73-1.55,0.29-3.07,3.14-5.55c5.26-4.59,10.79-8.87,16.18-13.31c1.14-0.94,2.17-2.01,3.23-3
		c0.63,2.24,0.63,2.24-4.99,10.82c3.1,2.02,6.07,4.3,9.35,5.98c2.14,1.1,4.9,1.8,5.64-3.01c1.36,1.86,2.26,3.1,3.21,4.41
		c5.43-2.15,12.45-0.69,16.18-7.1c-3.67,1.15-7.35,2.31-11.36,3.57c2.73-3.9,6.14-6.95,7.09-10.63c0.96-3.74-0.52-8.1-1.01-13.05
		c16.34,4.78,32.14,8.58,43.73,22.13c0.22-0.18,0.57-0.21,0.74,0.11c8.62,15.31,16.16,41.15-0.26,51.76c2.88-0.7,5.8-1.23,8.71-1.54
		c5.89-0.63,14.84-0.55,16.62,6.62c1.19,4.82-1.01,10.54-3.57,14.68c-2.57,4.15-6.38,7.18-9.83,10.55
		c-0.68,0.66-1.31,1.34-1.93,2.03c0.87,3.69,2.78,7.1,2.69,10.69c0.49,0.27,0.97,0.55,1.46,0.82c3.9-3.88,8.89-7.15,11.49-11.76
		c8.68-15.38,22.53-25.04,36.96-33.51c24.9-14.63,51.43-26.13,79.03-34.61c11.99-3.69,24.82-4.65,37.27-6.85
		c2.55-0.45,5.11-0.9,7.66-1.36c-0.02-0.42-0.05-0.84-0.07-1.26c-4.14-0.19-8.27-0.57-12.4-0.54c-9.34,0.05-18.18-6.12-21.61-14.87
		c-2.42-6.18-5.08-12.29-8.08-18.21c-2.26-4.47-0.08-6.44,3.45-8.16c1.73-0.84,3.43-1.74,5.15-2.61c0-0.54,0-1.07,0-1.61
		c-3.22-0.59-6.44-1.18-9.66-1.78c-2.76-0.51-5.63-0.74-8.23-1.7c-1.25-0.46-2.54-2.24-2.74-3.58c-0.12-0.79,1.7-2.36,2.92-2.77
		c2.33-0.79,4.93-0.78,7.29-1.49c4.4-1.33,8.71-2.92,13.05-4.43c2.78-0.97,5.55-1.94,8.29-3c3.12-1.21,6.19-2.52,9.87-4.02
		c-13.75-21.72-30.76-40.73-51.39-56.47c-5.59,4.59-6.7,10.04-5.6,16.34c0.43,2.47,0.84,5.57-2.31,4.75
		c-3.6,7.28-6.93,14.02-10.23,20.7c-4.35,2.46-11.29-3.29-13.68,3.04c-3.8,0.89-6.47,1.53-9.14,2.14c-1.11,0.25-2.22,0.6-3.34,0.67
		c-9.38,0.54-18.76,1.38-28.14,1.38c-4.03,0-8.02-2.26-12.1-2.63c-10.22-0.92-15.15-5.49-15.29-16.42
		c-0.08-6.42-0.95-12.5,2.45-18.31c0.78-1.34,1.12-2.93,1.67-4.4c-0.37-0.33-0.74-0.66-1.11-0.99c-3.89,2.96-8.04,5.64-11.6,8.96
		c-4.3,4.01-8.54,3.86-10.9-1.55c-1.64-3.75-2.13-8-3.16-12.02c-0.27-1.06-0.6-2.1-1.24-4.28c-1.82,3.12-3.03,5.41-4.45,7.56
		c-1.95,2.98-4.09,3.3-6.11,0.02c-1.05-1.7-1.97-3.48-2.96-5.22c-5.04-8.83-11.93-16.04-18.91-23.37c-2.91-3.05-9.28-3.08-8.94-9.17
		c-0.67,0-1.33,0-2,0c-2.48,1.83-4.96,3.65-8,5.89c1.76,5.44,3.81,11.76,5.86,18.08c-0.47,0.21-0.94,0.43-1.41,0.64
		c-2.38-3.27-4.55-6.73-7.22-9.74c-1.53-1.72-3.88-2.72-5.86-4.05c-1.02,1.93-1.99,3.89-3.08,5.78c-1.21,2.09-2.14,5.44-3.87,5.95
		c-9.63,2.81-14.67,11.24-21.87,16.96c-2.2,1.75-3.74,4.4-6.06,5.9c-3.93,2.55-8.02,5.41-12.45,6.52
		c-6.9,1.72-13.03,4.04-17.12,10.12c-3.14,4.66-6.74,9.13-9.09,14.17c-2.93,6.27,1.86,17.12,8.17,19.99
		c0.89,0.41,2.21,0.19,3.23-0.09c0.93-0.25,1.68-1.07,2.58-1.49c3.16-1.46,6.96-2.75,8.64,1.08c0.65,1.49-2.01,5.01-3.89,6.89
		c-2.87,2.87-7.03,4.6-9.43,7.74c-3.93,5.13-3.18,10.97-2.38,17.56c3.11,25.66-0.43,16.01-6.96,10.09
		c-3.52-3.19-9.41,1.34-14.66,2.12c2.28-7.24,8.98-6.27,14.29-8.74c-0.59-1.76-1.18-3.58-1.8-5.38c-2.75-8.02-2.11-15.51,4-21.8
		c3.27-3.36,1.59-5.76-1.1-7.82c-11.8-9.04-13.58-17.3-6.87-30.62c2.64-5.25,4.69-10.71,10.83-13.01c0.67-0.25,1.49-1.75,1.29-2.38
		c-2.65-8.77,3.34-14.2,8.13-19.6c3.91-4.42,9.07-7.76,13.79-11.42c8.39-6.51,16.87-12.91,25.31-19.35
		c7.63-6.61,21.64-10.89,10.64-10.89c-18.78,2.14-47.11,12.83-48.89,13.69C65.47,60.42,21.12,118.84,6.14,199.53
		c-1.36,7.32-1.58,14.86-2.4,22.28c-0.25,2.3-0.75,4.57-1.14,6.85c0,5.33,0,10.67,0,16c1.03,8.56,1.66,17.19,3.14,25.67
		c1.65,9.48,3.71,18.62,6.13,27.47C26.01,282.85,42.96,267.51,62.57,251.94z M173.12,113.11c1.21-6.72,10.92-13.54,19.03-13.75
		c7.24-0.19,14.87,5.65,17.09,13.55c-1.76,0.29-3.5,0.97-5.14,0.77c-7.21-0.88-12.43,3.06-13.48,10.58
		c-0.34,2.47-0.21,5.02-0.71,7.45c-0.3,1.44-1.4,2.71-2.14,4.06c-1.02-1.11-2.49-2.06-2.98-3.37c-0.98-2.63-1.4-5.47-2.1-8.21
		c-0.99-3.84-2.09-7.43-7.31-7.32C174.6,116.87,172.91,114.25,173.12,113.11z"/>
	<path d="M264.39,275.93c-0.2-1.65-0.27-3.32-0.56-4.96c-0.25-1.43-0.81-2.26-1.57-2.51c-2.34,5.14-3.8,10.7-4.71,16.41
		c0.55-0.39,1.12-0.69,1.64-0.81C263.94,282.9,264.88,280.07,264.39,275.93z"/>
	<path d="M100.35,425.89c6.43,4.51,13.19,8.75,20.24,12.76c-6.8-7.64-12.86-15.62-18.16-23.91
		C101.58,418.41,100.9,422.13,100.35,425.89z"/>
	<path d="M86.24,382.45c-7.56-20.21-11.22-41.84-10.87-64.29c0.59-38.22,12.77-65.95,12.9-66.22l0.45,0.2
		c-1.96-4.78-3.99-8.53-6.13-13.23c-6.41,4.73-12.91,9.68-19.39,14.83c-19.76,15.69-36.81,32.15-51,47.19
		c14.93,53.71,44.1,93.8,87.34,124.39c0.43-4.05,1.01-8.15,1.94-12.09C95.32,403.37,90.22,393.11,86.24,382.45z"/>
	<path d="M176.55,352.11c-0.42,0.11-0.84,0.22-1.26,0.33c-1.59-4.44-3.18-8.88-5.07-14.15c-3.97,11.48,2.37,21,11.14,25.23
		c-0.36-3.78-0.75-7.57-1.16-11.35L176.55,352.11z"/>
	<path d="M256.49,285.75c0.84-5.89,2.16-11.78,4.5-17.24c-0.45,0.16-0.92,0.45-1.41,0.88c-4.98,4.36-9.87,8.83-14.66,13.4
		c3.01,6.7,6.45,14.65,10.06,23.59c0.03-1.87,0.09-3.75,0.17-5.62c-1.15-3.61-0.93-7.95-0.56-11.82
		C254.69,287.95,255.49,286.74,256.49,285.75z"/>
	<path d="M265.74,411.02c-0.2-0.17-0.39-0.36-0.59-0.57c-4.99-5.31-3.84-12.06-5.07-18.29c-1.75-8.88-1.63-17.7-0.98-26.51
		c-0.84-6.97-1.61-13.95-2.26-20.93c-0.98-10.7-1.79-21.53-1.89-32.33c-4.23-10.68-8.28-20.11-11.77-27.87
		c-0.51,0.83-0.47,2.26-0.64,3.36c-0.48,3.02-0.89,6.05-1.33,9.08c-0.49,0.04-0.97,0.09-1.46,0.13c-0.58-1.41-1.04-2.89-1.77-4.23
		c-1.79-3.29-3.4-6.75-5.63-9.73c-3.63-4.82-2.78-6.46,2.79-9.69c0.77-0.45,1.52-0.91,2.27-1.38c-0.68-1.43-1.31-2.73-1.88-3.89
		c-1.65,1.51-3.1,2.83-5.1,4.66c0.19-4.92,0.38-5.66,4.5-5.88c-1.75-3.56-2.78-5.54-2.83-5.64l0.28-0.14
		c-0.01-0.01-0.02-0.04-0.03-0.05c-12.73,1.36-13.71,12.99-18.43,21.16c-1.42-0.24-2.83-0.5-4.26-0.7
		c-2.97-0.43-4.24-3.28-2.95-6.12c5.21-11.45,14.84-17.17,26.18-21.18c4.24-1.5,7.98-4.53,11.83-7.03
		c4.02-2.61,7.95-5.37,11.84-8.18c2.6-1.88,4.98-4.09,7.62-5.9c1.17-0.8,2.75-1.01,4.14-1.49c-0.14,1.55,0.31,3.65-0.53,4.55
		c-3.2,3.45-7.87,5.49-9.04,10.83c-0.24,1.12-2.59,1.86-4.05,2.61c-6.84,3.55-13.7,7.06-20.55,10.57c0.68,1.31,2.54,4.99,5.21,10.6
		c3.06-1.86,6.18-3.52,10.02-3.87c3.71-0.34,7.35-1.42,12.65-2.49c-2.9-2.43-4.53-3.8-7.01-5.87c5.24-3.39,10.21-6.61,15.18-9.82
		c-1.44,2.75-1.59,5.24-1.2,7.59c1.31-1.39,2.68-2.72,4.1-4.04c3.66-3.4,6.99-6.88,8.9-11.58c1.69-4.17,3.38-10.39-0.58-13.85
		c-3.13-2.73-8.13-2.65-12.01-2.36c-4.97,0.37-10,1.47-14.79,3c-0.83,0.32-1.69,0.62-2.6,0.87c-0.63,0.18-0.86-0.75-0.27-0.96
		c0.83-0.29,1.66-0.57,2.5-0.84c21.69-8.3,13.38-36.67,4.38-52.65c0,0,0,0,0,0c-2.53,1.63-13.57,10.38-13.94,11.02
		c-1.27-1.77-2.45-3.23-3.42-4.81c-1.13-1.84-1.7-4.18-3.18-5.61c-1.88-1.83-4.6-4.3-6.65-4.04c-2.07,0.26-4.04,3.32-5.53,5.51
		c-1.47,2.16-2.19,4.81-3.42,7.15c-1.52,2.87-4.09,3.12-5.22,0.3c-2.35-5.91-7.21-4.57-10.19-2.76c-5.69,3.46-10.84,0.91-16.17,0.36
		c-2.89-0.3-5.69-1.41-9.54-2.42c0.94,3.49,1.83,6.09,2.29,8.76c0.44,2.59,0.44,5.26,0.64,8.07c-6.01-0.83-10.06-2.47-10.78-8.23
		c-0.08-0.68-0.88-1.42-1.53-1.85c-1.77-1.17-2.93-2.11-3.49-3.02l0.03,0.05c-0.42,0.23-33.21,19.06-72.35,46.62
		c3.51,9.63,8.29,17.56,13.73,26.25c1.59,2.54,1.86,5.94,2.56,8.99c0.56,2.42,0.67,4.94,1.31,7.33c0.49,1.82,1.24,3.23,2.32,4.13
		c1.36,1.13,3.25,1.47,5.82,0.82c7.72-1.93,15.52,1.01,23.28-0.73c-0.16,1.06-0.32,2.12-0.48,3.18c-0.63,4.21-1.23,8.42-1.25,12.63
		c-0.05,10.29,0.41,20.63,1.45,30.86c0.85,8.4,2.87,16.68,4.34,25.02c0.22,1.26,0.28,2.55,0.41,3.83c-0.39,0.31-0.78,0.63-1.17,0.94
		c-4.59-4.25-9.19-8.51-14.44-13.37c1.93-0.51,2.91-0.76,3.91-1.03c-0.09-0.14-0.21-0.29-0.33-0.43c2.88-0.15,4.59,2.35,4.59,2.35
		c0.48-2.09,0-3.38,0-3.38c-2.41-6.43-8.52-9.8-8.52-9.8c-7.77-3.46-16.13-2.83-22.74-1.24c-1.64-2.24-3.49-4.37-5.04-6.67
		c-5.98-8.85-10.47-17.91-4.33-28.71c0.74-1.3,0.4-3.64-0.2-5.2c-4.14-10.7-8.16-21.44-12.5-32.04
		c-1.55,3.69-12.08,30.02-12.62,65.42c-0.39,25.42,4.92,57.83,25.91,92.01c0.93-3.55,1.72-5.37,3.45-8.45
		c2.63-4.71,6.27-8.06,7.94-13.38c1.86-5.91,2.57-12.21,3.2-18.35c1.22-12.07,1.66-24.23,2-36.35c0.02-0.64,1.02-0.64,1,0
		c-0.32,11.62-0.75,23.26-1.85,34.84c-0.83,8.77-1.42,19.24-6.46,26.84c-3.28,4.95-6.99,9.72-8.62,15.65c0,0,6.11,10.61,21.95,30
		c6.88,3.8,12.49,6.52,19.94,9.85c-7.41-21.39-13.36-56-15.12-111.31l0.75-0.02c1.77,55.86,7.79,90.51,15.25,111.72
		c3.97,1.76,7.99,3.47,12.12,5.1c2.61,1.03,5.17,2.17,7.75,3.26c2.67,0.52,4.34,0.86,6.99,1.4c10.61-13.22,12.65-47.22,9.89-84.49
		c-1.33-0.3-2.53-0.7-3.47-1.3c-2.06-1.31-3.88-2.99-6.59-5.11c-0.57,3.51-0.98,6.07-1.49,9.23c-8.24-17.82-6.77-35.46-3.1-53.15
		c2.17-10.45,2.03-20.83-0.06-31.21c-0.9-4.45-0.04-6.24,3.51-5.76c-2.32-13.63-4.46-24.94-5.91-32.33
		c-0.28,0.24-0.59,0.49-0.94,0.74c-1.07-2.4-2.05-4.61-3.31-7.46c-4.39,4.09-0.54,7.78-1.34,11.97c-1.62-2.43-3.24-4.85-4.72-7.08
		c-1.61,1.92-3.28,3.91-5.6,6.67c-1.61-4.79,0.69-7.8,2.7-10.44c2.67-3.51,5.82-6.69,9.08-9.68c1.65-1.52,3.98-2.3,6-3.41
		c0.38,0.5,0.76,0.99,1.15,1.49c-1.43,2.51-2.86,5.01-4.41,7.73l0.49-0.1c0.01,0.05,0.13,0.63,0.35,1.66
		c1.48,2.07,3.95,4.17,1.43,7.07c1.47,7.44,3.71,19.18,6.13,33.38c0.25,0.06,0.5,0.12,0.78,0.19c3.91,1.05,7.51,3.41,11.44,4.15
		c3.29,0.62,6.97,0.18,10.3-0.56c4.42-0.97,7.55-0.46,8.28,3.94c2.68,0.36,4.92,0.66,7.38,0.99c-0.32-0.88-0.72-1.99-1.34-3.69
		c1.96,0.61,3.42,1.06,5.7,1.76c-0.92-1.82-1.46-2.9-2-3.96c0.39-0.3,0.75-0.7,0.85-0.64c4.15,2.48,6.56-1.78,9.61-2.86
		c3.45-1.22,4.51-0.61,5.39,2.45c2.1,7.31,4.56,14.52,6.37,21.89c3.27,13.32,6.17,26.74,9.22,40.11l-2.95-0.05
		c-12.21-2.39-24.57-4.38-36.92-3.24c-5.1,0.47-10.14,1.47-15.18,2.37l-8.01-0.13c0.44,4.05,0.85,8,1.21,11.84
		c0.34,0.14,0.68,0.28,1.03,0.41c4.19,1.54,9.08,1.13,13.62,1.8c2.57,0.38,5.43,0.57,7.58,1.82c9.73,5.69,19.33,11.62,28.81,17.72
		c1.74,1.12,3.16,3.27,3.93,5.26c2.17,5.61,3.93,11.39,6.14,17.99c1.5-1.82,1.97-2.39,3.1-3.76c-0.62,9.2-8.8,4.47-9.39,13.28
		c-7.73-3.04,0.84-21.23-3.58-26.8c-7.51-9.47-8.72,6.76-17.16-1.9c-3.11-3.19-14.49-8.12-18.49-10.46
		c-3.34-1.96-9.64-1.75-14.52-2.61c3.29,44.31,0.32,72.7-8.88,84.7c29.86,6.08,59.39,11.45,101.14,4.49
		c-1.73-9.4-3.48-17.79-5.2-27.18C268.92,429.54,267.29,420.29,265.74,411.02z M255.82,197.88c1.19,1.78,3.38,3.57,3.37,5.35
		c-0.03,4.19-1.1,8.37-1.77,12.61c-3.8-3.73-5.15-9.11-5.51-14.68C251.85,200.16,254.45,198.98,255.82,197.88z M157.64,272.38
		c-2.56,3.15-5.52,6.78-7.9,9.71c-0.54-1.37-1.17-2.96-1.84-4.66c0,0,0,0,0,0c-0.51-1.29-1.05-2.65-1.59-4.02
		c0.98-2.87,1.87-6.83,2.47-7.8C151.38,267.6,154.24,269.78,157.64,272.38z M171.11,234.27c-0.56-0.11-1.11-0.21-1.67-0.32
		c0.25-4.09,0.35-8.2,0.78-12.27c0.47-4.43,1.04-8.88,1.99-13.23c0.46-2.1,1.86-3.99,2.84-5.98c0.81,0.28,1.62,0.56,2.43,0.85
		C176.77,213.89,174.39,224.16,171.11,234.27z M213.59,231.99c-0.57,0.64-1.15,1.27-1.72,1.91c-3.96-3.7-7.91-7.4-12.74-11.92
		C207.78,222.12,208.4,229.7,213.59,231.99z M185.68,255.16c5.45-0.25,10.91-0.77,16.36-0.68c4.46,0.08,8.06-0.25,7.97-6.11
		c1.05,6.89,0.65,7.43-5.54,7.5C198.24,255.95,192.01,255.89,185.68,255.16z M246.58,384.66c0.48,4.81,0.89,9.01,1.4,14.14
		C239.87,389.45,239.82,388.91,246.58,384.66z M252.77,424.88c-1.64-5.53,0.36-7.2,9.4-5.95
		C258.47,421.27,255.6,423.09,252.77,424.88z"/>
	<path d="M261.54,332.49c-0.01-1.25-0.04-2.49-0.09-3.72c-1.81-4.95-3.62-9.73-5.4-14.29c0.23,15.5,1.6,31.01,3.45,46.42
		C260.37,351.44,261.59,341.98,261.54,332.49z"/>
	<path d="M260.81,321.29c-0.81-6.17-2.32-12.16-4.72-18.09c-0.03,1.61-0.05,3.2-0.07,4.78c0,0.34,0.01,0.67,0,1.01
		C257.6,312.92,259.2,317.03,260.81,321.29z"/>
	<path d="M275.16,403.9c-0.32-0.3-0.83-0.39-1.76-0.8c0.32,1.18,0.62,1.91,0.71,2.67c0.25,2.09,0.98,5.85,0.52,6.01
		c-2.54,0.86-5.14,1.52-7.61,0.16c3.14,18.31,6.65,35.54,10.06,53.8c4.1-0.71,8.33-1.55,12.68-2.52c-0.1-18.19-2.26-35.61-5.5-53.17
		C281.21,408.82,278.21,406.77,275.16,403.9z"/>
	<path d="M467.16,201.47c-0.74-5.17-1.96-10.27-2.94-15.25c-1.28,0-1.69-0.13-1.92,0.02c-5.01,3.31-10.5,6.11-14.84,10.14
		c-3.81,3.54-6.27,8.52-9.44,12.78c-1.68,2.25-3.6,4.33-5.43,6.47c-2.16,2.52-4.74,4.78-6.44,7.58c-3.8,6.24-6.33,13.46-10.95,18.95
		c-4.84,5.75-11.6,9.54-19.93,5.85c-4.48-1.99-7.06,2.13-9.29,4.22c-5.34,5-10.53,6.8-17.45,3.84c-1.13-0.48-3.26,1.48-4.97,2.21
		c-1.03,0.44-2.14,0.67-2.05,0.64c-3.98,1.53-6.86,2.53-9.64,3.74c-2.56,1.12-5.78,1.86-7.38,3.85c-3.32,4.13-8.11,6.59-10.49,12.11
		c-2.46,5.69-7.49,10.49-12.08,14.98c-6.29,6.16-11.03,13.08-14.93,20.97c-2.72,5.49-7.28,10.06-10.88,15.14
		c-0.8,1.13-1.04,2.65-1.59,3.97c-0.91,2.14-1.87,4.25-2.8,6.37c-0.39-0.12-0.78-0.25-1.17-0.37c-0.17-1.02-0.34-2.05-0.5-3
		c-0.6-0.08-1.13-0.26-1.21-0.14c-4.74,7.02-12.29,7.61-19.5,8.78c3.3,9.95,6.48,20.42,9.36,31.18c0.28,1.03,0.53,2.05,0.8,3.08
		c6.77,1.79,12.68,5.16,18.38,9.34c7.9,5.78,17.02,4.43,25.93,2.58c2.28-0.47,4.48-1.41,6.77-1.66c1.23-0.13,2.56,0.74,3.85,1.17
		c-0.5,1.32-0.64,3.41-1.55,3.83c-3.88,1.78-8.01,2.99-12,4.54c-4.71,1.82-9.93,2.98-13.95,5.82c-7.72,5.45-14.25,7.25-20.47,5.6
		c3.47,18.88,6.27,35.58,6.41,51.96c5.05-1.17,10.27-2.53,15.69-4.11c3.81-1.58,6.72-1.97,10.42-3.79
		c14.22-6.96,29.08-12.96,42.37-21.41c13.54-8.61,26.44-18.74,37.92-29.95c11.48-11.2,21.95-23.83,30.88-37.16
		c8.93-13.33,16.62-27.81,22.61-42.69c5.98-14.87,9.67-30.74,13.42-46.4c2.08-8.67,2.2-17.8,3.26-26.71
		c0.23-1.97,0.72-3.91,1.09-5.86c0-5.33,0-10.67,0-16C469.43,219.6,468.45,210.51,467.16,201.47z M296.17,420.07
		c4.14-0.36,7.49-0.64,12.15-1.04C303.9,424.42,299.88,424.7,296.17,420.07z M311.86,435.8c-3.6-4.63-3.56-5.12,0.62-8.92
		C312.27,429.96,312.1,432.35,311.86,435.8z"/>
	<path d="M267.35,345.68c-2.93,0.6-4.44,1.84-4.69,4.95c-0.54,6.63-1.26,13.25-1.87,19.87c-0.02,0.17-0.01,0.32-0.01,0.48
		c0.11,0.82,0.22,1.63,0.33,2.44c0.6,1.61,1.97,2.65,4.22,3.09c4,0.78,8.01,1.56,11.97,2.53c-0.17-0.66-0.35-1.32-0.52-1.98
		C273.88,366.22,270.68,355.69,267.35,345.68z"/>
</g>
</svg>
