<?xml version="1.0" encoding="utf-8"?>
<!-- Generator: Adobe Illustrator 23.0.1, SVG Export Plug-In . SVG Version: 6.00 Build 0)  -->
<svg version="1.1" id="Calque_1" xmlns="http://www.w3.org/2000/svg" xmlns:xlink="http://www.w3.org/1999/xlink" x="0px" y="0px"
	 viewBox="0 0 269.6 166.44" style="enable-background:new 0 0 269.6 166.44;" xml:space="preserve">
<path d="M200.8,136.01c1.33-3.04,6.32,1.87,6.85-2.9c1.38,0.18,2.89,0.09,4.13,0.6c0.82,0.34,1.63,0.78,2.44,1.25
	c0.76-0.42,1.54-0.82,2.32-1.19c-1.05-0.29-2.23-0.61-3.64-1.01c3.47-2.34,5.36-2.1,6.58-0.27c2.38-0.95,4.82-1.71,7.3-2.26
	c-0.59-0.77-1.17-1.53-1.77-2.31c2.67-0.85,4.94-1.45,7.28,0.94c0.14,0.15,0.27,0.3,0.41,0.44c1.25-0.11,2.5-0.18,3.74-0.18
	c0.09,0,0.17,0.01,0.26,0.01c0.91-0.87,1.85-1.71,2.84-2.5c-0.45-0.81-0.9-1.64-1.34-2.49c2.95-3.99,6.73-5.38,10.69-6.46
	c2.84-0.77,5.5-0.6,7.51,0.34c4.01-1.13,8.13-1.75,12.18-1.75c0.34,0,0.68,0.02,1.02,0.03c-0.47-0.4-0.95-0.79-1.4-1.21
	c-3.44-3.16-6.14-6.91-8.19-11c-2.15-2.94-3.79-6.26-5.3-9.68c0.68,0.16,1.3,0.36,1.89,0.59c-1.08-4.07-1.69-8.28-1.88-12.43
	c-0.07-1.59-0.01-3.21,0.16-4.84c-0.22-0.34-0.38-0.69-0.44-1.06l0.47,0.81c0.26-2.34,0.74-4.7,1.42-7.03
	c-0.21-1.1-0.38-2.21-0.52-3.32c-1.74-1.82-3.25-4.24-3.46-6.44c-0.57-5.85-4.69-9.79-7.46-14.29c-4.08-6.63-9.25-12.66-14.22-18.75
	c-1.31-1.61-3.46-3.43-5.38-3.6c-6.36-0.58-10.34-7.71-17.57-5.64c-0.49,0.14-1.42-1.2-2.16-1.83c-0.67-0.57-1.33-1.55-2.06-1.61
	c-8.47-0.65-16.96-1.16-25.7-1.73c-3.97-2.41-8.15-6.38-13.08-7.61c-7.8-1.95-15.59-4.81-23.65-5.08
	c-4.12-0.14-9.35-2.02-12.82,2.49c-0.35,0.46-1.29,0.87-1.84,0.76c-7.9-1.58-15.35,0.7-22.83,2.47c-2.53,0.6-4.83,2.29-7.36,2.68
	c-2.32,0.36-4.83-0.5-7.25-0.52c-1.04-0.01-2.09,0.74-3.98,1.47c1.9,1.15,2.97,1.8,4.83,2.93c-2.5,0.56-5.38,0.48-5.8,1.41
	c-2.36,5.3-12.32,2.37-11.92,10.32c0,0.07-0.45,0.14-0.68,0.25c-4.41,2.09-9.44,3.27-10.94,8.98c-0.38,1.44-3.32,2.25-5.22,3.44
	c3.84,4.15,5.43-2.48,8.9-0.99c-0.93,2.4-1.74,4.48-2.76,7.09c2.7-1.12,4.75-1.96,6.82-2.82c1.62,2.91-3.11,6.3,2.35,8.1
	c1.68-3,4.6-4.21,8.35-3.74c2.72,0.34,5.35-1.48,8.3,1.31c1.54,1.46,5.91-0.03,8.96,0.23c2.02,0.17,3.98,1.09,6.99,1.98
	c-3.59,2.3-6.28,4.01-9.26,5.92c0.89,1.06,1.64,1.95,2.42,2.89c2.9-1.71,5.54-3.28,9.21-5.44c-0.33,3.03-0.54,4.91-0.79,7.2
	c-1.47-1.04-2.21-1.56-2.69-1.89c-1.65,3.18-3.21,6.18-4.56,8.76c-8.97,1.72-16.27-0.79-22.86-5.18c-1.35,1.46-2.33,2.53-3.74,4.07
	v-6.81c-3.36,4.29-6.87,5.53-10.76,5.75c-1.83,0.1-3.9-0.8-5.51-0.27c-6.2,2.03-12.52,3.98-18.29,6.89
	c-4.49,2.26-8.23,5.9-12.29,8.94c-2.1,1.57-4.43,2.95-6.22,4.8c-2.37,2.45-3.93,5.73-6.55,7.82c-3.28,2.62-4,6.84-3.6,9.33
	c0.79,4.89-0.96,5.9-5.09,6.55c-0.96,0.15-1.63,1.96-2.59,3.21c1.89,0.63,3.24,1.09,5.4,1.81c-1.29,5.82-2.56,11.54-3.98,17.93
	c2.16-0.93,3.46-1.49,5.03-2.17c-0.89,4.16-1.64,7.62-2.38,11.09c2.86-1.18,5.1-4.8,5.97-4.52c5.8,1.88,5.8-2.55,7.5-5.38
	c0.48-0.8,2.22-1.81,2.72-1.55c3.16,1.67,4.64-0.83,6.3-2.27c1.67-1.45,3.07-2.91,6.16-2.64c-0.91,2.46-1.61,4.37-2.45,6.64
	c1.62,0.14,3.03,0.27,3.85,0.34c1.39-4.5,2.62-8.51,4.19-13.59c1.25,2.35,1.8,3.37,2.64,4.95c5.23-5.87,9.17-12.67,16.75-16.55
	c0.55,3.95-1.4,5.83-4.1,7.42c-2.84,1.67-4.84,3.8-3.34,7.7c1.98-1.15,3.57-2.07,6.19-3.59c-1.11,4.94-2.84,7.75-6.58,9.41
	c-0.8,0.35-1.01,1.91-1.67,3.28c2.07-0.5,3.51-0.85,6.72-1.63c-2.67,4.17-4.22,7.17-6.34,9.71c-1.7,2.04-2.66,3.93-1.79,6.42
	c1.54-1.61,3.03-3.29,4.66-4.82c1.83-1.71,3.8-3.29,5.71-4.93c1.32,3.7,4.52,5.32,9.76,6c-3.08,2.14-4.87,3.38-6.65,4.62
	c3.4,0.03,6.51-0.91,9.69-1.41c4.43-0.7,9.3-0.43,13.3-1.49c4.15-1.1,7.04,0.42,10.19,1.29c1.22,0.34,1.33,1.63,3.05,0.17
	c1.72-1.45,4.37-1.87,6.55-2.71c0.16,1.24,0.3,2.34,0.45,3.44c1.13-0.15,2.55,0.05,3.31-0.54c1.25-0.96,2.07-2.44,3.65-4.41
	c0.78,2.38,1.31,4,1.94,5.93c1.7-0.38,3.43-0.76,6.26-1.38c-2.31,2.82-3.94,4.8-5.86,7.14c1.32,1.51,2.6,2.97,4.27,4.88
	c1.1-2.91,1.78-4.73,2.47-6.55c1.02,2.89,2.63,5.11,0.01,8.03c-1.85,2.06-1.5,5.93-2.13,8.99c0.45,0.16,0.91,0.33,1.36,0.49
	c1.33-2.08,2.67-4.16,4.07-6.35c0.82,0.14,1.59,0.5,2.2,0.33c3.81-1.04,8.72-1.17,11.08-3.57c3.1-3.17,7.48,2.82,9.17-2.21
	c7.1,0.84,11.3-3.25,15.26-8.02c1.17-1.41,3.38-3.16,4.84-2.96c2.17,0.3,3.15-0.1,4.1-1.71c2.83-4.85,7.35-5.4,12.21-3.84
	c2.92,0.94,4.46,0.27,5.59-2.24c0.24-0.53,0.74-0.96,1.23-1.57c1.8,1.24,3.35,2.31,4.74,3.27
	C196.02,136.76,197.75,133.22,200.8,136.01z M61.27,133.37c-0.66,0.48-1.36,1.08-2.12,1.19c-0.57,0.08-1.23-0.37-1.89-0.66
	c0.5-0.44,0.95-0.97,1.53-1.25c0.57-0.27,1.29-0.37,1.93-0.32C60.94,132.35,61.33,133.32,61.27,133.37z M58.88,101.02
	c0.34-0.72,0.6-1.48,1.03-2.15c0.43-0.68,1.02-1.28,1.99-2.45C63.18,100,60.66,100.25,58.88,101.02z M67.04,93.93
	c-0.58-0.98-1.16-1.96-1.67-2.98c-0.02-0.03,2.47-3.07,2.49-3.05c0.67,0.97,1.22,1.85,1.83,2.84
	C69.24,90.96,67.49,93.72,67.04,93.93z M73.52,84.91c-0.39-0.34-1.08-2.41-1.47-2.75c1.54-4.39,5.32-6.79,9.45-8.73
	c0.52-0.25,1.78,0.96,2.58,1.44C80.18,77.86,77,82.25,73.52,84.91z M84.17,71.9c2.69-0.44,4.53-0.75,6.37-1.05
	c0.09,0.55,0.18,1.11,0.26,1.68C89.01,73.35,87.4,75.9,84.17,71.9z"/>
</svg>
