<?xml version="1.0" encoding="utf-8"?>
<!-- Generator: Adobe Illustrator 23.0.1, SVG Export Plug-In . SVG Version: 6.00 Build 0)  -->
<svg version="1.1" id="Calque_1" xmlns="http://www.w3.org/2000/svg" xmlns:xlink="http://www.w3.org/1999/xlink" x="0px" y="0px"
	 viewBox="0 0 800 134" style="enable-background:new 0 0 800 134;" xml:space="preserve">
<style type="text/css">
	.st0{fill:#FFFFFF;}
</style>
<g>
	<image style="overflow:visible;opacity:0.85;" width="800" height="134" xlink:href="665DAC1A.png" >
	</image>
	<g>
		
			<image style="overflow:visible;opacity:0.85;" width="87" height="92" xlink:href="665DAC1B.png"  transform="matrix(1 0 0 1 15 15)">
		</image>
		
			<image style="overflow:visible;opacity:0.85;" width="108" height="90" xlink:href="665DAC23.png"  transform="matrix(1 0 0 1 95 16)">
		</image>
		
			<image style="overflow:visible;opacity:0.85;" width="47" height="90" xlink:href="665DAC25.png"  transform="matrix(1 0 0 1 199 16)">
		</image>
		
			<image style="overflow:visible;opacity:0.85;" width="86" height="90" xlink:href="665DAC27.png"  transform="matrix(1 0 0 1 243 16)">
		</image>
		
			<image style="overflow:visible;opacity:0.85;" width="86" height="90" xlink:href="665DAC24.png"  transform="matrix(1 0 0 1 352 16)">
		</image>
		
			<image style="overflow:visible;opacity:0.85;" width="91" height="91" xlink:href="665DAC2C.png"  transform="matrix(1 0 0 1 427 15)">
		</image>
		
			<image style="overflow:visible;opacity:0.85;" width="65" height="92" xlink:href="665DAC2D.png"  transform="matrix(1 0 0 1 508 15)">
		</image>
		
			<image style="overflow:visible;opacity:0.85;" width="92" height="90" xlink:href="665DAC2F.png"  transform="matrix(1 0 0 1 570 16)">
		</image>
		
			<image style="overflow:visible;opacity:0.85;" width="79" height="90" xlink:href="CB89E08C.png"  transform="matrix(1 0 0 1 655 16)">
		</image>
		
			<image style="overflow:visible;opacity:0.85;" width="47" height="90" xlink:href="CB89E08B.png"  transform="matrix(1 0 0 1 727 16)">
		</image>
	</g>
</g>
<g>
	<path class="st0" d="M79.3,25c-3.3-3.4-7.1-6.1-11.6-8c-4.5-1.9-9.2-2.8-14.3-2.8c-4.9,0-9.5,0.9-14,2.8c-4.5,1.9-8.4,4.5-11.7,8.1
		c-3.4,3.5-6.1,7.7-8,12.6c-1.9,4.9-2.9,10.4-2.9,16.6c0,5.7,0.9,11,2.8,15.9c1.8,5,4.4,9.2,7.6,12.6c3.2,3.5,7.1,6.3,11.6,8.3
		c4.5,2,9.4,3,14.7,3c5,0,9.7-0.9,14.1-2.8s8.3-4.5,11.6-7.9c3.4-3.5,6.1-7.7,8.1-12.6s2.9-10.4,2.9-16.5c0-6-0.9-11.5-2.8-16.5
		C85.3,32.7,82.7,28.5,79.3,25z M75.7,67.9c-0.9,4.1-2.4,7.8-4.4,11.1c-1.9,3.2-4.4,5.7-7.5,7.5c-3.1,1.8-6.5,2.7-10.4,2.7
		c-4.1,0-7.6-0.9-10.5-2.7c-2.9-1.8-5.4-4.2-7.3-7.4c-2-3.2-3.5-6.9-4.4-11.1c-0.9-4.2-1.4-8.8-1.4-14c0-4.7,0.4-9.1,1.3-13.3
		c0.9-4.2,2.2-7.9,4-11.1c1.9-3.3,4.4-5.9,7.4-7.9c3-2,6.7-3,11-3c3.8,0,7.2,0.9,10.2,2.6c3,1.7,5.4,4.1,7.4,7.1
		c2,3.1,3.5,6.8,4.5,11.2c1,4.4,1.5,9.2,1.5,14.4C77.1,59.2,76.6,63.8,75.7,67.9z"/>
	<path class="st0" d="M184,86.8c-1.2-0.6-2-1.4-2.5-2.3s-0.6-1.9-0.6-3.2V26.5c0-1.2,0.2-2.3,0.6-3.3c0.4-1,1.3-1.7,2.5-2.1
		c0.7-0.3,1.9-0.5,3.4-0.8c1.6-0.3,2.8-0.4,3.8-0.5v-3.8h-24.9c0,0.6-0.3,1.9-0.8,3.8c-0.5,1.9-1.1,3.8-1.7,5.5l-18.6,47.9
		l-21.8-57.2h-26v3.8c1.6,0.1,3.2,0.3,4.8,0.8c1.6,0.5,3,1.2,4.1,2.1c1,0.9,1.8,2.1,2.3,3.5c0.5,1.4,0.8,3.3,0.8,5.5v39
		c0,4.9-0.2,8.3-0.7,10.4c-0.5,2.1-1.3,3.6-2.6,4.6c-1,0.8-2.3,1.4-4.1,1.8c-1.8,0.4-3.5,0.7-5.1,0.8v3.8h30.8v-3.8
		c-0.8,0-2.4-0.4-4.8-1.1c-2.5-0.7-4.1-1.4-4.9-2.1c-1.1-1-2-2.6-2.6-4.9c-0.6-2.3-0.8-5.6-0.8-10V24.6h0.7l24.8,66.3h2.7l26-64.9
		h0.8v55.4c0,1.3-0.3,2.4-0.8,3.3c-0.5,0.9-1.3,1.7-2.4,2.3c-0.7,0.4-2,0.7-3.9,0.9c-1.9,0.2-3.5,0.3-4.7,0.4v3.8h33.7v-3.8
		c-1,0-2.3-0.2-3.9-0.5C185.8,87.5,184.7,87.2,184,86.8z"/>
	<path class="st0" d="M200.6,19.8c1,0.1,2.4,0.3,4,0.7c1.6,0.4,3,0.8,4.1,1.2c1.5,0.6,2.4,1.3,2.8,2.1c0.4,0.8,0.6,1.9,0.6,3.1v55.2
		c0,1.4-0.3,2.6-0.8,3.4s-1.4,1.4-2.6,1.9c-0.8,0.3-2,0.5-3.9,0.6c-1.8,0.1-3.2,0.3-4.2,0.3v3.8h34.3v-3.8c-1.2,0-2.6-0.2-4.3-0.6
		c-1.7-0.3-2.9-0.7-3.7-0.9c-1.3-0.5-2.1-1.3-2.7-2.2c-0.5-0.9-0.8-2-0.8-3.1V26.4c0-1.2,0.2-2.3,0.7-3.2c0.5-1,1.4-1.7,2.7-2.1
		c1.1-0.4,2.5-0.7,4-0.9c1.5-0.2,2.9-0.4,4-0.4v-3.8h-34.3V19.8z"/>
	<path class="st0" d="M303.1,23.8c-3.3-2.4-7.2-4.3-11.6-5.7c-4.4-1.4-9-2.1-13.5-2.1h-33.3v3.8c0.9,0.1,2,0.2,3.3,0.5
		c1.3,0.3,2.5,0.6,3.6,1.2c1.2,0.6,2,1.3,2.4,2.3c0.4,1,0.6,2.1,0.6,3.3v55c0,1.3-0.2,2.4-0.7,3.3s-1.3,1.6-2.3,2.1
		c-0.5,0.3-1.6,0.5-3.3,0.7c-1.7,0.2-3,0.3-4.1,0.3v3.8h31.6c5.2,0,10.3-0.8,15.2-2.3c4.9-1.5,9.3-3.8,13.3-6.8
		c3.9-3,7.1-6.9,9.5-11.7c2.4-4.8,3.7-10.4,3.7-16.9c0-7-1.3-13.1-3.8-18.2C311.1,31.1,307.6,27,303.1,23.8z M302.8,68.2
		c-1,4-2.6,7.4-4.9,10.4c-2.1,2.9-4.9,5.1-8.3,6.7c-3.4,1.6-7.4,2.4-11.9,2.4c-3.9,0-6.9-0.6-8.8-1.9c-1.9-1.3-2.8-3.5-2.8-6.8V20.6
		c0.9,0,2.3-0.1,4.1-0.1c1.8-0.1,3.5-0.1,5-0.1c4.4,0,8.4,0.8,12,2.5c3.6,1.7,6.6,4,9.1,6.9c2.6,3.1,4.6,6.7,6,10.8
		c1.4,4.1,2,8.8,2,13.9C304.3,59.7,303.8,64.2,302.8,68.2z"/>
	<path class="st0" d="M412.1,23.8c-3.3-2.4-7.2-4.3-11.6-5.7c-4.4-1.4-9-2.1-13.5-2.1h-33.3v3.8c0.9,0.1,2,0.2,3.3,0.5
		c1.3,0.3,2.5,0.6,3.6,1.2c1.2,0.6,2,1.3,2.4,2.3c0.4,1,0.6,2.1,0.6,3.3v55c0,1.3-0.2,2.4-0.7,3.3s-1.3,1.6-2.3,2.1
		c-0.5,0.3-1.6,0.5-3.3,0.7c-1.7,0.2-3,0.3-4.1,0.3v3.8h31.6c5.2,0,10.3-0.8,15.2-2.3c4.9-1.5,9.3-3.8,13.3-6.8
		c3.9-3,7.1-6.9,9.5-11.7c2.4-4.8,3.7-10.4,3.7-16.9c0-7-1.3-13.1-3.8-18.2S416.5,27,412.1,23.8z M411.7,68.2c-1,4-2.6,7.4-4.9,10.4
		c-2.1,2.9-4.9,5.1-8.3,6.7c-3.4,1.6-7.4,2.4-11.9,2.4c-3.9,0-6.9-0.6-8.8-1.9c-1.9-1.3-2.8-3.5-2.8-6.8V20.6c0.9,0,2.3-0.1,4.1-0.1
		c1.8-0.1,3.5-0.1,5-0.1c4.4,0,8.4,0.8,12,2.5c3.6,1.7,6.6,4,9.1,6.9c2.6,3.1,4.6,6.7,6,10.8s2,8.8,2,13.9
		C413.3,59.7,412.7,64.2,411.7,68.2z"/>
	<path class="st0" d="M500.3,86.5c-1.2-0.8-2.2-1.7-2.8-2.5s-1.3-2-1.8-3.4l-25.4-65.7h-4.3c-3.6,9.3-7.7,19.9-12.4,31.9
		s-8.8,22.7-12.7,32.2c-0.8,1.9-1.5,3.3-2.3,4.4c-0.8,1.1-1.9,2.1-3.3,3c-0.9,0.6-2,1-3.4,1.4c-1.4,0.3-2.6,0.5-3.5,0.6v3.8h28.7
		v-3.8c-2.8-0.1-5.4-0.6-7.6-1.4c-2.3-0.8-3.4-1.9-3.4-3.3c0-0.6,0.1-1.4,0.3-2.4c0.2-1,0.5-2.2,1-3.8c0.5-1.6,1.1-3.3,1.7-5.2
		c0.6-1.9,1.4-4,2.4-6.6h26.8l6.3,17.1c0.1,0.4,0.3,0.8,0.3,1.2c0.1,0.5,0.1,0.9,0.1,1.2c0,0.8-0.9,1.5-2.8,2s-4.2,0.9-7,1.1v3.8
		h31.7v-3.8c-0.9,0-2-0.2-3.3-0.6C502.2,87.4,501.1,87,500.3,86.5z M453.3,61l11.4-29.6L476.2,61H453.3z"/>
	<path class="st0" d="M557,57.2c-1.5-1.6-3.2-3-5.2-4.1c-2-1.2-4.1-2.2-6.2-3.2c-2.4-1-4.8-2-7.3-2.9c-2.5-0.9-5.1-2-7.7-3.2
		c-2.9-1.4-5.2-3.2-6.7-5.3c-1.5-2.2-2.3-4.9-2.3-8.2c0-3.2,1.2-5.8,3.6-8c2.4-2.2,5.3-3.3,8.7-3.3c3.2,0,5.9,0.6,8.2,1.9
		c2.2,1.2,4.1,2.9,5.6,5c1.6,2.1,2.9,4.5,3.8,7.2c1,2.7,1.9,5.4,2.7,8.3h4.4l-0.4-25.3h-4.3l-2.2,3.7c-2.3-1.4-4.8-2.7-7.6-3.8
		c-2.8-1.1-5.9-1.6-9.4-1.6c-3.1,0-6,0.5-8.9,1.6c-2.8,1.1-5.3,2.5-7.4,4.4c-2.2,2-3.9,4.2-5,6.7s-1.8,5.2-1.8,8.1
		c0,5,1.2,9.1,3.6,12.3c2.4,3.1,5.7,5.7,10,7.6c2.2,1,4.8,2.1,7.8,3.2s5.7,2.1,8,3.1c3.4,1.4,6,3.4,7.7,6s2.6,5.5,2.6,8.5
		c0,2.1-0.3,3.9-0.8,5.5c-0.6,1.6-1.4,3-2.6,4.2c-1.1,1.2-2.6,2.1-4.5,2.7c-1.8,0.6-4,1-6.5,1c-3.3,0-6.2-0.6-8.7-1.9
		c-2.5-1.3-4.7-2.9-6.5-5c-2-2.3-3.6-4.7-4.8-7.3c-1.2-2.6-2.2-5.5-3.1-8.7h-4.4l0.8,26.1h4.3l2.3-3.9c2.5,1.5,5.4,2.8,8.8,3.8
		c3.4,1.1,6.8,1.6,10.2,1.6c7.4,0,13.6-2.2,18.5-6.6c5-4.4,7.5-9.9,7.5-16.7c0-2.8-0.4-5.3-1.2-7.4C559.8,60.9,558.6,59,557,57.2z"
		/>
	<path class="st0" d="M618.6,19.8c1,0.1,2.2,0.3,3.6,0.6c1.4,0.4,2.6,0.8,3.5,1.2c1.1,0.5,2,1.3,2.4,2.2c0.5,0.9,0.7,2,0.7,3.1v23.1
		H593V26.5c0-1.2,0.2-2.3,0.6-3.3c0.4-1,1.2-1.7,2.4-2.1c0.7-0.3,1.8-0.5,3.3-0.8c1.4-0.3,2.7-0.4,3.7-0.5v-3.8h-31.6v3.8
		c1,0.1,2.2,0.3,3.6,0.6c1.4,0.4,2.6,0.8,3.5,1.2c1.1,0.5,2,1.3,2.4,2.2c0.5,0.9,0.7,2,0.7,3.1v55c0,1.4-0.3,2.5-0.8,3.4
		c-0.5,0.9-1.3,1.5-2.4,2c-0.6,0.3-1.7,0.5-3.4,0.6c-1.6,0.1-2.9,0.3-3.7,0.3v3.8H603v-3.8c-0.9,0-2.1-0.2-3.7-0.5
		c-1.6-0.3-2.6-0.6-3.3-1c-1.2-0.6-2-1.4-2.4-2.3c-0.4-0.9-0.6-1.9-0.6-3.2V54.9h35.8V82c0,1.4-0.3,2.5-0.8,3.4
		c-0.5,0.9-1.3,1.5-2.4,2c-0.6,0.3-1.7,0.5-3.4,0.6c-1.6,0.1-2.9,0.3-3.7,0.3v3.8h31.6v-3.8c-0.9,0-2.1-0.2-3.7-0.5
		c-1.6-0.3-2.6-0.6-3.3-1c-1.2-0.6-2-1.4-2.4-2.3c-0.4-0.9-0.6-1.9-0.6-3.2V26.5c0-1.2,0.2-2.3,0.6-3.3c0.4-1,1.2-1.7,2.4-2.1
		c0.7-0.3,1.8-0.5,3.3-0.8c1.4-0.3,2.7-0.4,3.7-0.5v-3.8h-31.6V19.8z"/>
	<path class="st0" d="M656.5,36.6h3.8c0.3-1.2,0.9-2.7,1.7-4.5c0.8-1.8,1.8-3.5,2.8-5.1s2.2-3.1,3.5-4.3c1.3-1.3,2.5-2,3.7-2.1
		c1.5-0.2,3.1-0.3,4.7-0.3c1.6-0.1,3-0.1,4.1-0.1h3.1v61.4c0,1.5-0.3,2.6-0.8,3.5c-0.6,0.9-1.4,1.5-2.6,2c-0.8,0.3-2.2,0.6-4.3,0.8
		c-2.1,0.2-3.6,0.4-4.6,0.4v3.8h36v-3.8c-1.1,0-2.7-0.3-4.8-0.7c-2.1-0.4-3.4-0.8-4.1-1c-1.3-0.5-2.1-1.3-2.6-2.3
		c-0.5-1-0.8-2.1-0.8-3.2v-61h3.1c1.4,0,3,0,4.7,0.1c1.7,0.1,3.1,0.2,4.2,0.3c1.2,0.2,2.4,0.9,3.7,2.1c1.3,1.2,2.4,2.7,3.5,4.3
		c1,1.6,2,3.2,2.8,5c0.8,1.8,1.4,3.3,1.8,4.6h3.7V15.9h-66.4V36.6z"/>
	<path class="st0" d="M751.6,23.1c0.5-1,1.4-1.7,2.7-2.1c1.1-0.4,2.5-0.7,4-0.9c1.5-0.2,2.9-0.4,4-0.4v-3.8H728v3.8
		c1,0.1,2.4,0.3,4,0.7c1.6,0.4,3,0.8,4.1,1.2c1.5,0.6,2.4,1.3,2.8,2.1c0.4,0.8,0.6,1.9,0.6,3.1v55.2c0,1.4-0.3,2.6-0.8,3.4
		s-1.4,1.4-2.6,1.9c-0.8,0.3-2,0.5-3.9,0.6c-1.8,0.1-3.2,0.3-4.2,0.3v3.8h34.3v-3.8c-1.2,0-2.6-0.2-4.3-0.6
		c-1.7-0.3-2.9-0.7-3.7-0.9c-1.3-0.5-2.1-1.3-2.7-2.2c-0.5-0.9-0.8-2-0.8-3.1V26.4C750.9,25.2,751.1,24.1,751.6,23.1z"/>
</g>
</svg>
