<?xml version="1.0" encoding="utf-8"?>
<!-- Generator: Adobe Illustrator 23.0.1, SVG Export Plug-In . SVG Version: 6.00 Build 0)  -->
<svg version="1.1" id="Calque_1" xmlns="http://www.w3.org/2000/svg" xmlns:xlink="http://www.w3.org/1999/xlink" x="0px" y="0px"
	 viewBox="0 0 1000 1000" style="enable-background:new 0 0 1000 1000;" xml:space="preserve">
<style type="text/css">
	.st0{fill:#FFFFFF;}
</style>
<g>
	<path class="st0" d="M628.57,646.79c4.82-3.38,6.9-7.59,5.68-13.58c5.82,0.91,10.26-0.63,13.53-5.71c0.07,0.09,0.15,0.17,0.22,0.25
		v-14.29c-0.01,0.01-0.01,0.01-0.02,0.02c-4.27-3.98-8.37-7.71-12.31-11.59c-0.74-0.73-1.22-2.09-1.21-3.15
		c0.05-6.17,0.12-12.34,0.56-18.49c0.1-1.41,1.64-2.75,2.64-4.03c0.33-0.42,1.11-0.46,1.58-0.83c3-2.35,5.91-3.13,8.76-2.96v-13.5
		c-2.27,0.13-4.7-0.3-7.43-1.68c-6.91-3.49-9.72-7.35-10.99-14.77c-1.26-7.34,0.18-12.58,5.09-17.8c4.63-4.92,8.6-10.46,13.3-16.27
		c0.01,0.01,0.02,0.03,0.04,0.04v-17.34c-6.2-7.55-12.03-14.46-17.57-21.59c-1.12-1.44-1.24-3.74-1.54-5.68
		c-0.18-1.16,0.1-2.4,0.29-3.6c2.18-14.1,3.22-15.36,16.97-19.88c0.56-0.19,1.21-0.25,1.85-0.22v-13.46
		c-1.58-0.17-3.27-0.8-4.85-1.18c-6.69-1.59-8.27-5.8-8.89-12.6c-0.97-10.71,1.81-18.65,10.74-24.49c0.98-0.64,1.78-1.54,3-2.63
		v-14.16c-3.57-4.16-7.3-7.36-13.63-5.15c0.86-6.11-0.69-10.7-5.79-14.1c0.27-0.19,0.53-0.39,0.78-0.59h-15.48
		c0.19,0.23,0.37,0.45,0.57,0.68c-3.78,4.05-7.27,8-11.02,11.67c-1.03,1.01-2.84,1.69-4.3,1.7c-5.87,0.05-11.75-0.03-17.59-0.51
		c-1.51-0.12-2.92-1.84-4.31-2.9c-0.32-0.24-0.34-0.84-0.61-1.19c-2.54-3.23-3.27-6.37-2.97-9.46h-13.22
		c0.02,0.14,0.05,0.29,0.07,0.43c0.47,3.63-3.1,7.63-4.23,11.65c-1.41,5.02-5.33,4.9-9.24,6.12c-9.14,2.85-16.38,1.07-23.06-5.84
		c-4.22-4.37-9.46-7.76-14.52-11.8c0.23-0.18,0.46-0.36,0.69-0.55h-18.59c0.24,0.21,0.5,0.42,0.76,0.64
		c-7.96,6.37-15.57,12.49-23.23,18.53c-0.64,0.51-1.69,0.89-2.47,0.77c-5.66-0.85-11.29-1.84-16.93-2.79
		c-0.3-0.05-0.61-0.11-0.87-0.24c-2.24-1.09-6.29-11.93-6.99-16.93h-13.83c-0.04,3.97-1.99,7.82-4.19,11.63
		c-0.55,0.94-2.03,1.83-3.13,1.89c-6.3,0.35-12.62,0.53-18.94,0.55c-1.18,0-2.67-0.65-3.51-1.5c-3.78-3.84-7.38-7.85-11.26-12.04
		c0.17-0.19,0.34-0.36,0.51-0.53h-14.96c0.13,0.07,0.24,0.15,0.37,0.22c-4.18,3.78-7.46,7.66-5.32,14.08
		c-6.29-1.15-10.6,0.72-13.99,5.56c-0.25-0.29-0.51-0.58-0.76-0.86v15.54c0.22-0.21,0.44-0.41,0.67-0.62
		c4.16,3.88,8.1,7.37,11.77,11.12c1.01,1.03,1.74,2.83,1.74,4.28c0.02,5.87-0.11,11.75-0.61,17.59c-0.13,1.53-1.73,2.99-2.82,4.35
		c-0.42,0.52-1.43,0.52-2,0.98c-3.04,2.45-5.94,3.08-8.75,2.74v13.31c1.46-0.45,3.62,0.74,5.31,1.48
		c12.32,5.36,11.56,5.55,14.27,18.53c1.43,6.86-2.27,10.3-5.39,14.48c-4.13,5.54-8.75,10.71-13.62,16.59
		c-0.19-0.24-0.38-0.48-0.57-0.72v18.81c0.24-0.3,0.47-0.6,0.71-0.9c6.43,8.06,12.54,15.64,18.53,23.33
		c0.62,0.8,0.77,2.26,0.61,3.34c-0.71,5.06-1.42,10.14-2.53,15.13c-0.32,1.46-1.94,2.64-3,3.92c-0.17,0.21-0.54,0.25-0.81,0.38
		c-6.79,3.08-10.15,4.61-13.52,4.51v13.41c4.15,0,8.09,2.35,12.01,4.45c0.88,0.47,1.55,2.1,1.61,3.24
		c0.34,6.01,0.55,12.03,0.58,18.05c0.01,1.34-0.53,3.04-1.44,3.96c-3.79,3.84-7.82,7.45-12.06,11.41c-0.24-0.22-0.47-0.43-0.71-0.65
		v15.44c0.16-0.23,0.32-0.46,0.47-0.71c3.63,4.29,7.57,7.08,13.77,5.41c-0.87,5.95,0.87,10.47,4.43,12.97
		c-0.16,0.37-0.31,0.73-0.46,1.09h16.08c-0.04-0.05-0.08-0.09-0.13-0.14c3.92-4.22,7.41-8.16,11.12-11.88
		c0.93-0.93,2.55-1.65,3.85-1.65c6.01-0.02,12.04,0.06,18.03,0.55c1.52,0.12,2.94,1.83,4.35,2.89c0.32,0.24,0.34,0.84,0.61,1.19
		c2.37,3.08,3.19,6.09,3.02,9.03h13.93c-0.2-1.19-0.24-2.12-0.04-2.61c0.67-1.68,1.74-3.24,2.12-4.97
		c1.66-7.41,6.71-9.28,13.64-10.98c7.92-1.94,13.15,0.01,18.58,5.24c4.65,4.48,10.03,8.21,15.07,12.28c0.2,0.16,0.31,0.45,0.68,1.03
		h17.72c-0.05-0.04-0.1-0.08-0.15-0.12c8.09-6.52,15.67-12.66,23.31-18.72c0.63-0.5,1.71-0.81,2.51-0.69
		c5.66,0.85,11.31,1.75,16.92,2.84c0.95,0.19,2.03,1.23,2.48,2.16c2.02,4.2,3.95,8.46,5.66,12.79c0.2,0.51,0.22,1.11,0.16,1.73
		h12.83c0.16-1.67,1.21-3.59,1.58-5.36c1.4-6.59,5.75-7.77,11.98-8.38c10.46-1.03,18.82,1,24.6,10.3c0.7,1.12,1.78,2.01,2.98,3.33
		c-0.03,0.04-0.07,0.07-0.1,0.1h14.44C628.76,646.93,628.67,646.86,628.57,646.79z M641.6,499.69
		c-5.08,6.89-10.03,13.61-15.51,21.05c-0.49-1.86-0.93-2.81-0.97-3.77c-0.36-8.35-4.98-12.89-12.8-14.87
		c-2.24-0.57-4.32-1.8-7.47-3.16c5.34-1.71,9.51-3.27,13.8-4.34c2.9-0.73,4.24-2.3,4.78-5.11c0.6-3.09,1.5-6.12,2.58-10.43
		C631.49,486.33,636.47,492.92,641.6,499.69z M558,483.23c7.35-8.23,14.26-16.13,21.42-23.81c1.05-1.13,3.22-1.43,4.94-1.68
		c6.7-0.99,13.42-1.81,20.13-2.69c0.6-0.08,1.22-0.28,1.79-0.19c3.05,0.49,11.24,13.52,11.26,16.59
		c0.06,11.23-5.96,16.02-16.25,19.31c-8.52,2.72-15.76,3.87-23.94-0.26C571.4,487.49,564.82,485.73,558,483.23z M572.87,498.61
		c-7.25,2.65-13.54,5.01-19.88,7.18c-0.87,0.3-2.38-0.06-3.07-0.69c-1.96-1.8-3.66-3.89-5.66-6.09c1.89-2.19,3.53-4.31,5.44-6.15
		c0.7-0.67,2.21-1.13,3.1-0.86C559.2,493.98,565.54,496.17,572.87,498.61z M577,448.84c-0.83,0.98-1.97,2.12-3.13,2.34
		c-10.3,1.94-20.64,3.7-31.65,5.63c2.25-10.97,4.32-21.24,6.54-31.47c0.22-1.02,1.29-2.01,2.2-2.72
		c5.69-4.47,11.35-8.98,17.24-13.18c1.28-0.91,3.42-0.65,5.17-0.83c0.4-0.04,0.83,0.31,1.25,0.47c13.43,5.09,13.49,5.07,16.99,18.99
		c0.33,1.29-0.26,3.24-1.12,4.34C586.12,438,581.57,443.43,577,448.84z M546.8,466.17c2.5-0.54,5.02-1.01,7.52-1.52
		c2.47-0.5,4.94-0.99,8.69-1.75c-5.09,5.92-9.2,10.9-13.59,15.63c-0.85,0.92-2.86,1.28-4.22,1.09c-2.19-0.3-4.29-1.28-6.36-1.95
		C538.26,469.54,539.53,467.74,546.8,466.17z M542.75,519.26c3.94-2.2,6.98-1.31,9.79,2.47c3.19,4.29,7.08,8.05,11.48,12.94
		c-7.72-1.39-14.23-2.39-20.65-3.76c-4.71-1-2.87-5.63-3.97-8.57C539.19,521.79,541.4,520.01,542.75,519.26z M574.51,547.48
		c1.29,0.28,2.59,1.49,3.47,2.59c4.41,5.54,8.8,11.1,12.9,16.86c0.92,1.29,0.68,3.42,0.88,5.18c0.04,0.39-0.34,0.82-0.5,1.24
		c-5,13.23-4.98,13.3-18.39,16.91c-1.45,0.39-3.64-0.03-4.83-0.94c-5.73-4.41-11.26-9.07-16.77-13.74
		c-0.95-0.81-1.89-2.06-2.11-3.24c-1.92-10.15-3.67-20.33-5.6-31.25C554.5,543.31,564.53,545.29,574.51,547.48z M577.7,537.02
		c-6.4-7.38-12.53-14.99-19.12-22.96c10.53-3.49,20.48-6.82,30.47-10.01c0.99-0.31,2.35,0.1,3.4,0.52
		c6.72,2.69,13.44,5.35,20.04,8.32c1.35,0.6,2.71,2.3,3.07,3.74c1.02,4.08,1.64,8.28,2.16,12.47c0.14,1.16-0.33,2.68-1.07,3.6
		c-2.74,3.4-5.61,6.73-8.67,9.85c-0.84,0.86-2.58,1.41-3.79,1.23c-7.01-1.01-14.01-2.11-20.94-3.55
		C581.25,539.79,579.04,538.56,577.7,537.02z M627.65,430.51c2.7,0.77,5.22,2.14,8.61,3.57c-4.27,1.84-7.72,3.49-11.3,4.8
		c-2.31,0.84-3.26,2.1-3.35,4.6c-0.15,4.04-0.74,8.06-1.25,13.25c-2.78-3.35-5.13-5.9-7.15-8.7c-1.77-2.46-3.5-3.51-6.77-2.74
		c-4.64,1.09-9.46,1.37-15.31,2.15c3.86-4.23,6.92-7.89,10.32-11.21c2.07-2.03,2.31-3.8,1.07-6.32c-1.65-3.36-2.95-6.88-4.82-11.32
		c3.8,1.44,6.7,2.87,9.77,3.58c1.52,0.35,3.84-0.06,4.93-1.06c3.75-3.44,7.11-7.29,11.6-12.01c0,6.21,0.2,11.02-0.07,15.8
		C623.75,427.96,624.6,429.64,627.65,430.51z M596.26,383.34c6.22-5.86,12.15-9.19,20.56-8.15c2.34,0.29,4.75,0.04,7.85,0.04
		c-0.37,6.69-0.67,12.7-1.07,18.7c-0.06,0.83-0.39,1.83-0.95,2.42c-4.38,4.57-8.84,9.06-13.29,13.56c-0.32,0.32-0.64,0.68-1.04,0.86
		c-2.69,1.18-14.9-4.58-16.33-7.13C587.38,395.48,589.39,389.8,596.26,383.34z M557.16,378.59c2.65-0.17,4.04-1.2,4.69-3.79
		c1.11-4.36,2.48-8.65,4.03-13.96c1.76,4.35,3.26,7.73,4.5,11.21c0.82,2.31,2.07,3.28,4.63,3.18c4.91-0.2,9.83-0.06,14.75-0.06
		c0.14,0.44,0.28,0.87,0.41,1.31c-3.19,3.1-6.24,6.35-9.6,9.25c-2.3,1.98-2.79,3.87-1.66,6.68c1.27,3.18,2.06,6.56,3.32,10.74
		c-4.21-1.78-7.77-3.07-11.12-4.77c-2.49-1.27-4.28-1.11-6.41,0.82c-3.55,3.22-7.42,6.09-12.1,9.88c1.3-5.73,2.05-10.35,3.44-14.76
		c1.02-3.24,0.03-5.01-2.61-6.69c-3.28-2.08-6.35-4.49-10.56-7.5C548.38,379.51,552.76,378.87,557.16,378.59z M530.08,382.57
		c1.3-0.13,2.96,0.38,4,1.19c3.32,2.61,6.54,5.38,9.52,8.36c0.94,0.95,1.53,2.86,1.35,4.2c-0.87,6.57-1.77,13.17-3.27,19.62
		c-0.62,2.67-2.28,5.55-4.33,7.37c-6.97,6.21-14.31,11.99-22.09,18.4c-3.42-10.38-6.69-20.08-9.76-29.85
		c-0.4-1.27-0.13-2.98,0.38-4.27c2.6-6.59,5.23-13.18,8.23-19.59c0.73-1.56,2.71-3.06,4.41-3.52
		C522.26,383.47,526.19,382.97,530.08,382.57z M537.95,560.48c0.02,0.09-0.17,0.23-0.51,0.67c-5.33-4.57-10.75-9.03-15.87-13.82
		c-0.77-0.73-0.33-3.03-0.05-4.53c0.36-1.88,1.13-3.69,1.77-5.69c9.78,0.74,9.79,0.74,11.75,9.74
		C536.04,551.39,537,555.94,537.95,560.48z M506.92,558.4c-1.28,4.13-2.55,8.27-4.16,13.52c-2.8-7.36-5.35-13.74-7.55-20.24
		c-0.32-0.96,0.78-2.67,1.64-3.69c1.43-1.7,3.2-3.11,4.98-4.78C509.72,549.36,509.71,549.36,506.92,558.4z M477.27,553.47
		c-3.21,3.07-6.54,6.01-10.64,9.76c1.19-7.54,2.07-13.9,3.31-20.19c0.24-1.22,1.73-2.59,2.98-3.14c2.15-0.94,4.56-1.27,6.87-1.86
		c0.37,0.54,0.71,0.87,0.84,1.26C484.01,549.29,485.14,545.93,477.27,553.47z M461.97,479.1c-0.46,0.54-0.54,0.71-0.66,0.76
		c-8.38,3.6-8.39,3.61-14.67-2.91c-2.92-3.04-5.81-6.12-8.68-9.19c-0.17-0.18-0.16-0.55-0.33-1.25c6.8,0.97,13.44,1.83,20.03,2.97
		c0.97,0.17,2.06,1.6,2.47,2.68C460.95,474.38,461.37,476.77,461.97,479.1z M461.45,438.8c6.36,5,11.86,9.19,17.15,13.62
		c0.68,0.57,0.58,2.46,0.36,3.65c-0.4,2.19-1.15,4.31-1.89,6.94c-2.93-0.45-5.5-0.62-7.92-1.3c-1.04-0.29-2.28-1.51-2.57-2.54
		C464.85,452.83,463.35,446.42,461.45,438.8z M457.6,500.56c-6.4,8.87-6.4,8.87-15.43,6.13c-4.12-1.25-8.24-2.51-13.57-4.14
		c7.36-2.89,13.52-5.44,19.8-7.65c1.01-0.35,2.7,0.62,3.82,1.36C454.09,497.5,455.75,499.06,457.6,500.56z M426.62,451.92
		c-1.17-0.25-2.37-1.29-3.16-2.28c-4.5-5.66-8.88-11.42-13.3-17.15c-0.37-0.48-0.85-0.91-1.08-1.44
		c-1.08-2.45,4.98-16.81,7.53-17.91c0.41-0.18,0.91-0.2,1.28-0.43c9.01-5.41,15.98-3.16,23.8,3.76c7.17,6.34,12.2,12.49,12.69,22.33
		c0.31,6.25,2.06,12.43,3.32,19.5C446.87,456.11,436.72,454.1,426.62,451.92z M422.58,461.17c6.64,7.78,13.15,15.66,20.24,24.15
		c-10.46,3.51-20.26,6.86-30.12,10.03c-1.14,0.37-2.7-0.01-3.9-0.48c-6.72-2.64-13.38-5.41-20.06-8.15
		c-0.56-0.23-1.17-0.4-1.64-0.75c-2.15-1.61-4.08-17.1-2.43-19.28c0.18-0.24,0.46-0.41,0.62-0.66c5.22-8.6,12.07-12.55,22.33-8.72
		c3.59,1.34,7.7,1.28,11.53,2.05C420.37,459.63,421.79,460.25,422.58,461.17z M410.16,505.49c1.03-0.37,2.3-0.42,3.39-0.21
		c1.46,0.28,2.85,0.95,4.26,1.47c8.31,3.06,16.62,6.13,25.64,9.46c-7.19,8.09-13.84,15.69-20.65,23.14
		c-1.02,1.11-2.72,1.95-4.23,2.19c-6.69,1.08-13.44,1.83-20.15,2.83c-2.76,0.41-4.66-0.15-6.57-2.52
		c-9.2-11.39-9.35-11.34-5.55-25.32c0.35-1.3,1.83-2.73,3.13-3.25C396.28,510.52,403.22,508,410.16,505.49z M424.95,550.25
		c0.73-0.87,1.72-1.92,2.73-2.11c10.31-1.9,20.64-3.64,31.66-5.54c-2.23,11.02-4.34,21.43-6.46,31.83c-0.06,0.28-0.21,0.6-0.43,0.77
		c-6.88,5.38-13.75,10.78-20.73,16.02c-0.58,0.44-2-0.02-2.95-0.31c-14.13-4.38-14.42-4.6-18.52-19.1c-0.4-1.41,0.07-3.58,0.98-4.76
		C415.63,561.33,420.3,555.8,424.95,550.25z M453.43,534.72c-4.22,0.99-8.43,2.02-12.64,3.02c-0.15-0.27-0.31-0.54-0.46-0.81
		c4.14-5.14,8.24-10.33,12.49-15.38c0.61-0.72,2.07-1.25,2.98-1.07c2.62,0.52,5.15,1.45,7.54,2.16c0.18,0.63,0.37,0.93,0.33,1.19
		C462.22,532.67,462.22,532.66,453.43,534.72z M495.88,441.19c1.37-3.96,2.79-7.91,4.2-11.86c0.09-0.26,0.34-0.48,0.91-1.24
		c2.31,6.7,4.54,12.9,6.52,19.17c0.31,0.98-0.16,2.62-0.87,3.42c-1.67,1.89-3.71,3.45-5.59,5.13c-0.58-0.28-1.03-0.4-1.35-0.67
		C493.02,449.52,493.01,449.52,495.88,441.19z M520.35,451.08c5.08-4.61,10.29-9.08,16.18-14.23c-1.36,7.33-2.38,13.67-3.81,19.92
		c-0.31,1.33-1.95,2.74-3.32,3.34c-2.01,0.89-4.33,1.09-7.01,1.69c-0.93-2.71-1.94-5.31-2.67-7.99
		C519.5,453,519.77,451.61,520.35,451.08z M500.74,358.34c6.78,5.47,13.58,10.95,20.38,16.44c0.07,0.51,0.15,1.03,0.22,1.54
		c-12.15-2.19-17.1,4.28-19.03,14.47c-0.22,1.16-0.81,2.24-1.62,4.42c-1.91-5.21-3.69-9.5-5.03-13.93
		c-0.92-3.04-2.56-4.36-5.72-4.58c-2.94-0.2-5.85-1.01-9.71-1.72C487.4,369.15,493.88,363.9,500.74,358.34z M467.81,383.53
		c1.07-0.77,2.73-0.74,4.12-1.04c0.27-0.06,0.59,0.13,0.89,0.14c10.67,0.2,15.9,5.56,19.14,15.95c2.77,8.88,3.85,16.42-0.41,24.86
		c-2.9,5.74-4.61,12.08-7.1,18.8c-8.15-7.31-15.82-14.11-23.35-21.05c-0.97-0.9-1.52-2.55-1.73-3.93
		c-1.09-7.31-2.11-14.63-2.9-21.97c-0.13-1.21,0.6-2.92,1.52-3.76C461.1,388.69,464.4,386.01,467.81,383.53z M425.14,376.53
		c3.48,0.18,5.63-0.77,6.71-4.34c0.86-2.85,2.39-5.49,4.08-9.24c1.43,4.12,2.86,7.34,3.64,10.72c0.73,3.19,2.61,4.32,5.55,4.73
		c3.99,0.56,7.95,1.32,12.94,2.17c-4.08,2.89-7.56,4.99-10.56,7.64c-1.27,1.12-2.26,3.49-2.08,5.14c0.55,4.91,1.74,9.75,2.95,15.97
		c-4.55-4.08-8.18-7.02-11.41-10.35c-2.04-2.1-3.89-2.24-6.38-1.21c-3.43,1.42-6.95,2.61-11.5,4.29c1.36-3.03,1.99-5.2,3.2-6.97
		c2.52-3.69,1.28-6.1-1.85-8.63c-3.37-2.73-6.37-5.93-10.65-9.98C415.74,376.47,420.45,376.28,425.14,376.53z M376.38,383.47
		c0.3-2.34,0.05-4.76,0.05-7.89c6.65,0.36,12.65,0.66,18.65,1.06c0.84,0.06,1.85,0.37,2.43,0.93c4.68,4.48,9.27,9.05,13.88,13.6
		c0.21,0.21,0.44,0.43,0.56,0.7c1.06,2.33-4.28,15.15-6.69,16.09c-11.69,4.58-11.3,4.15-20.52-4.06
		C378.31,398.17,375.31,391.92,376.38,383.47z M363.53,434.87c2.14-1.15,3.34-2.15,4.69-2.46c7.2-1.67,9.38-6.28,8.45-13.2
		c-0.4-2.94-0.07-5.99-0.07-10.32c4.49,4.42,8.23,7.81,11.6,11.52c2.03,2.24,3.91,2.73,6.65,1.55c2.98-1.28,6.12-2.2,10.31-3.68
		c-2.29,4.21-3.91,7.53-5.85,10.66c-1.39,2.24-1.37,3.87,0.49,5.92c3.5,3.87,6.68,8.03,10.88,13.15c-6.13-1.4-10.97-2.28-15.67-3.67
		c-2.53-0.74-3.88-0.06-5.28,1.92c-2.41,3.41-5.03,6.68-8.21,10.86c-0.6-5.78-0.91-10.55-1.71-15.24c-0.23-1.32-1.69-3.01-2.96-3.45
		C372.79,437.05,368.57,436.17,363.53,434.87z M359.57,499.64c5.53-6.63,10.99-13.17,17.12-20.52c0.45,3.93,1.12,6.95,1.04,9.96
		c-0.08,3.22,1.4,4.47,4.2,5.34c4.55,1.42,8.99,3.19,14.44,5.16c-5.58,1.86-10.07,3.6-14.7,4.82c-2.8,0.73-3.92,2.18-4.22,4.9
		c-0.36,3.28-1.03,6.53-1.77,11.01C369.97,512.99,364.92,506.5,359.57,499.64z M372.69,568.06c-1.97-0.62-3.79-1.7-6.64-3.02
		c3.79-1.43,6.57-2.68,9.48-3.52c2.93-0.84,4.03-2.56,4.15-5.52c0.18-4.3,0.74-8.58,1.23-13.85c3.67,4.18,6.57,7.77,9.83,11.02
		c1.02,1.01,3.06,1.67,4.48,1.47c5.05-0.71,10.03-1.86,16.31-3.09c-3.82,4.23-6.75,7.86-10.09,11.06c-2.42,2.32-2.97,4.47-1.63,7.54
		c1.31,2.98,2.15,6.16,3.48,10.11c-3.05-1.05-5.56-1.55-7.69-2.74c-3.47-1.94-5.65-0.93-7.96,1.96c-2.82,3.52-6.09,6.68-10.25,11.17
		c0-5.85-0.25-10.54,0.08-15.19C377.74,571.55,376.42,569.24,372.69,568.06z M383.48,624.03c-1.91-0.25-3.87-0.04-6.69-0.04
		c0.37-6.73,0.63-12.88,1.12-19c0.08-1.04,0.95-2.14,1.71-3c1.69-1.92,3.88-3.47,5.27-5.57c5.25-7.86,11.66-9.32,20.13-5.09
		c2.67,1.33,3.47,3.09,4.75,5.29c4.35,7.48,1.95,12.39-3.83,18.42C399.39,621.9,392.69,625.24,383.48,624.03z M443.72,620.76
		c-1.49,0.24-3.38,1.71-3.98,3.09c-1.48,3.39-2.32,7.07-3.76,11.74c-2.03-4.03-3.36-7.29-5.26-10.17c-0.85-1.29-2.84-2.52-4.35-2.56
		c-4.63-0.15-9.29,0.28-15.31,0.55c5.22-4.85,9.54-8.86,14.09-13.1c-2.05-4.56-4.07-9.05-6.51-14.48c4.32,1.71,7.86,3.43,11.59,4.46
		c1.66,0.46,4.09,0.13,5.48-0.83c4.17-2.89,7.99-6.27,12.78-10.12c-0.92,5.21-1.54,9.46-2.46,13.64c-0.79,3.56-0.21,6.25,2.98,8.53
		c2.99,2.14,5.56,4.87,9.1,8.05C452.58,619.96,448.1,620.06,443.72,620.76z M467.58,615.61c-3.33-2.5-6.63-5.09-9.6-8
		c-0.97-0.95-1.38-3.06-1.17-4.52c1.07-7.61,2.36-15.19,3.73-22.75c0.19-1.05,1.07-2.15,1.92-2.88c7.71-6.53,15.48-12.97,23.78-19.9
		c3.67,10.66,7.16,20.75,10.6,30.86c0.23,0.66,0.27,1.57,0,2.2c-3.26,7.56-6.59,15.09-9.91,22.63c-0.18,0.41-0.35,0.88-0.67,1.16
		C484.58,615.92,469.5,617.06,467.58,615.61z M502.54,639.46c-0.73,0.56-2.47,0.82-3.09,0.36c-6.31-4.79-12.49-9.76-19.29-15.15
		c2.28-0.51,3.71-1.16,5.1-1.08c7.29,0.43,10.81-3.28,12.1-10.12c0.55-2.91,1.96-5.66,3.36-9.56c1.93,5.53,3.75,10.02,5.03,14.66
		c0.82,2.94,2.36,4.16,5.28,4.4c3.13,0.26,6.22,0.88,10.38,1.5C514.57,629.94,508.61,634.77,502.54,639.46z M529.03,616.51
		c-10.93-0.03-17.09-5.31-18.81-15.99c-0.05-0.29-0.17-0.59-0.32-0.84c-4.4-7.53-4.32-14.81-0.3-22.74
		c3.08-6.07,4.65-12.91,7.22-20.33c8.66,7.69,16.35,14.43,23.9,21.33c0.97,0.89,1.51,2.53,1.72,3.9c1.1,7.14,2.02,14.32,3,21.48
		c0.08,0.6,0.2,1.22,0.11,1.8C545.06,608.27,532.22,616.51,529.03,616.51z M589.7,623.41c-4.73,0-9.48,0.19-14.19-0.07
		c-3.14-0.17-5.06,0.63-6.03,3.84c-0.77,2.55-2.15,4.92-3.67,8.28c-1.5-4.51-2.47-8.27-4.04-11.77c-0.62-1.38-2.43-2.83-3.91-3.1
		c-4.07-0.75-8.24-0.89-13.44-1.37c3.03-2.89,5.21-5.33,7.76-7.3c2.37-1.84,2.89-3.95,2.45-6.71c-0.73-4.59-1.31-9.2-2.13-15.15
		c4.33,3.8,7.59,7.04,11.26,9.69c1.51,1.09,4.04,1.59,5.89,1.22c3.92-0.78,7.7-2.3,12.45-3.81c-0.96,2.07-1.46,3.15-1.95,4.24
		c-3.55,7.83-3.57,7.85,2.76,14.05c2.43,2.38,4.97,4.63,7.46,6.94C590.13,622.73,589.92,623.07,589.7,623.41z M624.96,616.36
		c-0.29,2.18-0.04,4.42-0.04,7.22c-6.59-0.36-12.71-0.62-18.81-1.09c-1.06-0.08-2.18-0.91-3.03-1.66c-1.92-1.68-3.48-3.85-5.57-5.26
		c-7.78-5.25-9.33-11.64-5.15-20.13c1.32-2.67,2.98-3.58,5.23-4.82c7.36-4.03,12.37-2.4,18.41,3.75
		C622.42,600.91,626.15,607.26,624.96,616.36z M623.45,573.44c0.41,4.94,0.49,9.91,0.76,16.13c-3.74-3.8-7.12-6.69-9.83-10.12
		c-2.66-3.36-5.25-3.77-8.88-1.83c-2.32,1.24-4.97,1.88-7.47,2.8c-0.19-0.57-0.43-0.93-0.34-1.07c5.16-8.16,3.9-15.31-3.22-21.69
		c-1.39-1.25-2.32-3-4-5.23c5.62,1.16,10.28,2.34,15.01,2.98c1.58,0.22,3.76-0.46,4.94-1.53c3.07-2.79,5.73-6.03,8.56-9.1
		c0.46,0.49,0.82,0.71,0.8,0.88c-0.92,8.88,2.94,14.38,11.53,16.76c1.67,0.46,3.16,1.58,5.73,2.92c-4.07,1.43-7.2,2.67-10.42,3.62
		C624.23,569.66,623.23,570.82,623.45,573.44z"/>
</g>
</svg>
